<svg xmlns="http://www.w3.org/2000/svg" xmlns:xlink="http://www.w3.org/1999/xlink" width="778.573" height="685.433" viewBox="0 0 778.573 685.433">
  <defs>
    <filter id="Rectángulo_46666" x="0" y="207.323" width="261.005" height="276.784" filterUnits="userSpaceOnUse">
      <feOffset dy="3" input="SourceAlpha"/>
      <feGaussianBlur stdDeviation="3" result="blur"/>
      <feFlood flood-opacity="0.161"/>
      <feComposite operator="in" in2="blur"/>
      <feComposite in="SourceGraphic"/>
    </filter>
    <filter id="Rectángulo_46726" x="257.206" y="207.323" width="261.005" height="276.784" filterUnits="userSpaceOnUse">
      <feOffset dy="3" input="SourceAlpha"/>
      <feGaussianBlur stdDeviation="3" result="blur-2"/>
      <feFlood flood-opacity="0.161"/>
      <feComposite operator="in" in2="blur-2"/>
      <feComposite in="SourceGraphic"/>
    </filter>
    <filter id="Rectángulo_46727" x="517.568" y="207.323" width="261.005" height="276.784" filterUnits="userSpaceOnUse">
      <feOffset dy="3" input="SourceAlpha"/>
      <feGaussianBlur stdDeviation="3" result="blur-3"/>
      <feFlood flood-opacity="0.161"/>
      <feComposite operator="in" in2="blur-3"/>
      <feComposite in="SourceGraphic"/>
    </filter>
  </defs>
  <g id="Grupo_161722" data-name="Grupo 161722" transform="translate(-420.633 -4216.792)">
    <path id="Trazado_199806" data-name="Trazado 199806" d="M0,350.184H184.728V0H492.9V350.184H685.433L327.414,653.831Z" transform="translate(524.353 4902.226) rotate(-90)" fill="#e8e8e8"/>
    <g transform="matrix(1, 0, 0, 1, 420.63, 4216.79)" filter="url(#Rectángulo_46666)">
      <rect id="Rectángulo_46666-2" data-name="Rectángulo 46666" width="243.005" height="258.784" rx="10" transform="translate(9 213.32)" fill="#1565c0"/>
    </g>
    <g transform="matrix(1, 0, 0, 1, 420.63, 4216.79)" filter="url(#Rectángulo_46726)">
      <rect id="Rectángulo_46726-2" data-name="Rectángulo 46726" width="243.005" height="258.784" rx="10" transform="translate(266.21 213.32)" fill="#5793ce"/>
    </g>
    <g transform="matrix(1, 0, 0, 1, 420.63, 4216.79)" filter="url(#Rectángulo_46727)">
      <rect id="Rectángulo_46727-2" data-name="Rectángulo 46727" width="243.005" height="258.784" rx="10" transform="translate(526.57 213.32)" fill="#43bda7"/>
    </g>
    <path id="Trazado_199873" data-name="Trazado 199873" d="M-68.1-5.64a6.539,6.539,0,0,1-2.081,4.352A6.821,6.821,0,0,1-74.841.244a6.263,6.263,0,0,1-5.048-2.258,9.086,9.086,0,0,1-1.9-6.042V-9.766a10.127,10.127,0,0,1,.885-4.358,6.611,6.611,0,0,1,2.509-2.887,6.985,6.985,0,0,1,3.76-1.007,6.422,6.422,0,0,1,4.541,1.581,6.618,6.618,0,0,1,1.99,4.376h-2.356a5.107,5.107,0,0,0-1.324-3.086,4.007,4.007,0,0,0-2.85-.955,4.193,4.193,0,0,0-3.522,1.662,7.628,7.628,0,0,0-1.276,4.728v1.723a7.841,7.841,0,0,0,1.208,4.606,3.9,3.9,0,0,0,3.381,1.71,4.51,4.51,0,0,0,3-.885A4.911,4.911,0,0,0-70.459-5.64Zm2.246-1.086a7.8,7.8,0,0,1,.763-3.491A5.691,5.691,0,0,1-62.97-12.61a5.782,5.782,0,0,1,3.107-.842A5.57,5.57,0,0,1-55.5-11.584a7.186,7.186,0,0,1,1.666,4.968v.159A7.869,7.869,0,0,1-54.572-3,5.608,5.608,0,0,1-56.683-.61a5.848,5.848,0,0,1-3.156.854,5.556,5.556,0,0,1-4.352-1.868,7.149,7.149,0,0,1-1.666-4.944Zm2.271.269A5.651,5.651,0,0,0-62.567-2.93,3.262,3.262,0,0,0-59.839-1.6,3.242,3.242,0,0,0-57.1-2.948a6.179,6.179,0,0,0,1.013-3.778,5.641,5.641,0,0,0-1.031-3.522,3.279,3.279,0,0,0-2.74-1.349,3.243,3.243,0,0,0-2.7,1.331A6.133,6.133,0,0,0-63.586-6.458Zm14.722-6.75.073,1.66a4.813,4.813,0,0,1,3.955-1.9q4.187,0,4.224,4.724V0h-2.258V-8.74a3.041,3.041,0,0,0-.653-2.112,2.617,2.617,0,0,0-2-.684,3.259,3.259,0,0,0-1.929.586,3.979,3.979,0,0,0-1.294,1.538V0H-51V-13.208Zm19.348,9.7a1.662,1.662,0,0,0-.69-1.422,6.639,6.639,0,0,0-2.4-.873,11.37,11.37,0,0,1-2.722-.879A3.873,3.873,0,0,1-36.823-7.9,2.92,2.92,0,0,1-37.3-9.583a3.426,3.426,0,0,1,1.373-2.747,5.363,5.363,0,0,1,3.51-1.123,5.519,5.519,0,0,1,3.644,1.16,3.683,3.683,0,0,1,1.4,2.966h-2.271a2.039,2.039,0,0,0-.787-1.6,2.95,2.95,0,0,0-1.984-.671,3.087,3.087,0,0,0-1.929.537,1.691,1.691,0,0,0-.7,1.4A1.37,1.37,0,0,0-34.4-8.423a7.96,7.96,0,0,0,2.338.793,12.18,12.18,0,0,1,2.74.9,4,4,0,0,1,1.556,1.263,3.106,3.106,0,0,1,.507,1.8A3.38,3.38,0,0,1-28.674-.824,5.94,5.94,0,0,1-32.349.244a6.651,6.651,0,0,1-2.808-.562,4.566,4.566,0,0,1-1.91-1.569,3.781,3.781,0,0,1-.69-2.179H-35.5a2.338,2.338,0,0,0,.909,1.8,3.528,3.528,0,0,0,2.24.665,3.642,3.642,0,0,0,2.057-.519A1.594,1.594,0,0,0-29.517-3.5Zm13.354,2.2a4.8,4.8,0,0,1-3.87,1.55A4.106,4.106,0,0,1-23.248-.983a5.31,5.31,0,0,1-1.117-3.632v-8.594h2.258v8.533q0,3,2.441,3A3.38,3.38,0,0,0-16.223-3.6v-9.607h2.258V0h-2.148ZM-8.081,0h-2.258V-18.75h2.258ZM-1.4-16.406v3.2H1.062v1.746H-1.4v8.2a1.833,1.833,0,0,0,.33,1.192,1.387,1.387,0,0,0,1.123.4,5.468,5.468,0,0,0,1.074-.146V0A6.586,6.586,0,0,1-.61.244,2.812,2.812,0,0,1-2.893-.671a3.933,3.933,0,0,1-.769-2.6v-8.191h-2.4v-1.746h2.4v-3.2ZM11.853,0a4.744,4.744,0,0,1-.317-1.392A5.039,5.039,0,0,1,7.776.244a4.662,4.662,0,0,1-3.2-1.1,3.574,3.574,0,0,1-1.251-2.8,3.734,3.734,0,0,1,1.569-3.2A7.4,7.4,0,0,1,9.3-8.008h2.2V-9.045a2.536,2.536,0,0,0-.708-1.886,2.845,2.845,0,0,0-2.087-.7,3.293,3.293,0,0,0-2.026.61,1.8,1.8,0,0,0-.818,1.477H3.589a3.117,3.117,0,0,1,.7-1.91,4.791,4.791,0,0,1,1.9-1.459,6.406,6.406,0,0,1,2.643-.537,5.222,5.222,0,0,1,3.577,1.141,4.117,4.117,0,0,1,1.343,3.143v6.079A7.432,7.432,0,0,0,14.221-.2V0ZM8.105-1.721a3.969,3.969,0,0,0,2.014-.549A3.323,3.323,0,0,0,11.5-3.7v-2.71H9.729q-4.15,0-4.15,2.429a2.056,2.056,0,0,0,.708,1.66A2.721,2.721,0,0,0,8.105-1.721Zm15.576-9.46a6.768,6.768,0,0,0-1.111-.085,2.976,2.976,0,0,0-3.015,1.892V0H17.3V-13.208h2.2l.037,1.526a3.516,3.516,0,0,1,3.149-1.77,2.307,2.307,0,0,1,1,.171ZM40.1,0a4.744,4.744,0,0,1-.317-1.392A5.039,5.039,0,0,1,36.023.244a4.662,4.662,0,0,1-3.2-1.1,3.574,3.574,0,0,1-1.251-2.8,3.734,3.734,0,0,1,1.569-3.2,7.4,7.4,0,0,1,4.413-1.141h2.2V-9.045a2.536,2.536,0,0,0-.708-1.886,2.845,2.845,0,0,0-2.087-.7,3.293,3.293,0,0,0-2.026.61,1.8,1.8,0,0,0-.818,1.477H31.836a3.117,3.117,0,0,1,.7-1.91,4.791,4.791,0,0,1,1.9-1.459,6.406,6.406,0,0,1,2.643-.537,5.221,5.221,0,0,1,3.577,1.141A4.117,4.117,0,0,1,42-9.167v6.079A7.432,7.432,0,0,0,42.468-.2V0ZM36.353-1.721a3.969,3.969,0,0,0,2.014-.549A3.323,3.323,0,0,0,39.746-3.7v-2.71h-1.77q-4.15,0-4.15,2.429a2.056,2.056,0,0,0,.708,1.66A2.721,2.721,0,0,0,36.353-1.721ZM54.187,0H51.929V-18.75h2.258ZM57.2-6.726a7.8,7.8,0,0,1,.763-3.491,5.691,5.691,0,0,1,2.124-2.393,5.782,5.782,0,0,1,3.107-.842,5.57,5.57,0,0,1,4.364,1.868,7.186,7.186,0,0,1,1.666,4.968v.159A7.869,7.869,0,0,1,68.488-3,5.608,5.608,0,0,1,66.376-.61,5.848,5.848,0,0,1,63.22.244a5.556,5.556,0,0,1-4.352-1.868A7.149,7.149,0,0,1,57.2-6.567Zm2.271.269A5.651,5.651,0,0,0,60.492-2.93,3.262,3.262,0,0,0,63.22-1.6a3.242,3.242,0,0,0,2.734-1.349,6.179,6.179,0,0,0,1.013-3.778,5.641,5.641,0,0,0-1.031-3.522A3.279,3.279,0,0,0,63.2-11.6a3.243,3.243,0,0,0-2.7,1.331A6.133,6.133,0,0,0,59.473-6.458ZM79.749-3.5a1.662,1.662,0,0,0-.69-1.422,6.639,6.639,0,0,0-2.4-.873,11.37,11.37,0,0,1-2.722-.879A3.873,3.873,0,0,1,72.443-7.9a2.92,2.92,0,0,1-.482-1.685,3.426,3.426,0,0,1,1.373-2.747,5.363,5.363,0,0,1,3.51-1.123,5.519,5.519,0,0,1,3.644,1.16,3.683,3.683,0,0,1,1.4,2.966H79.614a2.039,2.039,0,0,0-.787-1.6,2.95,2.95,0,0,0-1.984-.671,3.088,3.088,0,0,0-1.929.537,1.691,1.691,0,0,0-.7,1.4,1.37,1.37,0,0,0,.647,1.233,7.96,7.96,0,0,0,2.338.793,12.18,12.18,0,0,1,2.74.9A4,4,0,0,1,81.5-5.463a3.106,3.106,0,0,1,.507,1.8A3.38,3.38,0,0,1,80.591-.824,5.94,5.94,0,0,1,76.917.244a6.651,6.651,0,0,1-2.808-.562A4.566,4.566,0,0,1,72.2-1.886a3.781,3.781,0,0,1-.69-2.179h2.258a2.338,2.338,0,0,0,.909,1.8,3.528,3.528,0,0,0,2.24.665,3.642,3.642,0,0,0,2.057-.519A1.594,1.594,0,0,0,79.749-3.5Zm-178.07,24.79a7.763,7.763,0,0,1,1.428-4.913,4.568,4.568,0,0,1,3.784-1.825,4.543,4.543,0,0,1,3.772,1.709l.11-1.465h2.063V27.683a5.373,5.373,0,0,1-1.52,4.041A5.608,5.608,0,0,1-92.767,33.2a6.793,6.793,0,0,1-2.8-.61,4.812,4.812,0,0,1-2.087-1.672l1.172-1.355a4.416,4.416,0,0,0,3.552,1.794,3.46,3.46,0,0,0,2.57-.928,3.546,3.546,0,0,0,.922-2.612V26.682a4.641,4.641,0,0,1-3.7,1.563,4.512,4.512,0,0,1-3.754-1.868A8.162,8.162,0,0,1-98.322,21.286Zm2.271.256a5.922,5.922,0,0,0,.916,3.51,2.975,2.975,0,0,0,2.563,1.276,3.308,3.308,0,0,0,3.137-1.941v-6.03a3.347,3.347,0,0,0-3.113-1.892,3,3,0,0,0-2.576,1.282A6.45,6.45,0,0,0-96.051,21.542Zm18.677-4.724a6.767,6.767,0,0,0-1.111-.085A2.976,2.976,0,0,0-81.5,18.625V28h-2.258V14.792h2.2l.037,1.526a3.516,3.516,0,0,1,3.149-1.77,2.307,2.307,0,0,1,1,.171Zm10.229,9.875a4.8,4.8,0,0,1-3.87,1.55,4.106,4.106,0,0,1-3.217-1.227,5.31,5.31,0,0,1-1.117-3.632V14.792h2.258v8.533q0,3,2.441,3A3.38,3.38,0,0,0-67.206,24.4V14.792h2.258V28H-67.1Zm16.785-5.151A7.909,7.909,0,0,1-51.74,26.4a4.421,4.421,0,0,1-3.735,1.843,4.844,4.844,0,0,1-3.784-1.526v6.36h-2.258V14.792h2.063l.11,1.465a4.652,4.652,0,0,1,3.833-1.709,4.5,4.5,0,0,1,3.766,1.794,8,8,0,0,1,1.385,4.993Zm-2.258-.256a5.836,5.836,0,0,0-.952-3.528,3.067,3.067,0,0,0-2.612-1.294,3.32,3.32,0,0,0-3.076,1.819v6.311a3.326,3.326,0,0,0,3.1,1.807,3.053,3.053,0,0,0,2.582-1.288A6.37,6.37,0,0,0-52.618,21.286Zm4.529-.012a7.8,7.8,0,0,1,.763-3.491A5.691,5.691,0,0,1-45.2,15.39a5.782,5.782,0,0,1,3.107-.842,5.57,5.57,0,0,1,4.364,1.868,7.186,7.186,0,0,1,1.666,4.968v.159A7.869,7.869,0,0,1-36.8,25a5.608,5.608,0,0,1-2.112,2.386,5.848,5.848,0,0,1-3.156.854,5.556,5.556,0,0,1-4.352-1.868,7.149,7.149,0,0,1-1.666-4.944Zm2.271.269A5.651,5.651,0,0,0-44.8,25.07,3.262,3.262,0,0,0-42.072,26.4a3.242,3.242,0,0,0,2.734-1.349,6.179,6.179,0,0,0,1.013-3.778,5.641,5.641,0,0,0-1.031-3.522A3.279,3.279,0,0,0-42.1,16.4a3.243,3.243,0,0,0-2.7,1.331A6.133,6.133,0,0,0-45.819,21.542ZM-25.543,24.5a1.663,1.663,0,0,0-.69-1.422,6.639,6.639,0,0,0-2.4-.873,11.37,11.37,0,0,1-2.722-.879A3.873,3.873,0,0,1-32.849,20.1a2.92,2.92,0,0,1-.482-1.685,3.426,3.426,0,0,1,1.373-2.747,5.363,5.363,0,0,1,3.51-1.123,5.519,5.519,0,0,1,3.644,1.16,3.683,3.683,0,0,1,1.4,2.966h-2.271a2.039,2.039,0,0,0-.787-1.6,2.95,2.95,0,0,0-1.984-.671,3.088,3.088,0,0,0-1.929.537,1.691,1.691,0,0,0-.7,1.4,1.37,1.37,0,0,0,.647,1.233,7.96,7.96,0,0,0,2.338.793,12.18,12.18,0,0,1,2.74.9,4,4,0,0,1,1.556,1.263,3.106,3.106,0,0,1,.507,1.8A3.38,3.38,0,0,1-24.7,27.176a5.94,5.94,0,0,1-3.674,1.068,6.651,6.651,0,0,1-2.808-.562,4.566,4.566,0,0,1-1.91-1.569,3.781,3.781,0,0,1-.69-2.179h2.258a2.338,2.338,0,0,0,.909,1.8,3.528,3.528,0,0,0,2.24.665,3.642,3.642,0,0,0,2.057-.519A1.594,1.594,0,0,0-25.543,24.5Zm10.84-3.21a7.737,7.737,0,0,1,1.44-4.889,4.555,4.555,0,0,1,3.772-1.849,4.581,4.581,0,0,1,3.674,1.587V9.25h2.258V28H-5.634l-.11-1.416a4.6,4.6,0,0,1-3.772,1.66,4.511,4.511,0,0,1-3.741-1.88A7.825,7.825,0,0,1-14.7,21.457Zm2.258.256a5.858,5.858,0,0,0,.928,3.516,3,3,0,0,0,2.563,1.27A3.3,3.3,0,0,0-5.817,24.4V18.332a3.32,3.32,0,0,0-3.113-1.868,3.013,3.013,0,0,0-2.588,1.282A6.45,6.45,0,0,0-12.445,21.542Zm17.871,6.7a5.771,5.771,0,0,1-4.37-1.764A6.547,6.547,0,0,1-.629,21.762v-.415a7.926,7.926,0,0,1,.751-3.51,5.856,5.856,0,0,1,2.1-2.417,5.279,5.279,0,0,1,2.924-.873,4.947,4.947,0,0,1,4,1.7A7.346,7.346,0,0,1,10.577,21.1v.94H1.63A4.7,4.7,0,0,0,2.771,25.2a3.588,3.588,0,0,0,2.777,1.2,3.933,3.933,0,0,0,2.026-.488,5.091,5.091,0,0,0,1.453-1.294l1.379,1.074A5.546,5.546,0,0,1,5.426,28.244ZM5.145,16.4A3.012,3.012,0,0,0,2.85,17.4,4.836,4.836,0,0,0,1.7,20.188H8.319v-.171a4.3,4.3,0,0,0-.928-2.667A2.836,2.836,0,0,0,5.145,16.4ZM28.021,28H25.763V14.792h2.258ZM25.58,11.289a1.348,1.348,0,0,1,.336-.928,1.26,1.26,0,0,1,.995-.378,1.28,1.28,0,0,1,1,.378,1.334,1.334,0,0,1,.342.928,1.29,1.29,0,0,1-.342.916,1.3,1.3,0,0,1-1,.366,1.283,1.283,0,0,1-.995-.366A1.3,1.3,0,0,1,25.58,11.289Zm8.191,3.5.073,1.66a4.813,4.813,0,0,1,3.955-1.9q4.187,0,4.224,4.724V28H39.764V19.26a3.041,3.041,0,0,0-.653-2.112,2.617,2.617,0,0,0-2-.684,3.259,3.259,0,0,0-1.929.586,3.979,3.979,0,0,0-1.294,1.538V28H31.635V14.792Zm14.722-3.2v3.2h2.466v1.746H48.492v8.2a1.833,1.833,0,0,0,.33,1.192,1.387,1.387,0,0,0,1.123.4,5.468,5.468,0,0,0,1.074-.146V28a6.586,6.586,0,0,1-1.733.243A2.812,2.812,0,0,1,47,27.329a3.933,3.933,0,0,1-.769-2.6V16.538h-2.4V14.792h2.4v-3.2Zm10.583,16.65a5.771,5.771,0,0,1-4.37-1.764,6.547,6.547,0,0,1-1.685-4.718v-.415a7.926,7.926,0,0,1,.751-3.51,5.856,5.856,0,0,1,2.1-2.417,5.279,5.279,0,0,1,2.924-.873,4.947,4.947,0,0,1,4,1.7A7.346,7.346,0,0,1,64.227,21.1v.94H55.28A4.7,4.7,0,0,0,56.421,25.2,3.588,3.588,0,0,0,59.2,26.4a3.933,3.933,0,0,0,2.026-.488,5.091,5.091,0,0,0,1.453-1.294l1.379,1.074A5.546,5.546,0,0,1,59.076,28.244ZM58.8,16.4A3.012,3.012,0,0,0,56.5,17.4a4.836,4.836,0,0,0-1.147,2.789h6.616v-.171a4.3,4.3,0,0,0-.928-2.667A2.836,2.836,0,0,0,58.8,16.4Zm14.429.415a6.767,6.767,0,0,0-1.111-.085A2.976,2.976,0,0,0,69.1,18.625V28H66.84V14.792h2.2l.037,1.526a3.516,3.516,0,0,1,3.149-1.77,2.307,2.307,0,0,1,1,.171Zm7.324,11.426a5.771,5.771,0,0,1-4.37-1.764,6.547,6.547,0,0,1-1.685-4.718v-.415a7.926,7.926,0,0,1,.751-3.51,5.856,5.856,0,0,1,2.1-2.417,5.279,5.279,0,0,1,2.924-.873,4.947,4.947,0,0,1,4,1.7A7.346,7.346,0,0,1,85.7,21.1v.94H76.752A4.7,4.7,0,0,0,77.893,25.2a3.588,3.588,0,0,0,2.777,1.2,3.933,3.933,0,0,0,2.026-.488,5.091,5.091,0,0,0,1.453-1.294l1.379,1.074A5.546,5.546,0,0,1,80.548,28.244ZM80.267,16.4a3.012,3.012,0,0,0-2.295.995,4.836,4.836,0,0,0-1.147,2.789h6.616v-.171a4.3,4.3,0,0,0-.928-2.667A2.836,2.836,0,0,0,80.267,16.4Zm1.1-7.129H84.1l-3.271,3.589-1.819-.006ZM96,24.5a1.662,1.662,0,0,0-.69-1.422,6.639,6.639,0,0,0-2.4-.873,11.37,11.37,0,0,1-2.722-.879A3.873,3.873,0,0,1,88.7,20.1a2.92,2.92,0,0,1-.482-1.685,3.426,3.426,0,0,1,1.373-2.747,5.363,5.363,0,0,1,3.51-1.123,5.519,5.519,0,0,1,3.644,1.16,3.683,3.683,0,0,1,1.4,2.966H95.868a2.039,2.039,0,0,0-.787-1.6A2.95,2.95,0,0,0,93.1,16.4a3.088,3.088,0,0,0-1.929.537,1.691,1.691,0,0,0-.7,1.4,1.37,1.37,0,0,0,.647,1.233,7.96,7.96,0,0,0,2.338.793,12.18,12.18,0,0,1,2.74.9,4,4,0,0,1,1.556,1.263,3.106,3.106,0,0,1,.507,1.8,3.38,3.38,0,0,1-1.416,2.838,5.94,5.94,0,0,1-3.674,1.068,6.651,6.651,0,0,1-2.808-.562,4.566,4.566,0,0,1-1.91-1.569,3.781,3.781,0,0,1-.69-2.179h2.258a2.338,2.338,0,0,0,.909,1.8,3.528,3.528,0,0,0,2.24.665,3.642,3.642,0,0,0,2.057-.519A1.594,1.594,0,0,0,96,24.5ZM-82.526,56h-2.258V37.25h2.258Zm11.768,0a4.744,4.744,0,0,1-.317-1.392,5.039,5.039,0,0,1-3.76,1.636,4.662,4.662,0,0,1-3.2-1.1,3.574,3.574,0,0,1-1.251-2.8,3.734,3.734,0,0,1,1.569-3.2,7.4,7.4,0,0,1,4.413-1.141h2.2V46.955a2.536,2.536,0,0,0-.708-1.886,2.845,2.845,0,0,0-2.087-.7,3.293,3.293,0,0,0-2.026.61,1.8,1.8,0,0,0-.818,1.477h-2.271a3.117,3.117,0,0,1,.7-1.91,4.791,4.791,0,0,1,1.9-1.459,6.406,6.406,0,0,1,2.643-.537A5.221,5.221,0,0,1-70.2,43.689a4.117,4.117,0,0,1,1.343,3.143v6.079A7.432,7.432,0,0,0-68.39,55.8V56Zm-3.748-1.721a3.969,3.969,0,0,0,2.014-.549A3.323,3.323,0,0,0-71.112,52.3v-2.71h-1.77q-4.15,0-4.15,2.429a2.056,2.056,0,0,0,.708,1.66A2.721,2.721,0,0,0-74.506,54.279ZM-58.014,56V44.538H-60.1V42.792h2.087V41.437a4.5,4.5,0,0,1,1.135-3.284,4.288,4.288,0,0,1,3.21-1.16,5.963,5.963,0,0,1,1.55.206l-.122,1.82a6.486,6.486,0,0,0-1.221-.11,2.2,2.2,0,0,0-1.7.643,2.607,2.607,0,0,0-.6,1.843v1.4h2.82v1.746h-2.82V56Zm13.953-11.182a6.768,6.768,0,0,0-1.111-.085,2.976,2.976,0,0,0-3.015,1.892V56h-2.258V42.792h2.2l.037,1.526a3.516,3.516,0,0,1,3.149-1.77,2.307,2.307,0,0,1,1,.171ZM-34.32,56a4.744,4.744,0,0,1-.317-1.392,5.039,5.039,0,0,1-3.76,1.636,4.662,4.662,0,0,1-3.2-1.1,3.574,3.574,0,0,1-1.251-2.8,3.734,3.734,0,0,1,1.569-3.2,7.4,7.4,0,0,1,4.413-1.141h2.2V46.955a2.536,2.536,0,0,0-.708-1.886,2.845,2.845,0,0,0-2.087-.7,3.293,3.293,0,0,0-2.026.61,1.8,1.8,0,0,0-.818,1.477h-2.271a3.117,3.117,0,0,1,.7-1.91,4.791,4.791,0,0,1,1.9-1.459,6.406,6.406,0,0,1,2.643-.537,5.221,5.221,0,0,1,3.577,1.141,4.117,4.117,0,0,1,1.343,3.143v6.079a7.432,7.432,0,0,0,.464,2.893V56Zm-3.748-1.721a3.969,3.969,0,0,0,2.014-.549A3.323,3.323,0,0,0-34.674,52.3v-2.71h-1.77q-4.15,0-4.15,2.429a2.056,2.056,0,0,0,.708,1.66A2.721,2.721,0,0,0-38.068,54.279ZM-26.74,42.792l.073,1.66a4.813,4.813,0,0,1,3.955-1.9q4.187,0,4.224,4.724V56h-2.258V47.26a3.041,3.041,0,0,0-.653-2.112,2.617,2.617,0,0,0-2-.684,3.259,3.259,0,0,0-1.929.586,3.979,3.979,0,0,0-1.294,1.538V56h-2.258V42.792Zm13.989,0V57.526q0,3.809-3.455,3.809a4.214,4.214,0,0,1-1.379-.218v-1.8a4.366,4.366,0,0,0,1.025.1,1.534,1.534,0,0,0,1.154-.409,2.024,2.024,0,0,0,.4-1.423V42.792Zm-2.49-3.5a1.354,1.354,0,0,1,.336-.922,1.234,1.234,0,0,1,.983-.385,1.28,1.28,0,0,1,1,.378,1.334,1.334,0,0,1,.342.928,1.29,1.29,0,0,1-.342.916,1.3,1.3,0,0,1-1,.366,1.263,1.263,0,0,1-.989-.366A1.318,1.318,0,0,1-15.24,39.289ZM-.958,56a4.744,4.744,0,0,1-.317-1.392,5.039,5.039,0,0,1-3.76,1.636,4.662,4.662,0,0,1-3.2-1.1,3.574,3.574,0,0,1-1.251-2.8,3.734,3.734,0,0,1,1.569-3.2A7.4,7.4,0,0,1-3.51,47.992h2.2V46.955a2.536,2.536,0,0,0-.708-1.886,2.845,2.845,0,0,0-2.087-.7,3.293,3.293,0,0,0-2.026.61,1.8,1.8,0,0,0-.818,1.477H-9.222a3.117,3.117,0,0,1,.7-1.91,4.791,4.791,0,0,1,1.9-1.459,6.406,6.406,0,0,1,2.643-.537A5.221,5.221,0,0,1-.4,43.689,4.117,4.117,0,0,1,.946,46.833v6.079A7.432,7.432,0,0,0,1.41,55.8V56Zm-3.748-1.721a3.969,3.969,0,0,0,2.014-.549A3.323,3.323,0,0,0-1.312,52.3v-2.71h-1.77q-4.15,0-4.15,2.429a2.056,2.056,0,0,0,.708,1.66A2.721,2.721,0,0,0-4.706,54.279Zm17.639-9.888a4.8,4.8,0,0,1,3.906-1.843q4.187,0,4.224,4.724V56H18.8V47.26a3.041,3.041,0,0,0-.653-2.112,2.617,2.617,0,0,0-2-.684,3.259,3.259,0,0,0-1.929.586,3.979,3.979,0,0,0-1.294,1.538V56H10.675V37.25h2.258Zm10.913,4.883a7.8,7.8,0,0,1,.763-3.491,5.691,5.691,0,0,1,2.124-2.393,5.782,5.782,0,0,1,3.107-.842A5.57,5.57,0,0,1,34.2,44.416a7.186,7.186,0,0,1,1.666,4.968v.159A7.869,7.869,0,0,1,35.132,53,5.608,5.608,0,0,1,33.02,55.39a5.848,5.848,0,0,1-3.156.854,5.556,5.556,0,0,1-4.352-1.868,7.149,7.149,0,0,1-1.666-4.944Zm2.271.269a5.651,5.651,0,0,0,1.019,3.528,3.454,3.454,0,0,0,5.463-.018,6.179,6.179,0,0,0,1.013-3.778,5.641,5.641,0,0,0-1.031-3.522A3.279,3.279,0,0,0,29.84,44.4a3.243,3.243,0,0,0-2.7,1.331A6.133,6.133,0,0,0,26.117,49.542Zm18.97-4.724a6.768,6.768,0,0,0-1.111-.085,2.976,2.976,0,0,0-3.015,1.892V56H38.7V42.792h2.2l.037,1.526a3.516,3.516,0,0,1,3.149-1.77,2.307,2.307,0,0,1,1,.171ZM54.828,56a4.744,4.744,0,0,1-.317-1.392,5.039,5.039,0,0,1-3.76,1.636,4.662,4.662,0,0,1-3.2-1.1,3.574,3.574,0,0,1-1.251-2.8,3.734,3.734,0,0,1,1.569-3.2,7.4,7.4,0,0,1,4.413-1.141h2.2V46.955a2.536,2.536,0,0,0-.708-1.886,2.845,2.845,0,0,0-2.087-.7,3.293,3.293,0,0,0-2.026.61,1.8,1.8,0,0,0-.818,1.477H46.564a3.117,3.117,0,0,1,.7-1.91,4.791,4.791,0,0,1,1.9-1.459,6.406,6.406,0,0,1,2.643-.537,5.221,5.221,0,0,1,3.577,1.141,4.117,4.117,0,0,1,1.343,3.143v6.079A7.432,7.432,0,0,0,57.2,55.8V56ZM51.08,54.279a3.969,3.969,0,0,0,2.014-.549A3.323,3.323,0,0,0,54.474,52.3v-2.71H52.7q-4.15,0-4.15,2.429a2.056,2.056,0,0,0,.708,1.66A2.721,2.721,0,0,0,51.08,54.279Zm15.576-9.46a6.767,6.767,0,0,0-1.111-.085,2.976,2.976,0,0,0-3.015,1.892V56H60.272V42.792h2.2l.037,1.526a3.516,3.516,0,0,1,3.149-1.77,2.307,2.307,0,0,1,1,.171ZM71.185,56H68.927V42.792h2.258ZM68.744,39.289a1.348,1.348,0,0,1,.336-.928,1.26,1.26,0,0,1,.995-.378,1.28,1.28,0,0,1,1,.378,1.334,1.334,0,0,1,.342.928,1.29,1.29,0,0,1-.342.916,1.3,1.3,0,0,1-1,.366,1.283,1.283,0,0,1-.995-.366A1.3,1.3,0,0,1,68.744,39.289ZM82.953,56a4.744,4.744,0,0,1-.317-1.392,5.039,5.039,0,0,1-3.76,1.636,4.662,4.662,0,0,1-3.2-1.1,3.574,3.574,0,0,1-1.251-2.8,3.734,3.734,0,0,1,1.569-3.2A7.4,7.4,0,0,1,80.4,47.992h2.2V46.955a2.536,2.536,0,0,0-.708-1.886,2.845,2.845,0,0,0-2.087-.7,3.293,3.293,0,0,0-2.026.61,1.8,1.8,0,0,0-.818,1.477H74.689a3.117,3.117,0,0,1,.7-1.91,4.791,4.791,0,0,1,1.9-1.459,6.406,6.406,0,0,1,2.643-.537,5.221,5.221,0,0,1,3.577,1.141,4.117,4.117,0,0,1,1.343,3.143v6.079a7.432,7.432,0,0,0,.464,2.893V56Zm-3.748-1.721a3.969,3.969,0,0,0,2.014-.549A3.323,3.323,0,0,0,82.6,52.3v-2.71h-1.77q-4.15,0-4.15,2.429a2.056,2.056,0,0,0,.708,1.66A2.721,2.721,0,0,0,79.205,54.279Zm-178.7,23.007a7.737,7.737,0,0,1,1.44-4.889,4.555,4.555,0,0,1,3.772-1.849,4.581,4.581,0,0,1,3.674,1.587V65.25h2.258V84h-2.075l-.11-1.416a4.6,4.6,0,0,1-3.772,1.66,4.511,4.511,0,0,1-3.741-1.88,7.825,7.825,0,0,1-1.447-4.907Zm2.258.256a5.858,5.858,0,0,0,.928,3.516,3,3,0,0,0,2.563,1.27A3.3,3.3,0,0,0-90.607,80.4V74.332a3.32,3.32,0,0,0-3.113-1.868,3.013,3.013,0,0,0-2.588,1.282A6.45,6.45,0,0,0-97.235,77.542Zm17.871,6.7a5.771,5.771,0,0,1-4.37-1.764,6.547,6.547,0,0,1-1.685-4.718v-.415a7.926,7.926,0,0,1,.751-3.51,5.856,5.856,0,0,1,2.1-2.417,5.279,5.279,0,0,1,2.924-.873,4.947,4.947,0,0,1,4,1.7A7.346,7.346,0,0,1-74.213,77.1v.94H-83.16A4.7,4.7,0,0,0-82.019,81.2a3.588,3.588,0,0,0,2.777,1.2,3.933,3.933,0,0,0,2.026-.488,5.092,5.092,0,0,0,1.453-1.294l1.379,1.074A5.546,5.546,0,0,1-79.364,84.244ZM-79.645,72.4a3.012,3.012,0,0,0-2.295.995,4.836,4.836,0,0,0-1.147,2.789h6.616v-.171a4.3,4.3,0,0,0-.928-2.667A2.836,2.836,0,0,0-79.645,72.4Zm16.357-1.611.061,1.465a4.878,4.878,0,0,1,3.918-1.709,3.776,3.776,0,0,1,3.772,2.124,5,5,0,0,1,1.715-1.538,5.066,5.066,0,0,1,2.5-.586q4.346,0,4.419,4.6V84h-2.258V75.284a3.033,3.033,0,0,0-.647-2.118,2.849,2.849,0,0,0-2.173-.7,3,3,0,0,0-2.087.751,3.046,3.046,0,0,0-.964,2.02V84h-2.271V75.345q0-2.881-2.82-2.881a3.021,3.021,0,0,0-3.04,1.892V84h-2.258V70.792ZM-35.345,84a4.744,4.744,0,0,1-.317-1.392,5.039,5.039,0,0,1-3.76,1.636,4.662,4.662,0,0,1-3.2-1.1,3.574,3.574,0,0,1-1.251-2.8,3.734,3.734,0,0,1,1.569-3.2A7.4,7.4,0,0,1-37.9,75.992h2.2V74.955a2.536,2.536,0,0,0-.708-1.886,2.845,2.845,0,0,0-2.087-.7,3.293,3.293,0,0,0-2.026.61,1.8,1.8,0,0,0-.818,1.477H-43.61a3.117,3.117,0,0,1,.7-1.91A4.791,4.791,0,0,1-41,71.085a6.406,6.406,0,0,1,2.643-.537,5.222,5.222,0,0,1,3.577,1.141,4.117,4.117,0,0,1,1.343,3.143v6.079a7.432,7.432,0,0,0,.464,2.893V84Zm-3.748-1.721a3.969,3.969,0,0,0,2.014-.549A3.323,3.323,0,0,0-35.7,80.3v-2.71h-1.77q-4.15,0-4.15,2.429a2.056,2.056,0,0,0,.708,1.66A2.721,2.721,0,0,0-39.093,82.279Zm11.328-11.487.073,1.66a4.813,4.813,0,0,1,3.955-1.9q4.187,0,4.224,4.724V84h-2.258V75.26a3.041,3.041,0,0,0-.653-2.112,2.617,2.617,0,0,0-2-.684,3.259,3.259,0,0,0-1.929.586,3.979,3.979,0,0,0-1.294,1.538V84H-29.9V70.792Zm14.722-3.2v3.2h2.466v1.746h-2.466v8.2a1.833,1.833,0,0,0,.33,1.192,1.387,1.387,0,0,0,1.123.4,5.468,5.468,0,0,0,1.074-.146V84a6.586,6.586,0,0,1-1.733.243,2.812,2.812,0,0,1-2.283-.916,3.933,3.933,0,0,1-.769-2.6V72.538h-2.4V70.792h2.4v-3.2ZM-2.46,84.244A5.771,5.771,0,0,1-6.83,82.48a6.547,6.547,0,0,1-1.685-4.718v-.415a7.926,7.926,0,0,1,.751-3.51,5.856,5.856,0,0,1,2.1-2.417,5.279,5.279,0,0,1,2.924-.873,4.947,4.947,0,0,1,4,1.7A7.346,7.346,0,0,1,2.692,77.1v.94H-6.256A4.7,4.7,0,0,0-5.115,81.2a3.588,3.588,0,0,0,2.777,1.2,3.933,3.933,0,0,0,2.026-.488,5.091,5.091,0,0,0,1.453-1.294l1.379,1.074A5.546,5.546,0,0,1-2.46,84.244ZM-2.74,72.4a3.012,3.012,0,0,0-2.295.995,4.836,4.836,0,0,0-1.147,2.789H.433v-.171a4.3,4.3,0,0,0-.928-2.667A2.836,2.836,0,0,0-2.74,72.4ZM7.44,70.792l.073,1.66a4.813,4.813,0,0,1,3.955-1.9q4.187,0,4.224,4.724V84H13.434V75.26a3.041,3.041,0,0,0-.653-2.112,2.617,2.617,0,0,0-2-.684,3.259,3.259,0,0,0-1.929.586,3.979,3.979,0,0,0-1.294,1.538V84H5.3V70.792ZM21.552,84H19.293V70.792h2.258ZM19.11,67.289a1.348,1.348,0,0,1,.336-.928,1.26,1.26,0,0,1,.995-.378,1.28,1.28,0,0,1,1,.378,1.334,1.334,0,0,1,.342.928,1.29,1.29,0,0,1-.342.916,1.3,1.3,0,0,1-1,.366,1.283,1.283,0,0,1-.995-.366A1.3,1.3,0,0,1,19.11,67.289Zm8.179,3.5.061,1.465a4.878,4.878,0,0,1,3.918-1.709,3.776,3.776,0,0,1,3.772,2.124,5,5,0,0,1,1.715-1.538,5.066,5.066,0,0,1,2.5-.586q4.346,0,4.419,4.6V84H41.412V75.284a3.033,3.033,0,0,0-.647-2.118,2.849,2.849,0,0,0-2.173-.7,3,3,0,0,0-2.087.751,3.046,3.046,0,0,0-.964,2.02V84H33.27V75.345q0-2.881-2.82-2.881a3.021,3.021,0,0,0-3.04,1.892V84H25.153V70.792ZM49.53,84H47.272V70.792H49.53ZM47.089,67.289a1.348,1.348,0,0,1,.336-.928,1.26,1.26,0,0,1,.995-.378,1.28,1.28,0,0,1,1,.378,1.334,1.334,0,0,1,.342.928,1.29,1.29,0,0,1-.342.916,1.3,1.3,0,0,1-1,.366,1.283,1.283,0,0,1-.995-.366A1.3,1.3,0,0,1,47.089,67.289ZM58.624,84.244a5.771,5.771,0,0,1-4.37-1.764,6.547,6.547,0,0,1-1.685-4.718v-.415a7.926,7.926,0,0,1,.751-3.51,5.856,5.856,0,0,1,2.1-2.417,5.279,5.279,0,0,1,2.924-.873,4.947,4.947,0,0,1,4,1.7A7.346,7.346,0,0,1,63.776,77.1v.94H54.828A4.7,4.7,0,0,0,55.969,81.2a3.588,3.588,0,0,0,2.777,1.2,3.933,3.933,0,0,0,2.026-.488,5.091,5.091,0,0,0,1.453-1.294L63.6,81.693A5.546,5.546,0,0,1,58.624,84.244ZM58.344,72.4a3.012,3.012,0,0,0-2.295.995A4.836,4.836,0,0,0,54.9,76.188h6.616v-.171a4.3,4.3,0,0,0-.928-2.667A2.836,2.836,0,0,0,58.344,72.4Zm10.181-1.611.073,1.66a4.813,4.813,0,0,1,3.955-1.9q4.187,0,4.224,4.724V84H74.518V75.26a3.041,3.041,0,0,0-.653-2.112,2.617,2.617,0,0,0-2-.684,3.259,3.259,0,0,0-1.929.586,3.979,3.979,0,0,0-1.294,1.538V84H66.388V70.792Zm14.722-3.2v3.2h2.466v1.746H83.246v8.2a1.833,1.833,0,0,0,.33,1.192,1.387,1.387,0,0,0,1.123.4,5.468,5.468,0,0,0,1.074-.146V84a6.586,6.586,0,0,1-1.733.243,2.812,2.812,0,0,1-2.283-.916,3.933,3.933,0,0,1-.769-2.6V72.538h-2.4V70.792h2.4v-3.2Zm4.26,9.68a7.8,7.8,0,0,1,.763-3.491,5.691,5.691,0,0,1,2.124-2.393,5.782,5.782,0,0,1,3.107-.842,5.57,5.57,0,0,1,4.364,1.868,7.186,7.186,0,0,1,1.666,4.968v.159A7.869,7.869,0,0,1,98.792,81,5.608,5.608,0,0,1,96.68,83.39a5.848,5.848,0,0,1-3.156.854,5.556,5.556,0,0,1-4.352-1.868,7.149,7.149,0,0,1-1.666-4.944Zm2.271.269A5.65,5.65,0,0,0,90.8,81.07a3.454,3.454,0,0,0,5.463-.018,6.179,6.179,0,0,0,1.013-3.778,5.641,5.641,0,0,0-1.031-3.522A3.279,3.279,0,0,0,93.5,72.4a3.243,3.243,0,0,0-2.7,1.331A6.133,6.133,0,0,0,89.777,77.542Z" transform="translate(547.413 4529.71)" fill="#fff"/>
    <path id="Trazado_199874" data-name="Trazado 199874" d="M-58.606,0H-60.95V-17.773h2.344Zm6.067-13.208.073,1.66a4.813,4.813,0,0,1,3.955-1.9q4.187,0,4.224,4.724V0h-2.258V-8.74a3.041,3.041,0,0,0-.653-2.112,2.617,2.617,0,0,0-2-.684,3.259,3.259,0,0,0-1.929.586,3.979,3.979,0,0,0-1.294,1.538V0h-2.258V-13.208ZM-39.771,0V-11.462h-2.087v-1.746h2.087v-1.355a4.5,4.5,0,0,1,1.135-3.284,4.289,4.289,0,0,1,3.21-1.16,5.963,5.963,0,0,1,1.55.206L-34-16.98a6.486,6.486,0,0,0-1.221-.11,2.2,2.2,0,0,0-1.7.643,2.607,2.607,0,0,0-.6,1.843v1.4h2.82v1.746h-2.82V0Zm6.97-6.726a7.8,7.8,0,0,1,.763-3.491,5.691,5.691,0,0,1,2.124-2.393,5.782,5.782,0,0,1,3.107-.842,5.57,5.57,0,0,1,4.364,1.868,7.186,7.186,0,0,1,1.666,4.968v.159A7.869,7.869,0,0,1-21.515-3,5.608,5.608,0,0,1-23.627-.61a5.848,5.848,0,0,1-3.156.854,5.556,5.556,0,0,1-4.352-1.868A7.149,7.149,0,0,1-32.8-6.567Zm2.271.269A5.651,5.651,0,0,0-29.51-2.93,3.262,3.262,0,0,0-26.782-1.6a3.242,3.242,0,0,0,2.734-1.349,6.179,6.179,0,0,0,1.013-3.778,5.641,5.641,0,0,0-1.031-3.522,3.279,3.279,0,0,0-2.74-1.349,3.243,3.243,0,0,0-2.7,1.331A6.133,6.133,0,0,0-30.53-6.458Zm18.97-4.724a6.768,6.768,0,0,0-1.111-.085,2.976,2.976,0,0,0-3.015,1.892V0h-2.258V-13.208h2.2l.037,1.526a3.516,3.516,0,0,1,3.149-1.77,2.307,2.307,0,0,1,1,.171Zm4.2-2.026.061,1.465a4.878,4.878,0,0,1,3.918-1.709A3.776,3.776,0,0,1,.391-11.328a5,5,0,0,1,1.715-1.538,5.066,5.066,0,0,1,2.5-.586q4.346,0,4.419,4.6V0H6.763V-8.716a3.033,3.033,0,0,0-.647-2.118,2.849,2.849,0,0,0-2.173-.7,3,3,0,0,0-2.087.751,3.046,3.046,0,0,0-.964,2.02V0H-1.379V-8.655q0-2.881-2.82-2.881a3.021,3.021,0,0,0-3.04,1.892V0H-9.5V-13.208ZM20.581,0a4.744,4.744,0,0,1-.317-1.392A5.039,5.039,0,0,1,16.5.244a4.662,4.662,0,0,1-3.2-1.1,3.574,3.574,0,0,1-1.251-2.8,3.734,3.734,0,0,1,1.569-3.2A7.4,7.4,0,0,1,18.03-8.008h2.2V-9.045a2.536,2.536,0,0,0-.708-1.886,2.845,2.845,0,0,0-2.087-.7,3.293,3.293,0,0,0-2.026.61,1.8,1.8,0,0,0-.818,1.477H12.317a3.117,3.117,0,0,1,.7-1.91,4.791,4.791,0,0,1,1.9-1.459,6.406,6.406,0,0,1,2.643-.537,5.221,5.221,0,0,1,3.577,1.141,4.117,4.117,0,0,1,1.343,3.143v6.079A7.432,7.432,0,0,0,22.949-.2V0ZM16.833-1.721a3.969,3.969,0,0,0,2.014-.549A3.323,3.323,0,0,0,20.227-3.7v-2.71h-1.77q-4.15,0-4.15,2.429a2.056,2.056,0,0,0,.708,1.66A2.721,2.721,0,0,0,16.833-1.721ZM33.716-3.5a1.663,1.663,0,0,0-.69-1.422,6.639,6.639,0,0,0-2.4-.873A11.37,11.37,0,0,1,27.9-6.677,3.873,3.873,0,0,1,26.41-7.9a2.92,2.92,0,0,1-.482-1.685A3.426,3.426,0,0,1,27.3-12.329a5.363,5.363,0,0,1,3.51-1.123,5.519,5.519,0,0,1,3.644,1.16,3.683,3.683,0,0,1,1.4,2.966H33.582a2.039,2.039,0,0,0-.787-1.6,2.95,2.95,0,0,0-1.984-.671,3.087,3.087,0,0,0-1.929.537,1.691,1.691,0,0,0-.7,1.4,1.37,1.37,0,0,0,.647,1.233,7.96,7.96,0,0,0,2.338.793,12.18,12.18,0,0,1,2.74.9,4,4,0,0,1,1.556,1.263,3.106,3.106,0,0,1,.507,1.8A3.38,3.38,0,0,1,34.558-.824,5.94,5.94,0,0,1,30.884.244a6.651,6.651,0,0,1-2.808-.562,4.566,4.566,0,0,1-1.91-1.569,3.781,3.781,0,0,1-.69-2.179h2.258a2.338,2.338,0,0,0,.909,1.8,3.528,3.528,0,0,0,2.24.665,3.642,3.642,0,0,0,2.057-.519A1.594,1.594,0,0,0,33.716-3.5ZM53.259,0a4.744,4.744,0,0,1-.317-1.392A5.039,5.039,0,0,1,49.182.244a4.662,4.662,0,0,1-3.2-1.1,3.574,3.574,0,0,1-1.251-2.8,3.734,3.734,0,0,1,1.569-3.2,7.4,7.4,0,0,1,4.413-1.141h2.2V-9.045a2.536,2.536,0,0,0-.708-1.886,2.845,2.845,0,0,0-2.087-.7,3.293,3.293,0,0,0-2.026.61,1.8,1.8,0,0,0-.818,1.477H45a3.117,3.117,0,0,1,.7-1.91,4.791,4.791,0,0,1,1.9-1.459,6.406,6.406,0,0,1,2.643-.537,5.221,5.221,0,0,1,3.577,1.141,4.117,4.117,0,0,1,1.343,3.143v6.079A7.432,7.432,0,0,0,55.627-.2V0ZM49.512-1.721a3.969,3.969,0,0,0,2.014-.549A3.323,3.323,0,0,0,52.905-3.7v-2.71h-1.77q-4.15,0-4.15,2.429a2.056,2.056,0,0,0,.708,1.66A2.721,2.721,0,0,0,49.512-1.721ZM-49.738,11.594v3.2h2.466v1.746h-2.466v8.2a1.833,1.833,0,0,0,.33,1.192,1.387,1.387,0,0,0,1.123.4,5.468,5.468,0,0,0,1.074-.146V28a6.586,6.586,0,0,1-1.733.243,2.812,2.812,0,0,1-2.283-.916,3.933,3.933,0,0,1-.769-2.6V16.538h-2.4V14.792H-52v-3.2Zm4.26,9.68a7.8,7.8,0,0,1,.763-3.491A5.691,5.691,0,0,1-42.59,15.39a5.782,5.782,0,0,1,3.107-.842,5.57,5.57,0,0,1,4.364,1.868,7.186,7.186,0,0,1,1.666,4.968v.159A7.869,7.869,0,0,1-34.192,25,5.608,5.608,0,0,1-36.3,27.39a5.848,5.848,0,0,1-3.156.854,5.556,5.556,0,0,1-4.352-1.868,7.149,7.149,0,0,1-1.666-4.944Zm2.271.269a5.651,5.651,0,0,0,1.019,3.528A3.262,3.262,0,0,0-39.459,26.4a3.242,3.242,0,0,0,2.734-1.349,6.179,6.179,0,0,0,1.013-3.778,5.641,5.641,0,0,0-1.031-3.522,3.279,3.279,0,0,0-2.74-1.349,3.243,3.243,0,0,0-2.7,1.331A6.133,6.133,0,0,0-43.207,21.542Zm12.036-.256A7.737,7.737,0,0,1-29.73,16.4a4.555,4.555,0,0,1,3.772-1.849,4.581,4.581,0,0,1,3.674,1.587V9.25h2.258V28H-22.1l-.11-1.416a4.6,4.6,0,0,1-3.772,1.66,4.511,4.511,0,0,1-3.741-1.88,7.825,7.825,0,0,1-1.447-4.907Zm2.258.256a5.858,5.858,0,0,0,.928,3.516,3,3,0,0,0,2.563,1.27A3.3,3.3,0,0,0-22.284,24.4V18.332A3.32,3.32,0,0,0-25.4,16.464a3.013,3.013,0,0,0-2.588,1.282A6.45,6.45,0,0,0-28.912,21.542Zm11.792-.269a7.8,7.8,0,0,1,.763-3.491,5.691,5.691,0,0,1,2.124-2.393,5.782,5.782,0,0,1,3.107-.842,5.57,5.57,0,0,1,4.364,1.868A7.186,7.186,0,0,1-5.1,21.384v.159A7.869,7.869,0,0,1-5.835,25,5.608,5.608,0,0,1-7.947,27.39a5.848,5.848,0,0,1-3.156.854,5.556,5.556,0,0,1-4.352-1.868,7.149,7.149,0,0,1-1.666-4.944Zm2.271.269a5.651,5.651,0,0,0,1.019,3.528A3.262,3.262,0,0,0-11.1,26.4a3.242,3.242,0,0,0,2.734-1.349,6.179,6.179,0,0,0,1.013-3.778,5.641,5.641,0,0,0-1.031-3.522,3.279,3.279,0,0,0-2.74-1.349,3.243,3.243,0,0,0-2.7,1.331A6.133,6.133,0,0,0-14.85,21.542ZM5.426,24.5a1.663,1.663,0,0,0-.69-1.422,6.639,6.639,0,0,0-2.4-.873,11.37,11.37,0,0,1-2.722-.879A3.873,3.873,0,0,1-1.88,20.1a2.92,2.92,0,0,1-.482-1.685A3.426,3.426,0,0,1-.989,15.671a5.363,5.363,0,0,1,3.51-1.123,5.519,5.519,0,0,1,3.644,1.16,3.683,3.683,0,0,1,1.4,2.966H5.292a2.039,2.039,0,0,0-.787-1.6A2.95,2.95,0,0,0,2.521,16.4a3.088,3.088,0,0,0-1.929.537,1.691,1.691,0,0,0-.7,1.4,1.37,1.37,0,0,0,.647,1.233,7.96,7.96,0,0,0,2.338.793,12.18,12.18,0,0,1,2.74.9,4,4,0,0,1,1.556,1.263,3.106,3.106,0,0,1,.507,1.8,3.38,3.38,0,0,1-1.416,2.838,5.94,5.94,0,0,1-3.674,1.068,6.651,6.651,0,0,1-2.808-.562,4.566,4.566,0,0,1-1.91-1.569,3.781,3.781,0,0,1-.69-2.179H-.555a2.338,2.338,0,0,0,.909,1.8,3.528,3.528,0,0,0,2.24.665,3.642,3.642,0,0,0,2.057-.519A1.594,1.594,0,0,0,5.426,24.5ZM19.269,28H17.01V9.25h2.258Zm3.015-6.726a7.8,7.8,0,0,1,.763-3.491,5.691,5.691,0,0,1,2.124-2.393,5.782,5.782,0,0,1,3.107-.842,5.57,5.57,0,0,1,4.364,1.868,7.186,7.186,0,0,1,1.666,4.968v.159A7.869,7.869,0,0,1,33.569,25a5.608,5.608,0,0,1-2.112,2.386,5.848,5.848,0,0,1-3.156.854,5.556,5.556,0,0,1-4.352-1.868,7.149,7.149,0,0,1-1.666-4.944Zm2.271.269a5.651,5.651,0,0,0,1.019,3.528,3.454,3.454,0,0,0,5.463-.018,6.179,6.179,0,0,0,1.013-3.778,5.641,5.641,0,0,0-1.031-3.522,3.279,3.279,0,0,0-2.74-1.349,3.243,3.243,0,0,0-2.7,1.331A6.133,6.133,0,0,0,24.554,21.542ZM44.83,24.5a1.663,1.663,0,0,0-.69-1.422,6.639,6.639,0,0,0-2.4-.873,11.37,11.37,0,0,1-2.722-.879A3.873,3.873,0,0,1,37.524,20.1a2.92,2.92,0,0,1-.482-1.685,3.426,3.426,0,0,1,1.373-2.747,5.363,5.363,0,0,1,3.51-1.123,5.519,5.519,0,0,1,3.644,1.16,3.683,3.683,0,0,1,1.4,2.966H44.7a2.039,2.039,0,0,0-.787-1.6,2.95,2.95,0,0,0-1.984-.671A3.087,3.087,0,0,0,40,16.94a1.691,1.691,0,0,0-.7,1.4,1.37,1.37,0,0,0,.647,1.233,7.96,7.96,0,0,0,2.338.793,12.18,12.18,0,0,1,2.74.9,4,4,0,0,1,1.556,1.263,3.106,3.106,0,0,1,.507,1.8,3.38,3.38,0,0,1-1.416,2.838A5.94,5.94,0,0,1,42,28.244a6.651,6.651,0,0,1-2.808-.562,4.566,4.566,0,0,1-1.91-1.569,3.781,3.781,0,0,1-.69-2.179h2.258a2.338,2.338,0,0,0,.909,1.8A3.528,3.528,0,0,0,42,26.4a3.642,3.642,0,0,0,2.057-.519A1.594,1.594,0,0,0,44.83,24.5ZM-57.41,49.286a7.763,7.763,0,0,1,1.428-4.913A4.568,4.568,0,0,1-52.2,42.548a4.543,4.543,0,0,1,3.772,1.709l.11-1.465h2.063V55.683a5.373,5.373,0,0,1-1.52,4.041A5.608,5.608,0,0,1-51.855,61.2a6.793,6.793,0,0,1-2.8-.61,4.812,4.812,0,0,1-2.087-1.672l1.172-1.355a4.416,4.416,0,0,0,3.552,1.794,3.46,3.46,0,0,0,2.57-.928,3.546,3.546,0,0,0,.922-2.612V54.682a4.641,4.641,0,0,1-3.7,1.563,4.512,4.512,0,0,1-3.754-1.868A8.162,8.162,0,0,1-57.41,49.286Zm2.271.256a5.922,5.922,0,0,0,.916,3.51,2.975,2.975,0,0,0,2.563,1.276,3.308,3.308,0,0,0,3.137-1.941v-6.03a3.347,3.347,0,0,0-3.113-1.892,3,3,0,0,0-2.576,1.282A6.45,6.45,0,0,0-55.139,49.542Zm18.677-4.724a6.768,6.768,0,0,0-1.111-.085,2.976,2.976,0,0,0-3.015,1.892V56h-2.258V42.792h2.2l.037,1.526a3.516,3.516,0,0,1,3.149-1.77,2.307,2.307,0,0,1,1,.171Zm10.229,9.875a4.8,4.8,0,0,1-3.87,1.55,4.106,4.106,0,0,1-3.217-1.227,5.31,5.31,0,0,1-1.117-3.632V42.792h2.258v8.533q0,3,2.441,3A3.38,3.38,0,0,0-26.294,52.4V42.792h2.258V56h-2.148Zm16.785-5.151A7.909,7.909,0,0,1-10.828,54.4a4.421,4.421,0,0,1-3.735,1.843,4.844,4.844,0,0,1-3.784-1.526v6.36h-2.258V42.792h2.063l.11,1.465A4.652,4.652,0,0,1-14.6,42.548a4.5,4.5,0,0,1,3.766,1.794,8,8,0,0,1,1.385,4.993Zm-2.258-.256a5.836,5.836,0,0,0-.952-3.528,3.067,3.067,0,0,0-2.612-1.294,3.32,3.32,0,0,0-3.076,1.819v6.311a3.326,3.326,0,0,0,3.1,1.807,3.053,3.053,0,0,0,2.582-1.288A6.37,6.37,0,0,0-11.707,49.286Zm4.529-.012a7.8,7.8,0,0,1,.763-3.491A5.691,5.691,0,0,1-4.291,43.39a5.782,5.782,0,0,1,3.107-.842A5.57,5.57,0,0,1,3.18,44.416a7.186,7.186,0,0,1,1.666,4.968v.159A7.869,7.869,0,0,1,4.108,53,5.608,5.608,0,0,1,2,55.39a5.848,5.848,0,0,1-3.156.854,5.556,5.556,0,0,1-4.352-1.868,7.149,7.149,0,0,1-1.666-4.944Zm2.271.269A5.651,5.651,0,0,0-3.888,53.07,3.262,3.262,0,0,0-1.16,54.4a3.242,3.242,0,0,0,2.734-1.349,6.179,6.179,0,0,0,1.013-3.778,5.641,5.641,0,0,0-1.031-3.522A3.279,3.279,0,0,0-1.184,44.4a3.243,3.243,0,0,0-2.7,1.331A6.133,6.133,0,0,0-4.907,49.542ZM15.369,52.5a1.663,1.663,0,0,0-.69-1.422,6.639,6.639,0,0,0-2.4-.873,11.37,11.37,0,0,1-2.722-.879A3.873,3.873,0,0,1,8.063,48.1a2.92,2.92,0,0,1-.482-1.685,3.426,3.426,0,0,1,1.373-2.747,5.363,5.363,0,0,1,3.51-1.123,5.519,5.519,0,0,1,3.644,1.16,3.683,3.683,0,0,1,1.4,2.966H15.234a2.039,2.039,0,0,0-.787-1.6,2.95,2.95,0,0,0-1.984-.671,3.087,3.087,0,0,0-1.929.537,1.691,1.691,0,0,0-.7,1.4,1.37,1.37,0,0,0,.647,1.233,7.96,7.96,0,0,0,2.338.793,12.18,12.18,0,0,1,2.74.9,4,4,0,0,1,1.556,1.263,3.106,3.106,0,0,1,.507,1.8,3.38,3.38,0,0,1-1.416,2.838,5.94,5.94,0,0,1-3.674,1.068,6.651,6.651,0,0,1-2.808-.562,4.566,4.566,0,0,1-1.91-1.569,3.781,3.781,0,0,1-.69-2.179H9.387a2.338,2.338,0,0,0,.909,1.8,3.528,3.528,0,0,0,2.24.665,3.642,3.642,0,0,0,2.057-.519A1.594,1.594,0,0,0,15.369,52.5Zm10.84-3.21a7.737,7.737,0,0,1,1.44-4.889,4.9,4.9,0,0,1,7.446-.262V37.25h2.258V56H35.278l-.11-1.416a4.6,4.6,0,0,1-3.772,1.66,4.511,4.511,0,0,1-3.741-1.88,7.825,7.825,0,0,1-1.447-4.907Zm2.258.256a5.858,5.858,0,0,0,.928,3.516,3,3,0,0,0,2.563,1.27A3.3,3.3,0,0,0,35.1,52.4V46.332a3.32,3.32,0,0,0-3.113-1.868,3.013,3.013,0,0,0-2.588,1.282A6.45,6.45,0,0,0,28.467,49.542Zm17.871,6.7a5.771,5.771,0,0,1-4.37-1.764,6.547,6.547,0,0,1-1.685-4.718v-.415a7.926,7.926,0,0,1,.751-3.51,5.856,5.856,0,0,1,2.1-2.417,5.279,5.279,0,0,1,2.924-.873,4.947,4.947,0,0,1,4,1.7A7.346,7.346,0,0,1,51.489,49.1v.94H42.542A4.7,4.7,0,0,0,43.683,53.2a3.588,3.588,0,0,0,2.777,1.2,3.933,3.933,0,0,0,2.026-.488,5.091,5.091,0,0,0,1.453-1.294l1.379,1.074A5.546,5.546,0,0,1,46.338,56.244ZM46.057,44.4a3.012,3.012,0,0,0-2.295.995,4.836,4.836,0,0,0-1.147,2.789h6.616v-.171a4.3,4.3,0,0,0-.928-2.667A2.836,2.836,0,0,0,46.057,44.4ZM-57.318,84h-2.258V70.792h2.258ZM-59.76,67.289a1.348,1.348,0,0,1,.336-.928,1.26,1.26,0,0,1,.995-.378,1.28,1.28,0,0,1,1,.378,1.334,1.334,0,0,1,.342.928,1.29,1.29,0,0,1-.342.916,1.3,1.3,0,0,1-1,.366,1.283,1.283,0,0,1-.995-.366A1.3,1.3,0,0,1-59.76,67.289Zm8.191,3.5.073,1.66a4.813,4.813,0,0,1,3.955-1.9q4.187,0,4.224,4.724V84h-2.258V75.26a3.041,3.041,0,0,0-.653-2.112,2.617,2.617,0,0,0-2-.684,3.259,3.259,0,0,0-1.929.586,3.979,3.979,0,0,0-1.294,1.538V84H-53.7V70.792Zm14.722-3.2v3.2h2.466v1.746h-2.466v8.2a1.833,1.833,0,0,0,.33,1.192,1.387,1.387,0,0,0,1.123.4,5.468,5.468,0,0,0,1.074-.146V84a6.586,6.586,0,0,1-1.733.243,2.812,2.812,0,0,1-2.283-.916,3.933,3.933,0,0,1-.769-2.6V72.538h-2.4V70.792h2.4v-3.2Zm10.583,16.65a5.771,5.771,0,0,1-4.37-1.764,6.547,6.547,0,0,1-1.685-4.718v-.415a7.926,7.926,0,0,1,.751-3.51,5.856,5.856,0,0,1,2.1-2.417,5.279,5.279,0,0,1,2.924-.873,4.947,4.947,0,0,1,4,1.7A7.346,7.346,0,0,1-21.112,77.1v.94H-30.06A4.7,4.7,0,0,0-28.918,81.2a3.588,3.588,0,0,0,2.777,1.2,3.933,3.933,0,0,0,2.026-.488,5.091,5.091,0,0,0,1.453-1.294l1.379,1.074A5.546,5.546,0,0,1-26.263,84.244ZM-26.544,72.4a3.012,3.012,0,0,0-2.295.995,4.836,4.836,0,0,0-1.147,2.789h6.616v-.171a4.3,4.3,0,0,0-.928-2.667A2.836,2.836,0,0,0-26.544,72.4Zm14.429.415a6.767,6.767,0,0,0-1.111-.085,2.976,2.976,0,0,0-3.015,1.892V84H-18.5V70.792h2.2l.037,1.526a3.516,3.516,0,0,1,3.149-1.77,2.307,2.307,0,0,1,1,.171Zm7.324,11.426a5.771,5.771,0,0,1-4.37-1.764,6.547,6.547,0,0,1-1.685-4.718v-.415a7.926,7.926,0,0,1,.751-3.51A5.856,5.856,0,0,1-8,71.421a5.279,5.279,0,0,1,2.924-.873,4.947,4.947,0,0,1,4,1.7A7.346,7.346,0,0,1,.36,77.1v.94H-8.588A4.7,4.7,0,0,0-7.446,81.2a3.588,3.588,0,0,0,2.777,1.2,3.933,3.933,0,0,0,2.026-.488A5.091,5.091,0,0,0-1.19,80.619L.189,81.693A5.546,5.546,0,0,1-4.791,84.244ZM-5.072,72.4a3.012,3.012,0,0,0-2.295.995,4.836,4.836,0,0,0-1.147,2.789H-1.9v-.171a4.3,4.3,0,0,0-.928-2.667A2.836,2.836,0,0,0-5.072,72.4Zm1.1-7.129h2.734L-4.51,68.863l-1.819-.006ZM10.663,80.5a1.663,1.663,0,0,0-.69-1.422,6.639,6.639,0,0,0-2.4-.873,11.37,11.37,0,0,1-2.722-.879A3.873,3.873,0,0,1,3.357,76.1a2.92,2.92,0,0,1-.482-1.685,3.426,3.426,0,0,1,1.373-2.747,5.363,5.363,0,0,1,3.51-1.123,5.519,5.519,0,0,1,3.644,1.16,3.683,3.683,0,0,1,1.4,2.966H10.529a2.039,2.039,0,0,0-.787-1.6A2.95,2.95,0,0,0,7.758,72.4a3.088,3.088,0,0,0-1.929.537,1.691,1.691,0,0,0-.7,1.4,1.37,1.37,0,0,0,.647,1.233,7.96,7.96,0,0,0,2.338.793,12.18,12.18,0,0,1,2.74.9,4,4,0,0,1,1.556,1.263,3.106,3.106,0,0,1,.507,1.8,3.38,3.38,0,0,1-1.416,2.838,5.94,5.94,0,0,1-3.674,1.068,6.651,6.651,0,0,1-2.808-.562,4.566,4.566,0,0,1-1.91-1.569,3.781,3.781,0,0,1-.69-2.179H4.681a2.338,2.338,0,0,0,.909,1.8,3.528,3.528,0,0,0,2.24.665,3.642,3.642,0,0,0,2.057-.519A1.594,1.594,0,0,0,10.663,80.5ZM27.35,82.4a3.253,3.253,0,0,0,2.112-.732,2.577,2.577,0,0,0,1-1.831H32.6A4.1,4.1,0,0,1,31.818,82,5.145,5.145,0,0,1,29.9,83.634a5.548,5.548,0,0,1-2.545.61,5.441,5.441,0,0,1-4.291-1.8,7.171,7.171,0,0,1-1.593-4.926V77.14a7.952,7.952,0,0,1,.708-3.43,5.393,5.393,0,0,1,2.032-2.332,5.774,5.774,0,0,1,3.131-.83,5.3,5.3,0,0,1,3.693,1.331A4.755,4.755,0,0,1,32.6,75.333H30.463a3.112,3.112,0,0,0-.97-2.106,3.019,3.019,0,0,0-2.155-.824,3.161,3.161,0,0,0-2.667,1.239,5.819,5.819,0,0,0-.946,3.583v.427a5.7,5.7,0,0,0,.94,3.516A3.176,3.176,0,0,0,27.35,82.4Zm7.19-5.127a7.8,7.8,0,0,1,.763-3.491,5.691,5.691,0,0,1,2.124-2.393,5.782,5.782,0,0,1,3.107-.842A5.57,5.57,0,0,1,44.9,72.416a7.186,7.186,0,0,1,1.666,4.968v.159A7.869,7.869,0,0,1,45.825,81a5.608,5.608,0,0,1-2.112,2.386,5.848,5.848,0,0,1-3.156.854,5.556,5.556,0,0,1-4.352-1.868,7.149,7.149,0,0,1-1.666-4.944Zm2.271.269A5.651,5.651,0,0,0,37.83,81.07a3.454,3.454,0,0,0,5.463-.018,6.179,6.179,0,0,0,1.013-3.778,5.641,5.641,0,0,0-1.031-3.522,3.279,3.279,0,0,0-2.74-1.349,3.243,3.243,0,0,0-2.7,1.331A6.133,6.133,0,0,0,36.81,77.542Zm14.722-6.75.073,1.66a4.813,4.813,0,0,1,3.955-1.9q4.187,0,4.224,4.724V84H57.526V75.26a3.041,3.041,0,0,0-.653-2.112,2.617,2.617,0,0,0-2-.684,3.259,3.259,0,0,0-1.929.586,3.979,3.979,0,0,0-1.294,1.538V84H49.4V70.792ZM-47.974,112a4.744,4.744,0,0,1-.317-1.392,5.039,5.039,0,0,1-3.76,1.636,4.662,4.662,0,0,1-3.2-1.1,3.574,3.574,0,0,1-1.251-2.8,3.734,3.734,0,0,1,1.569-3.2,7.4,7.4,0,0,1,4.413-1.141h2.2v-1.038a2.536,2.536,0,0,0-.708-1.886,2.845,2.845,0,0,0-2.087-.7,3.293,3.293,0,0,0-2.026.61,1.8,1.8,0,0,0-.818,1.477h-2.271a3.117,3.117,0,0,1,.7-1.91,4.791,4.791,0,0,1,1.9-1.459,6.406,6.406,0,0,1,2.643-.537,5.222,5.222,0,0,1,3.577,1.141,4.117,4.117,0,0,1,1.343,3.143v6.079a7.432,7.432,0,0,0,.464,2.893v.2Zm-3.748-1.721a3.969,3.969,0,0,0,2.014-.549,3.323,3.323,0,0,0,1.379-1.428v-2.71H-50.1q-4.15,0-4.15,2.429a2.056,2.056,0,0,0,.708,1.66A2.721,2.721,0,0,0-51.721,110.279Zm11.328-11.487.073,1.66a4.813,4.813,0,0,1,3.955-1.9q4.187,0,4.224,4.724V112H-34.4v-8.74a3.041,3.041,0,0,0-.653-2.112,2.617,2.617,0,0,0-2-.684,3.259,3.259,0,0,0-1.929.586,3.979,3.979,0,0,0-1.294,1.538V112h-2.258V98.792Zm14.722-3.2v3.2h2.466v1.746h-2.466v8.2a1.833,1.833,0,0,0,.33,1.192,1.387,1.387,0,0,0,1.123.4,5.468,5.468,0,0,0,1.074-.146V112a6.586,6.586,0,0,1-1.733.243,2.812,2.812,0,0,1-2.283-.916,3.933,3.933,0,0,1-.769-2.6v-8.191h-2.4V98.792h2.4v-3.2Zm10.583,16.65a5.771,5.771,0,0,1-4.37-1.764,6.547,6.547,0,0,1-1.685-4.718v-.415a7.926,7.926,0,0,1,.751-3.51,5.856,5.856,0,0,1,2.1-2.417,5.279,5.279,0,0,1,2.924-.873,4.947,4.947,0,0,1,4,1.7A7.346,7.346,0,0,1-9.937,105.1v.94h-8.948a4.7,4.7,0,0,0,1.141,3.156,3.588,3.588,0,0,0,2.777,1.2,3.933,3.933,0,0,0,2.026-.488,5.091,5.091,0,0,0,1.453-1.294l1.379,1.074A5.546,5.546,0,0,1-15.088,112.244Zm-.281-11.841a3.012,3.012,0,0,0-2.295.995,4.836,4.836,0,0,0-1.147,2.789h6.616v-.171a4.3,4.3,0,0,0-.928-2.667A2.836,2.836,0,0,0-15.369,100.4Zm10.5,11.6H-7.129V93.25h2.258ZM6.9,112a4.744,4.744,0,0,1-.317-1.392,5.039,5.039,0,0,1-3.76,1.636,4.662,4.662,0,0,1-3.2-1.1,3.574,3.574,0,0,1-1.251-2.8,3.734,3.734,0,0,1,1.569-3.2,7.4,7.4,0,0,1,4.413-1.141h2.2v-1.038a2.536,2.536,0,0,0-.708-1.886,2.845,2.845,0,0,0-2.087-.7,3.293,3.293,0,0,0-2.026.61A1.8,1.8,0,0,0,.9,102.454H-1.367a3.117,3.117,0,0,1,.7-1.91,4.791,4.791,0,0,1,1.9-1.459,6.406,6.406,0,0,1,2.643-.537,5.222,5.222,0,0,1,3.577,1.141A4.117,4.117,0,0,1,8.8,102.833v6.079a7.432,7.432,0,0,0,.464,2.893v.2Zm-3.748-1.721a3.969,3.969,0,0,0,2.014-.549A3.323,3.323,0,0,0,6.543,108.3v-2.71H4.773q-4.15,0-4.15,2.429a2.056,2.056,0,0,0,.708,1.66A2.721,2.721,0,0,0,3.149,110.279Zm14.49.122a3.253,3.253,0,0,0,2.112-.732,2.577,2.577,0,0,0,1-1.831h2.136A4.1,4.1,0,0,1,22.107,110a5.145,5.145,0,0,1-1.923,1.636,5.548,5.548,0,0,1-2.545.61,5.441,5.441,0,0,1-4.291-1.8,7.171,7.171,0,0,1-1.593-4.926v-.378a7.952,7.952,0,0,1,.708-3.43A5.393,5.393,0,0,1,14.5,99.378a5.774,5.774,0,0,1,3.131-.83,5.3,5.3,0,0,1,3.693,1.331,4.755,4.755,0,0,1,1.569,3.455H20.752a3.112,3.112,0,0,0-.97-2.106,3.019,3.019,0,0,0-2.155-.824,3.161,3.161,0,0,0-2.667,1.239,5.819,5.819,0,0,0-.946,3.583v.427a5.7,5.7,0,0,0,.94,3.516A3.176,3.176,0,0,0,17.639,110.4ZM27.881,112H25.623V98.792h2.258ZM25.439,95.289a1.348,1.348,0,0,1,.336-.928,1.26,1.26,0,0,1,.995-.378,1.28,1.28,0,0,1,1,.378,1.334,1.334,0,0,1,.342.928,1.29,1.29,0,0,1-.342.916,1.3,1.3,0,0,1-1,.366,1.283,1.283,0,0,1-.995-.366A1.3,1.3,0,0,1,25.439,95.289Zm5.457,9.985a7.8,7.8,0,0,1,.763-3.491,5.691,5.691,0,0,1,2.124-2.393,5.782,5.782,0,0,1,3.107-.842,5.57,5.57,0,0,1,4.364,1.868,7.186,7.186,0,0,1,1.666,4.968v.159A7.869,7.869,0,0,1,42.181,109a5.608,5.608,0,0,1-2.112,2.386,5.848,5.848,0,0,1-3.156.854,5.556,5.556,0,0,1-4.352-1.868,7.149,7.149,0,0,1-1.666-4.944Zm2.271.269a5.651,5.651,0,0,0,1.019,3.528,3.454,3.454,0,0,0,5.463-.018,6.179,6.179,0,0,0,1.013-3.778,5.641,5.641,0,0,0-1.031-3.522,3.279,3.279,0,0,0-2.74-1.349,3.243,3.243,0,0,0-2.7,1.331A6.133,6.133,0,0,0,33.167,105.542Zm4.749-12.268h2.734l-3.271,3.589-1.819-.006Zm9.973,5.518.073,1.66a4.813,4.813,0,0,1,3.955-1.9q4.187,0,4.224,4.724V112H53.882v-8.74a3.041,3.041,0,0,0-.653-2.112,2.617,2.617,0,0,0-2-.684,3.259,3.259,0,0,0-1.929.586,3.979,3.979,0,0,0-1.294,1.538V112H45.752V98.792Z" transform="translate(807.646 4515.71)" fill="#fff"/>
    <path id="Trazado_199875" data-name="Trazado 199875" d="M-43.567,0h-2.344V-17.773h2.344Zm6.055-13.208.061,1.465a4.878,4.878,0,0,1,3.918-1.709,3.776,3.776,0,0,1,3.772,2.124,5,5,0,0,1,1.715-1.538,5.066,5.066,0,0,1,2.5-.586q4.346,0,4.419,4.6V0h-2.258V-8.716a3.033,3.033,0,0,0-.647-2.118,2.849,2.849,0,0,0-2.173-.7,3,3,0,0,0-2.087.751,3.046,3.046,0,0,0-.964,2.02V0h-2.271V-8.655q0-2.881-2.82-2.881a3.021,3.021,0,0,0-3.04,1.892V0h-2.258V-13.208Zm30.945,6.75A7.909,7.909,0,0,1-7.947-1.6,4.421,4.421,0,0,1-11.682.244a4.844,4.844,0,0,1-3.784-1.526v6.36h-2.258V-13.208h2.063l.11,1.465a4.652,4.652,0,0,1,3.833-1.709,4.5,4.5,0,0,1,3.766,1.794A8,8,0,0,1-6.567-6.665Zm-2.258-.256a5.836,5.836,0,0,0-.952-3.528,3.067,3.067,0,0,0-2.612-1.294,3.32,3.32,0,0,0-3.076,1.819v6.311a3.326,3.326,0,0,0,3.1,1.807A3.053,3.053,0,0,0-9.784-2.887,6.37,6.37,0,0,0-8.826-6.714ZM-4.3-6.726a7.8,7.8,0,0,1,.763-3.491A5.691,5.691,0,0,1-1.41-12.61,5.782,5.782,0,0,1,1.7-13.452a5.57,5.57,0,0,1,4.364,1.868A7.186,7.186,0,0,1,7.727-6.616v.159A7.869,7.869,0,0,1,6.989-3,5.608,5.608,0,0,1,4.877-.61,5.848,5.848,0,0,1,1.721.244,5.556,5.556,0,0,1-2.631-1.624,7.149,7.149,0,0,1-4.3-6.567Zm2.271.269A5.651,5.651,0,0,0-1.007-2.93,3.262,3.262,0,0,0,1.721-1.6,3.242,3.242,0,0,0,4.456-2.948,6.179,6.179,0,0,0,5.469-6.726a5.641,5.641,0,0,0-1.031-3.522A3.279,3.279,0,0,0,1.7-11.6,3.243,3.243,0,0,0-1-10.266,6.133,6.133,0,0,0-2.026-6.458Zm18.97-4.724a6.768,6.768,0,0,0-1.111-.085,2.976,2.976,0,0,0-3.015,1.892V0H10.559V-13.208h2.2l.037,1.526a3.516,3.516,0,0,1,3.149-1.77,2.307,2.307,0,0,1,1,.171Zm5.75-5.225v3.2h2.466v1.746H22.693v8.2a1.833,1.833,0,0,0,.33,1.192,1.387,1.387,0,0,0,1.123.4,5.468,5.468,0,0,0,1.074-.146V0a6.586,6.586,0,0,1-1.733.243A2.812,2.812,0,0,1,21.2-.671a3.933,3.933,0,0,1-.769-2.6v-8.191h-2.4v-1.746h2.4v-3.2ZM35.95,0a4.744,4.744,0,0,1-.317-1.392A5.039,5.039,0,0,1,31.873.244a4.662,4.662,0,0,1-3.2-1.1,3.574,3.574,0,0,1-1.251-2.8,3.734,3.734,0,0,1,1.569-3.2A7.4,7.4,0,0,1,33.4-8.008h2.2V-9.045a2.536,2.536,0,0,0-.708-1.886,2.845,2.845,0,0,0-2.087-.7,3.293,3.293,0,0,0-2.026.61,1.8,1.8,0,0,0-.818,1.477H27.686a3.117,3.117,0,0,1,.7-1.91,4.791,4.791,0,0,1,1.9-1.459,6.406,6.406,0,0,1,2.643-.537,5.221,5.221,0,0,1,3.577,1.141,4.117,4.117,0,0,1,1.343,3.143v6.079A7.432,7.432,0,0,0,38.318-.2V0ZM32.2-1.721a3.969,3.969,0,0,0,2.014-.549A3.323,3.323,0,0,0,35.6-3.7v-2.71h-1.77q-4.15,0-4.15,2.429a2.056,2.056,0,0,0,.708,1.66A2.721,2.721,0,0,0,32.2-1.721Zm15.576-9.46a6.768,6.768,0,0,0-1.111-.085,2.976,2.976,0,0,0-3.015,1.892V0H41.394V-13.208h2.2l.037,1.526a3.516,3.516,0,0,1,3.149-1.77,2.307,2.307,0,0,1,1,.171ZM-72.717,28h-2.258V14.792h2.258Zm-2.441-16.711a1.348,1.348,0,0,1,.336-.928,1.26,1.26,0,0,1,.995-.378,1.28,1.28,0,0,1,1,.378,1.334,1.334,0,0,1,.342.928,1.29,1.29,0,0,1-.342.916,1.3,1.3,0,0,1-1,.366,1.283,1.283,0,0,1-.995-.366A1.3,1.3,0,0,1-75.159,11.289Zm8.191,3.5.073,1.66a4.813,4.813,0,0,1,3.955-1.9q4.187,0,4.224,4.724V28h-2.258V19.26a3.041,3.041,0,0,0-.653-2.112,2.617,2.617,0,0,0-2-.684,3.259,3.259,0,0,0-1.929.586,3.979,3.979,0,0,0-1.294,1.538V28H-69.1V14.792ZM-54.2,28V16.538h-2.087V14.792H-54.2V13.437a4.5,4.5,0,0,1,1.135-3.284,4.289,4.289,0,0,1,3.21-1.16A5.963,5.963,0,0,1-48.3,9.2l-.122,1.82a6.486,6.486,0,0,0-1.221-.11,2.2,2.2,0,0,0-1.7.643,2.607,2.607,0,0,0-.6,1.843v1.4h2.82v1.746h-2.82V28Zm6.97-6.726a7.8,7.8,0,0,1,.763-3.491,5.691,5.691,0,0,1,2.124-2.393,5.782,5.782,0,0,1,3.107-.842,5.57,5.57,0,0,1,4.364,1.868,7.186,7.186,0,0,1,1.666,4.968v.159A7.869,7.869,0,0,1-35.944,25a5.608,5.608,0,0,1-2.112,2.386,5.848,5.848,0,0,1-3.156.854,5.556,5.556,0,0,1-4.352-1.868,7.149,7.149,0,0,1-1.666-4.944Zm2.271.269a5.651,5.651,0,0,0,1.019,3.528A3.262,3.262,0,0,0-41.211,26.4a3.242,3.242,0,0,0,2.734-1.349,6.179,6.179,0,0,0,1.013-3.778,5.641,5.641,0,0,0-1.031-3.522,3.279,3.279,0,0,0-2.74-1.349,3.243,3.243,0,0,0-2.7,1.331A6.133,6.133,0,0,0-44.958,21.542Zm18.97-4.724a6.767,6.767,0,0,0-1.111-.085,2.976,2.976,0,0,0-3.015,1.892V28h-2.258V14.792h2.2l.037,1.526a3.516,3.516,0,0,1,3.149-1.77,2.307,2.307,0,0,1,1,.171Zm4.2-2.026.061,1.465a4.878,4.878,0,0,1,3.918-1.709,3.776,3.776,0,0,1,3.772,2.124,5,5,0,0,1,1.715-1.538,5.066,5.066,0,0,1,2.5-.586q4.346,0,4.419,4.6V28H-7.666V19.284a3.033,3.033,0,0,0-.647-2.118,2.849,2.849,0,0,0-2.173-.7,3,3,0,0,0-2.087.751,3.046,3.046,0,0,0-.964,2.02V28h-2.271V19.345q0-2.881-2.82-2.881a3.021,3.021,0,0,0-3.04,1.892V28h-2.258V14.792ZM6.152,28a4.744,4.744,0,0,1-.317-1.392,5.039,5.039,0,0,1-3.76,1.636,4.662,4.662,0,0,1-3.2-1.1,3.574,3.574,0,0,1-1.251-2.8,3.734,3.734,0,0,1,1.569-3.2A7.4,7.4,0,0,1,3.6,19.992H5.8V18.955a2.536,2.536,0,0,0-.708-1.886A2.845,2.845,0,0,0,3,16.367a3.293,3.293,0,0,0-2.026.61,1.8,1.8,0,0,0-.818,1.477H-2.112a3.117,3.117,0,0,1,.7-1.91,4.791,4.791,0,0,1,1.9-1.459,6.406,6.406,0,0,1,2.643-.537,5.222,5.222,0,0,1,3.577,1.141,4.117,4.117,0,0,1,1.343,3.143v6.079A7.432,7.432,0,0,0,8.521,27.8V28ZM2.4,26.279a3.969,3.969,0,0,0,2.014-.549A3.323,3.323,0,0,0,5.8,24.3v-2.71H4.028q-4.15,0-4.15,2.429a2.056,2.056,0,0,0,.708,1.66A2.721,2.721,0,0,0,2.4,26.279Zm14.49.122a3.253,3.253,0,0,0,2.112-.732,2.577,2.577,0,0,0,1-1.831h2.136A4.1,4.1,0,0,1,21.362,26a5.145,5.145,0,0,1-1.923,1.636,5.548,5.548,0,0,1-2.545.61,5.441,5.441,0,0,1-4.291-1.8,7.171,7.171,0,0,1-1.593-4.926V21.14a7.952,7.952,0,0,1,.708-3.43,5.393,5.393,0,0,1,2.032-2.332,5.774,5.774,0,0,1,3.131-.83,5.3,5.3,0,0,1,3.693,1.331,4.755,4.755,0,0,1,1.569,3.455H20.007a3.112,3.112,0,0,0-.97-2.106,3.019,3.019,0,0,0-2.155-.824,3.161,3.161,0,0,0-2.667,1.239,5.819,5.819,0,0,0-.946,3.583v.427a5.7,5.7,0,0,0,.94,3.516A3.176,3.176,0,0,0,16.895,26.4ZM27.136,28H24.878V14.792h2.258ZM24.695,11.289a1.348,1.348,0,0,1,.336-.928,1.26,1.26,0,0,1,.995-.378,1.28,1.28,0,0,1,1,.378,1.334,1.334,0,0,1,.342.928,1.29,1.29,0,0,1-.342.916,1.3,1.3,0,0,1-1,.366,1.283,1.283,0,0,1-.995-.366A1.3,1.3,0,0,1,24.695,11.289Zm5.457,9.985a7.8,7.8,0,0,1,.763-3.491,5.691,5.691,0,0,1,2.124-2.393,5.782,5.782,0,0,1,3.107-.842,5.57,5.57,0,0,1,4.364,1.868,7.186,7.186,0,0,1,1.666,4.968v.159A7.869,7.869,0,0,1,41.437,25a5.608,5.608,0,0,1-2.112,2.386,5.848,5.848,0,0,1-3.156.854,5.556,5.556,0,0,1-4.352-1.868,7.149,7.149,0,0,1-1.666-4.944Zm2.271.269a5.651,5.651,0,0,0,1.019,3.528,3.454,3.454,0,0,0,5.463-.018,6.179,6.179,0,0,0,1.013-3.778,5.641,5.641,0,0,0-1.031-3.522,3.279,3.279,0,0,0-2.74-1.349,3.243,3.243,0,0,0-2.7,1.331A6.133,6.133,0,0,0,32.422,21.542ZM37.17,9.274H39.9l-3.271,3.589-1.819-.006Zm9.973,5.518.073,1.66a4.813,4.813,0,0,1,3.955-1.9q4.187,0,4.224,4.724V28H53.137V19.26a3.041,3.041,0,0,0-.653-2.112,2.617,2.617,0,0,0-2-.684,3.259,3.259,0,0,0-1.929.586,3.979,3.979,0,0,0-1.294,1.538V28H45.007V14.792ZM73.145,28a4.744,4.744,0,0,1-.317-1.392,5.039,5.039,0,0,1-3.76,1.636,4.662,4.662,0,0,1-3.2-1.1,3.574,3.574,0,0,1-1.251-2.8,3.734,3.734,0,0,1,1.569-3.2,7.4,7.4,0,0,1,4.413-1.141h2.2V18.955a2.536,2.536,0,0,0-.708-1.886,2.845,2.845,0,0,0-2.087-.7,3.293,3.293,0,0,0-2.026.61,1.8,1.8,0,0,0-.818,1.477H64.88a3.117,3.117,0,0,1,.7-1.91,4.791,4.791,0,0,1,1.9-1.459,6.406,6.406,0,0,1,2.643-.537,5.221,5.221,0,0,1,3.577,1.141,4.117,4.117,0,0,1,1.343,3.143v6.079a7.432,7.432,0,0,0,.464,2.893V28ZM69.4,26.279a3.969,3.969,0,0,0,2.014-.549A3.323,3.323,0,0,0,72.791,24.3v-2.71h-1.77q-4.15,0-4.15,2.429a2.056,2.056,0,0,0,.708,1.66A2.721,2.721,0,0,0,69.4,26.279ZM-44.4,56h-2.258V37.25H-44.4Zm3.015-6.726a7.8,7.8,0,0,1,.763-3.491,5.691,5.691,0,0,1,2.124-2.393,5.782,5.782,0,0,1,3.107-.842,5.57,5.57,0,0,1,4.364,1.868,7.186,7.186,0,0,1,1.666,4.968v.159A7.869,7.869,0,0,1-30.1,53a5.608,5.608,0,0,1-2.112,2.386,5.848,5.848,0,0,1-3.156.854,5.556,5.556,0,0,1-4.352-1.868,7.149,7.149,0,0,1-1.666-4.944Zm2.271.269a5.651,5.651,0,0,0,1.019,3.528A3.262,3.262,0,0,0-35.364,54.4a3.242,3.242,0,0,0,2.734-1.349,6.179,6.179,0,0,0,1.013-3.778,5.641,5.641,0,0,0-1.031-3.522,3.279,3.279,0,0,0-2.74-1.349,3.243,3.243,0,0,0-2.7,1.331A6.133,6.133,0,0,0-39.111,49.542ZM-18.835,52.5a1.662,1.662,0,0,0-.69-1.422,6.639,6.639,0,0,0-2.4-.873,11.37,11.37,0,0,1-2.722-.879A3.873,3.873,0,0,1-26.141,48.1a2.92,2.92,0,0,1-.482-1.685,3.426,3.426,0,0,1,1.373-2.747,5.363,5.363,0,0,1,3.51-1.123,5.519,5.519,0,0,1,3.644,1.16,3.683,3.683,0,0,1,1.4,2.966H-18.97a2.039,2.039,0,0,0-.787-1.6,2.95,2.95,0,0,0-1.984-.671,3.087,3.087,0,0,0-1.929.537,1.691,1.691,0,0,0-.7,1.4,1.37,1.37,0,0,0,.647,1.233,7.96,7.96,0,0,0,2.338.793,12.18,12.18,0,0,1,2.74.9,4,4,0,0,1,1.556,1.263,3.106,3.106,0,0,1,.507,1.8,3.38,3.38,0,0,1-1.416,2.838,5.94,5.94,0,0,1-3.674,1.068,6.651,6.651,0,0,1-2.808-.562,4.566,4.566,0,0,1-1.91-1.569,3.781,3.781,0,0,1-.69-2.179h2.258a2.338,2.338,0,0,0,.909,1.8,3.528,3.528,0,0,0,2.24.665,3.642,3.642,0,0,0,2.057-.519A1.594,1.594,0,0,0-18.835,52.5Zm16.98-4.419a11.021,11.021,0,0,1-4.388-2.13,4.07,4.07,0,0,1-1.373-3.119,4.3,4.3,0,0,1,1.678-3.473,6.671,6.671,0,0,1,4.364-1.373,7.281,7.281,0,0,1,3.265.708,5.369,5.369,0,0,1,2.222,1.953A4.994,4.994,0,0,1,4.7,43.366H2.344a3.25,3.25,0,0,0-1.025-2.542A4.17,4.17,0,0,0-1.575,39.9a4.269,4.269,0,0,0-2.7.764,2.55,2.55,0,0,0-.97,2.122,2.294,2.294,0,0,0,.922,1.841A9.04,9.04,0,0,0-1.19,46a14.556,14.556,0,0,1,3.467,1.374,5.261,5.261,0,0,1,1.855,1.752,4.471,4.471,0,0,1,.6,2.356,4.153,4.153,0,0,1-1.685,3.461,7.183,7.183,0,0,1-4.5,1.3,8.354,8.354,0,0,1-3.418-.7A5.752,5.752,0,0,1-7.318,53.62a4.692,4.692,0,0,1-.861-2.771h2.356a3.061,3.061,0,0,0,1.19,2.545,5.011,5.011,0,0,0,3.18.934,4.607,4.607,0,0,0,2.844-.757,2.458,2.458,0,0,0,.989-2.063,2.413,2.413,0,0,0-.916-2.02A10.555,10.555,0,0,0-1.855,48.078ZM10.1,54.083h8.423V56H7.739V38.227H10.1Zm21.143-2.734H23.792L22.119,56H19.7l6.787-17.773H28.54L35.339,56h-2.4ZM24.5,49.433h6.042L27.515,41.12ZM45.068,52.5a1.663,1.663,0,0,0-.69-1.422,6.639,6.639,0,0,0-2.4-.873,11.37,11.37,0,0,1-2.722-.879A3.873,3.873,0,0,1,37.762,48.1a2.92,2.92,0,0,1-.482-1.685,3.426,3.426,0,0,1,1.373-2.747,5.363,5.363,0,0,1,3.51-1.123,5.519,5.519,0,0,1,3.644,1.16,3.683,3.683,0,0,1,1.4,2.966H44.934a2.039,2.039,0,0,0-.787-1.6,2.95,2.95,0,0,0-1.984-.671,3.087,3.087,0,0,0-1.929.537,1.691,1.691,0,0,0-.7,1.4,1.37,1.37,0,0,0,.647,1.233,7.96,7.96,0,0,0,2.338.793,12.18,12.18,0,0,1,2.74.9,4,4,0,0,1,1.556,1.263,3.106,3.106,0,0,1,.507,1.8,3.38,3.38,0,0,1-1.416,2.838,5.94,5.94,0,0,1-3.674,1.068,6.651,6.651,0,0,1-2.808-.562,4.566,4.566,0,0,1-1.91-1.569,3.781,3.781,0,0,1-.69-2.179h2.258a2.338,2.338,0,0,0,.909,1.8,3.528,3.528,0,0,0,2.24.665,3.642,3.642,0,0,0,2.057-.519A1.594,1.594,0,0,0,45.068,52.5Z" transform="translate(1067.806 4543.71)" fill="#fff"/>
  </g>
</svg>
