<svg xmlns="http://www.w3.org/2000/svg" xmlns:xlink="http://www.w3.org/1999/xlink" width="865.619" height="308.586" viewBox="0 0 865.619 308.586">
  <defs>
    <linearGradient id="linear-gradient" x1="0.5" x2="0.5" y2="1" gradientUnits="objectBoundingBox">
      <stop offset="0" stop-color="#039be5"/>
      <stop offset="1" stop-color="#027fbc"/>
    </linearGradient>
    <linearGradient id="linear-gradient-5" x1="0.5" x2="0.5" y2="1" gradientUnits="objectBoundingBox">
      <stop offset="0" stop-color="#fff"/>
      <stop offset="1" stop-color="#d2e6ee"/>
    </linearGradient>
  </defs>
  <g id="Grupo_161581" data-name="Grupo 161581" transform="translate(-400.228 -2134.707)">
    <g id="Grupo_155381" data-name="Grupo 155381" transform="translate(-241.418 1361.436)">
      <g id="Grupo_146087" data-name="Grupo 146087" transform="translate(641.646 908.675)">
        <rect id="Rectángulo_37274" data-name="Rectángulo 37274" width="204.464" height="60.061" rx="10" transform="translate(1.155 0)" fill="url(#linear-gradient)"/>
        <g id="Rectángulo_37275" data-name="Rectángulo 37275" transform="translate(0 0)" fill="#fff" stroke="#1565c0" stroke-width="1">
          <rect width="56.596" height="60.061" rx="10" stroke="none"/>
          <rect x="0.5" y="0.5" width="55.596" height="59.061" rx="9.5" fill="none"/>
        </g>
        <path id="Trazado_199860" data-name="Trazado 199860" d="M-45.252-4.889h-2.839V0h-1.6V-12.086h4a4.736,4.736,0,0,1,3.142.93,3.345,3.345,0,0,1,1.1,2.706,3.254,3.254,0,0,1-.61,1.967,3.642,3.642,0,0,1-1.7,1.253L-40.919-.1V0h-1.71Zm-2.839-1.3h2.449a2.762,2.762,0,0,0,1.888-.615,2.081,2.081,0,0,0,.7-1.647,2.191,2.191,0,0,0-.668-1.721,2.829,2.829,0,0,0-1.93-.607h-2.44ZM-35.731.166a3.924,3.924,0,0,1-2.972-1.2,4.452,4.452,0,0,1-1.146-3.208v-.282a5.39,5.39,0,0,1,.51-2.386A3.982,3.982,0,0,1-37.91-8.554a3.59,3.59,0,0,1,1.988-.594A3.364,3.364,0,0,1-33.2-7.994a5,5,0,0,1,.971,3.3v.639h-6.084a3.193,3.193,0,0,0,.776,2.146,2.44,2.44,0,0,0,1.888.818,2.675,2.675,0,0,0,1.378-.332,3.462,3.462,0,0,0,.988-.88l.938.73A3.772,3.772,0,0,1-35.731.166Zm-.191-8.052a2.048,2.048,0,0,0-1.561.677,3.288,3.288,0,0,0-.78,1.9h4.5v-.116a2.925,2.925,0,0,0-.631-1.814A1.928,1.928,0,0,0-35.922-7.886Zm5.1,3.32a5.272,5.272,0,0,1,.971-3.349,3.147,3.147,0,0,1,2.606-1.233,3.145,3.145,0,0,1,2.515,1.071l.066-.9h1.411V3.453H-24.79V-.83a3.223,3.223,0,0,1-2.474,1A3.1,3.1,0,0,1-29.858-1.1a5.389,5.389,0,0,1-.967-3.358Zm1.536.174a4,4,0,0,0,.652,2.424,2.073,2.073,0,0,0,1.756.88A2.3,2.3,0,0,0-24.79-2.3V-6.7a2.307,2.307,0,0,0-2.075-1.187A2.088,2.088,0,0,0-28.634-7,4.35,4.35,0,0,0-29.289-4.391Zm14.045,3.5A3.262,3.262,0,0,1-17.876.166a2.792,2.792,0,0,1-2.187-.834,3.611,3.611,0,0,1-.76-2.469V-8.981h1.536v5.8q0,2.042,1.66,2.042a2.3,2.3,0,0,0,2.341-1.312V-8.981h1.536V0h-1.461Zm5.5.888h-1.536V-8.981h1.536Zm-1.66-11.364a.917.917,0,0,1,.228-.631.857.857,0,0,1,.677-.257.87.87,0,0,1,.681.257.907.907,0,0,1,.232.631.877.877,0,0,1-.232.623.886.886,0,0,1-.681.249.872.872,0,0,1-.677-.249A.886.886,0,0,1-11.409-11.364Zm9.347,8.981a1.131,1.131,0,0,0-.469-.967,4.514,4.514,0,0,0-1.635-.594,7.731,7.731,0,0,1-1.851-.6,2.633,2.633,0,0,1-1.013-.83,1.986,1.986,0,0,1-.328-1.146,2.33,2.33,0,0,1,.934-1.868,3.647,3.647,0,0,1,2.386-.764,3.753,3.753,0,0,1,2.478.789A2.5,2.5,0,0,1-.61-6.342H-2.154a1.386,1.386,0,0,0-.535-1.087,2.006,2.006,0,0,0-1.349-.457,2.1,2.1,0,0,0-1.312.365,1.15,1.15,0,0,0-.473.955.932.932,0,0,0,.44.838,5.413,5.413,0,0,0,1.59.54,8.283,8.283,0,0,1,1.864.614,2.718,2.718,0,0,1,1.058.859A2.112,2.112,0,0,1-.527-2.49,2.3,2.3,0,0,1-1.49-.56a4.039,4.039,0,0,1-2.5.726A4.523,4.523,0,0,1-5.9-.216,3.105,3.105,0,0,1-7.2-1.282a2.571,2.571,0,0,1-.469-1.482H-6.13A1.59,1.59,0,0,0-5.512-1.54a2.4,2.4,0,0,0,1.523.452,2.476,2.476,0,0,0,1.4-.353A1.084,1.084,0,0,0-2.063-2.382ZM3.142,0H1.606V-8.981H3.142ZM1.482-11.364a.917.917,0,0,1,.228-.631.857.857,0,0,1,.677-.257.87.87,0,0,1,.681.257.907.907,0,0,1,.232.631.877.877,0,0,1-.232.623.886.886,0,0,1-.681.249.872.872,0,0,1-.677-.249A.886.886,0,0,1,1.482-11.364Zm6.2.208v2.175H9.359v1.187H7.682v5.577a1.247,1.247,0,0,0,.224.81.943.943,0,0,0,.764.27,3.718,3.718,0,0,0,.73-.1V0A4.478,4.478,0,0,1,8.222.166,1.912,1.912,0,0,1,6.67-.457a2.675,2.675,0,0,1-.523-1.768v-5.57H4.511V-8.981H6.147v-2.175Zm2.9,6.583A5.3,5.3,0,0,1,11.1-6.948a3.87,3.87,0,0,1,1.444-1.627,3.932,3.932,0,0,1,2.113-.573,3.788,3.788,0,0,1,2.968,1.27A4.886,4.886,0,0,1,18.756-4.5v.108a5.351,5.351,0,0,1-.5,2.353A3.813,3.813,0,0,1,16.817-.415a3.977,3.977,0,0,1-2.146.581A3.778,3.778,0,0,1,11.712-1.1a4.861,4.861,0,0,1-1.133-3.362Zm1.544.183a3.842,3.842,0,0,0,.693,2.4,2.218,2.218,0,0,0,1.855.9A2.2,2.2,0,0,0,16.531-2a4.2,4.2,0,0,0,.689-2.569,3.836,3.836,0,0,0-.7-2.395,2.23,2.23,0,0,0-1.864-.917,2.205,2.205,0,0,0-1.834.9A4.17,4.17,0,0,0,12.123-4.391ZM25.911-2.382a1.131,1.131,0,0,0-.469-.967,4.514,4.514,0,0,0-1.635-.594,7.731,7.731,0,0,1-1.851-.6,2.633,2.633,0,0,1-1.013-.83,1.986,1.986,0,0,1-.328-1.146,2.33,2.33,0,0,1,.934-1.868,3.647,3.647,0,0,1,2.386-.764,3.753,3.753,0,0,1,2.478.789,2.5,2.5,0,0,1,.95,2.017H25.82a1.386,1.386,0,0,0-.535-1.087,2.006,2.006,0,0,0-1.349-.457,2.1,2.1,0,0,0-1.312.365,1.15,1.15,0,0,0-.473.955.932.932,0,0,0,.44.838,5.413,5.413,0,0,0,1.59.54,8.283,8.283,0,0,1,1.864.614,2.718,2.718,0,0,1,1.058.859,2.112,2.112,0,0,1,.344,1.224,2.3,2.3,0,0,1-.963,1.93,4.039,4.039,0,0,1-2.5.726,4.523,4.523,0,0,1-1.909-.382,3.105,3.105,0,0,1-1.3-1.067,2.571,2.571,0,0,1-.469-1.482h1.536a1.59,1.59,0,0,0,.618,1.224,2.4,2.4,0,0,0,1.523.452,2.476,2.476,0,0,0,1.4-.353A1.084,1.084,0,0,0,25.911-2.382Zm7.371-2.183a5.261,5.261,0,0,1,.979-3.324,3.1,3.1,0,0,1,2.565-1.258,3.115,3.115,0,0,1,2.5,1.079V-12.75h1.536V0H39.449l-.075-.963A3.127,3.127,0,0,1,36.81.166a3.068,3.068,0,0,1-2.544-1.278,5.321,5.321,0,0,1-.984-3.337Zm1.536.174A3.984,3.984,0,0,0,35.448-2a2.039,2.039,0,0,0,1.743.863,2.24,2.24,0,0,0,2.133-1.312V-6.574a2.257,2.257,0,0,0-2.117-1.27,2.049,2.049,0,0,0-1.76.872A4.386,4.386,0,0,0,34.818-4.391ZM46.97.166A3.924,3.924,0,0,1,44-1.033a4.452,4.452,0,0,1-1.146-3.208v-.282a5.39,5.39,0,0,1,.51-2.386,3.982,3.982,0,0,1,1.428-1.644,3.59,3.59,0,0,1,1.988-.594A3.364,3.364,0,0,1,49.5-7.994a5,5,0,0,1,.971,3.3v.639H44.388a3.193,3.193,0,0,0,.776,2.146,2.44,2.44,0,0,0,1.888.818,2.675,2.675,0,0,0,1.378-.332,3.462,3.462,0,0,0,.988-.88l.938.73A3.772,3.772,0,0,1,46.97.166Zm-.191-8.052a2.048,2.048,0,0,0-1.561.677,3.288,3.288,0,0,0-.78,1.9h4.5v-.116a2.925,2.925,0,0,0-.631-1.814A1.928,1.928,0,0,0,46.779-7.886Zm-81.2,24.8a2.212,2.212,0,0,0,1.436-.5,1.752,1.752,0,0,0,.681-1.245h1.453a2.785,2.785,0,0,1-.531,1.469,3.5,3.5,0,0,1-1.307,1.112,3.772,3.772,0,0,1-1.731.415,3.7,3.7,0,0,1-2.918-1.224,4.877,4.877,0,0,1-1.083-3.349v-.257A5.407,5.407,0,0,1-37.943,11a3.667,3.667,0,0,1,1.382-1.585,3.926,3.926,0,0,1,2.129-.564,3.6,3.6,0,0,1,2.511.9,3.234,3.234,0,0,1,1.067,2.349h-1.453a2.116,2.116,0,0,0-.66-1.432,2.053,2.053,0,0,0-1.465-.56,2.149,2.149,0,0,0-1.814.843,3.957,3.957,0,0,0-.643,2.436v.291a3.878,3.878,0,0,0,.639,2.391A2.16,2.16,0,0,0-34.423,16.913ZM-23.583,18a3.226,3.226,0,0,1-.216-.946,3.426,3.426,0,0,1-2.557,1.112,3.17,3.17,0,0,1-2.179-.751,2.43,2.43,0,0,1-.851-1.905,2.539,2.539,0,0,1,1.067-2.179,5.029,5.029,0,0,1,3-.776h1.494v-.706a1.725,1.725,0,0,0-.481-1.282,1.935,1.935,0,0,0-1.419-.477A2.239,2.239,0,0,0-27.1,10.5a1.223,1.223,0,0,0-.556,1H-29.2a2.119,2.119,0,0,1,.477-1.3,3.258,3.258,0,0,1,1.295-.992,4.356,4.356,0,0,1,1.8-.365,3.551,3.551,0,0,1,2.432.776,2.8,2.8,0,0,1,.913,2.137V15.9a5.054,5.054,0,0,0,.315,1.967V18Zm-2.548-1.17a2.7,2.7,0,0,0,1.37-.374,2.259,2.259,0,0,0,.938-.971V13.642h-1.2q-2.822,0-2.822,1.652a1.4,1.4,0,0,0,.481,1.129A1.85,1.85,0,0,0-26.131,16.83Zm13.837-3.221a5.378,5.378,0,0,1-.938,3.3,3.006,3.006,0,0,1-2.54,1.253,3.294,3.294,0,0,1-2.573-1.038v4.325H-19.88V9.019h1.4l.075,1A3.163,3.163,0,0,1-15.8,8.853a3.063,3.063,0,0,1,2.561,1.22,5.437,5.437,0,0,1,.942,3.4Zm-1.536-.174a3.968,3.968,0,0,0-.647-2.4,2.086,2.086,0,0,0-1.776-.88,2.257,2.257,0,0,0-2.092,1.237v4.292a2.262,2.262,0,0,0,2.108,1.229,2.076,2.076,0,0,0,1.756-.876A4.332,4.332,0,0,0-13.829,13.435ZM-4.8,18a3.226,3.226,0,0,1-.216-.946A3.426,3.426,0,0,1-7.57,18.166a3.17,3.17,0,0,1-2.179-.751A2.43,2.43,0,0,1-10.6,15.51a2.539,2.539,0,0,1,1.067-2.179,5.029,5.029,0,0,1,3-.776h1.494v-.706a1.725,1.725,0,0,0-.481-1.282,1.935,1.935,0,0,0-1.419-.477,2.239,2.239,0,0,0-1.378.415,1.223,1.223,0,0,0-.556,1h-1.544a2.119,2.119,0,0,1,.477-1.3,3.258,3.258,0,0,1,1.295-.992,4.356,4.356,0,0,1,1.8-.365,3.551,3.551,0,0,1,2.432.776A2.8,2.8,0,0,1-3.5,11.766V15.9a5.054,5.054,0,0,0,.315,1.967V18Zm-2.548-1.17a2.7,2.7,0,0,0,1.37-.374,2.259,2.259,0,0,0,.938-.971V13.642h-1.2q-2.822,0-2.822,1.652a1.4,1.4,0,0,0,.481,1.129A1.85,1.85,0,0,0-7.346,16.83Zm9.853.083a2.212,2.212,0,0,0,1.436-.5,1.752,1.752,0,0,0,.681-1.245H6.076a2.785,2.785,0,0,1-.531,1.469,3.5,3.5,0,0,1-1.307,1.112,3.772,3.772,0,0,1-1.731.415A3.7,3.7,0,0,1-.411,16.942a4.877,4.877,0,0,1-1.083-3.349v-.257A5.407,5.407,0,0,1-1.013,11,3.667,3.667,0,0,1,.369,9.417,3.926,3.926,0,0,1,2.5,8.853a3.6,3.6,0,0,1,2.511.9,3.234,3.234,0,0,1,1.067,2.349H4.624a2.116,2.116,0,0,0-.66-1.432,2.053,2.053,0,0,0-1.465-.56,2.149,2.149,0,0,0-1.814.843,3.957,3.957,0,0,0-.643,2.436v.291a3.878,3.878,0,0,0,.639,2.391A2.16,2.16,0,0,0,2.507,16.913ZM9.471,18H7.936V9.019H9.471ZM7.811,6.636a.917.917,0,0,1,.228-.631.857.857,0,0,1,.677-.257.87.87,0,0,1,.681.257.907.907,0,0,1,.232.631.877.877,0,0,1-.232.623.886.886,0,0,1-.681.249.872.872,0,0,1-.677-.249A.886.886,0,0,1,7.811,6.636Zm3.744,6.8a5.261,5.261,0,0,1,.979-3.324A3.1,3.1,0,0,1,15.1,8.853a3.115,3.115,0,0,1,2.5,1.079V5.25h1.536V18H17.722l-.075-.963a3.127,3.127,0,0,1-2.565,1.129,3.068,3.068,0,0,1-2.544-1.278,5.321,5.321,0,0,1-.984-3.337Zm1.536.174A3.984,3.984,0,0,0,13.721,16a2.039,2.039,0,0,0,1.743.863A2.24,2.24,0,0,0,17.6,15.551V11.426a2.257,2.257,0,0,0-2.117-1.27,2.049,2.049,0,0,0-1.76.872A4.386,4.386,0,0,0,13.09,13.609ZM27.061,18a3.226,3.226,0,0,1-.216-.946,3.426,3.426,0,0,1-2.557,1.112,3.17,3.17,0,0,1-2.179-.751,2.43,2.43,0,0,1-.851-1.905,2.539,2.539,0,0,1,1.067-2.179,5.029,5.029,0,0,1,3-.776H26.82v-.706a1.725,1.725,0,0,0-.481-1.282,1.935,1.935,0,0,0-1.419-.477,2.239,2.239,0,0,0-1.378.415,1.223,1.223,0,0,0-.556,1H21.441a2.119,2.119,0,0,1,.477-1.3,3.258,3.258,0,0,1,1.295-.992,4.356,4.356,0,0,1,1.8-.365,3.551,3.551,0,0,1,2.432.776,2.8,2.8,0,0,1,.913,2.137V15.9a5.054,5.054,0,0,0,.315,1.967V18Zm-2.548-1.17a2.7,2.7,0,0,0,1.37-.374,2.259,2.259,0,0,0,.938-.971V13.642h-1.2q-2.822,0-2.822,1.652a1.4,1.4,0,0,0,.481,1.129A1.85,1.85,0,0,0,24.512,16.83Zm5.877-3.4a5.261,5.261,0,0,1,.979-3.324,3.333,3.333,0,0,1,5.063-.178V5.25h1.536V18H36.557l-.075-.963a3.127,3.127,0,0,1-2.565,1.129,3.068,3.068,0,0,1-2.544-1.278,5.321,5.321,0,0,1-.984-3.337Zm1.536.174A3.984,3.984,0,0,0,32.556,16a2.039,2.039,0,0,0,1.743.863,2.24,2.24,0,0,0,2.133-1.312V11.426a2.257,2.257,0,0,0-2.117-1.27,2.049,2.049,0,0,0-1.76.872A4.386,4.386,0,0,0,31.925,13.609Z" transform="translate(125.742 26.599)" fill="#fff"/>
        <g id="cBpRW6" transform="translate(-4948.979 -846.635)">
          <g id="Grupo_143032" data-name="Grupo 143032" transform="translate(4955.523 852.734)">
            <path id="Trazado_184068" data-name="Trazado 184068" d="M4962.55,862.669a10.494,10.494,0,0,1,2.548-6.4,10.252,10.252,0,0,1,16.019.66,1.161,1.161,0,0,0,1.068.546,8.912,8.912,0,0,1,8.171,4.744,1.464,1.464,0,0,0,.824.643,7.776,7.776,0,0,1,6.033,7.8,7.689,7.689,0,0,1-6.864,7.4c-.324.039-.647.086-1.08.143,0,.521-.021,1.033,0,1.542.035.686-.246,1.076-.951,1-.622-.07-.891.177-1,.769a4.019,4.019,0,0,1-.414,1.067c-.375.734-.825,1.433.145,2.106.12.083.053.71-.126.9-.908.99-1.88,1.922-2.833,2.87a.746.746,0,0,1-1.258-.095c-.376-.491-.725-.459-1.246-.182-.741.4-1.553.66-2.348.986-.2,1.571-.2,1.571-2.157,1.726v3.658c.041.028.083.083.126.083,1.7.033,1.672-.109,1.662,1.776,0,.8-.018,1.592,0,2.387.019.623-.261.92-.875.92-1.069,0-2.14-.005-3.21,0-.646,0-.953-.273-.937-.945.024-1.015,0-2.031.009-3.046.006-.966.105-1.055,1.109-1.07.214,0,.428-.018.686-.03v-3.723c-.588-.052-1.276.076-1.676-.206-.362-.256-.409-.958-.635-1.57-.758-.332-1.668-.762-2.607-1.113-.187-.07-.539.1-.726.265-.718.63-.894.648-1.567-.019-.78-.772-1.554-1.551-2.329-2.328-.828-.83-.827-.913.008-1.785.093-.1.179-.2.236-.268-.369-.955-.694-1.882-1.1-2.773a.883.883,0,0,0-.7-.339c-.814.024-1.168-.3-1.1-1.126.038-.46.007-.925.007-1.472a7.957,7.957,0,0,1-6.376-3.112,7.453,7.453,0,0,1-1.569-4.749A7.818,7.818,0,0,1,4962.55,862.669Zm26.718,14.124a13.45,13.45,0,0,0,1.582-.167,6.3,6.3,0,0,0,4.986-6.375,6.218,6.218,0,0,0-5.3-6.094,1.517,1.517,0,0,1-1.253-.974,7.406,7.406,0,0,0-7.629-4.294,1.112,1.112,0,0,1-1.227-.557,8.906,8.906,0,0,0-16.5,4.583c-.026.785-.236,1.105-1.077,1.147a6.353,6.353,0,0,0-1.125,12.515,13.845,13.845,0,0,0,1.649.211c.179-1.38.182-1.373,1.54-1.725a.662.662,0,0,0,.368-.359c.373-.9.719-1.815,1.086-2.758-.087-.093-.2-.214-.311-.331-.756-.777-.756-.882.017-1.659.658-.661,1.324-1.315,1.978-1.98,1.078-1.1,1.129-1.275,2.327-.065.033.034.1.038.056.023.852-.35,1.618-.721,2.422-.976.527-.167.786-.379.7-.963-.071-.51.057-.961.7-.966,1.4-.011,2.8-.034,4.2.025.246.01.7.43.674.6-.157,1,.422,1.233,1.2,1.46a16.39,16.39,0,0,1,1.965.853c.112-.1.234-.212.351-.325.784-.758.937-.755,1.73.038l1.979,1.978c1.092,1.092,1.092,1.091.043,2.252a.272.272,0,0,0-.045.108,22.872,22.872,0,0,1,.979,2.375c.166.566.41.755.97.694.644-.07.984.24.962.908C4989.262,876.21,4989.268,876.425,4989.268,876.794Zm-22.008-5.957c.834,1,.8.98.184,2.228a15.8,15.8,0,0,0-.957,2.518c-.174.592-.431.916-1.076.856a2.482,2.482,0,0,0-.541.067v2.9c1.153-.273,1.526.342,1.738,1.315a8.69,8.69,0,0,0,.821,2.046c.629,1.235.653,1.223-.178,2.249l1.988,2.045c1.04-.872,1.028-.851,2.23-.228a9.218,9.218,0,0,0,1.963.816c.961.24,1.794.481,1.414,1.786h2.94c.164-1.372.178-1.336.74-1.559,1.139-.451,2.249-.976,3.4-1.4a1.676,1.676,0,0,1,1.012.12c.21.073.36.317.549.5l2.021-2.069c-.854-1.02-.832-1.009-.193-2.262a9.341,9.341,0,0,0,.8-1.969c.232-.947.517-1.712,1.747-1.389V876.4c-1.266.343-1.5-.447-1.762-1.373a11.827,11.827,0,0,0-1.091-2.462.94.94,0,0,1,.177-1.367,2.2,2.2,0,0,0,.289-.35l-1.975-2.081c-.518.349-.823,1.051-1.686.589-1.049-.562-2.216-.9-3.3-1.4a1.68,1.68,0,0,1-.637-.8,2,2,0,0,1-.018-.757h-3.033c.441,1.334-.407,1.56-1.376,1.79a6.175,6.175,0,0,0-1.883.788c-.857.552-1.614.893-2.271-.261Zm8.015,25.173V898.3h2.187v-2.291Z" transform="translate(-4955.523 -852.734)" fill="#12263f"/>
            <path id="Trazado_184069" data-name="Trazado 184069" d="M5157.521,1059.7c-1.4,0-2.768-.008-4.131,0-.5,0-1.011-.045-1.007-.668s.5-.679,1.012-.675c1.508.012,3.017.023,4.523,0,.756-.014,1.014.323,1.007,1.046-.021,2.3-.008,4.6-.008,6.872.077.066.117.13.157.13,1.938-.04,1.656.2,1.67,1.847.006.768-.021,1.536.008,2.3.024.68-.3.942-.941.938-1.042-.007-2.085-.015-3.126,0-.7.011-.992-.319-.981-1,.017-.959,0-1.919,0-2.879,0-1.047.126-1.167,1.179-1.182.191,0,.382-.017.634-.028Zm1.831,10.368v-2.274h-2.206v2.274Z" transform="translate(-5119.965 -1024.493)" fill="#12263f"/>
            <path id="Trazado_184070" data-name="Trazado 184070" d="M4967.936,1059.719c0,2.11,0,4.106,0,6.1,0,.186.017.372.025.545,1.812.252,1.812.252,1.812,2.123,0,.712-.015,1.426.005,2.137a.744.744,0,0,1-.829.878q-1.685.014-3.371,0c-.576,0-.833-.313-.827-.886.011-1.014,0-2.028,0-3.042s.109-1.108,1.139-1.127c.212,0,.424-.023.714-.04v-6.6c0-1.426,0-1.426,1.416-1.426,1.4,0,2.8.008,4.193,0,.507,0,.9.149.891.711-.01.529-.407.635-.87.631C4970.844,1059.712,4969.451,1059.719,4967.936,1059.719Zm-1.757,8.1v2.265h2.189v-2.265Z" transform="translate(-4963.233 -1024.515)" fill="#12263f"/>
            <path id="Trazado_184071" data-name="Trazado 184071" d="M5025.321,872.632a9.033,9.033,0,0,1,4.3,1.215c.452.264.792.6.463,1.115-.311.489-.756.293-1.157.054a6.786,6.786,0,0,0-4.982-.875c-2.591.54-4.038,2.369-4.4,5.442-.057.483-.067,1.018-.713.975-.669-.044-.686-.588-.649-1.113A6.992,6.992,0,0,1,5025.321,872.632Z" transform="translate(-5007.856 -869.355)" fill="#12263f"/>
            <path id="Trazado_184072" data-name="Trazado 184072" d="M5041.008,971.371a6.735,6.735,0,0,0,6.671-6.484c.026-.524.155-1,.75-.956.616.042.623.572.6,1.066a8.118,8.118,0,0,1-16.222-.655c.139-4.295,3.749-7.932,7.832-7.855a1.206,1.206,0,0,1,.873.414c.287.43-.1.843-.777.892a6.79,6.79,0,0,0,.27,13.577Z" transform="translate(-5020.08 -939.401)" fill="#12263f"/>
            <path id="Trazado_184073" data-name="Trazado 184073" d="M5065.267,984.573a4.1,4.1,0,0,1-3.757,4.148c-.47.047-.935.034-1.016-.545-.089-.632.371-.755.882-.815a2.755,2.755,0,0,0,2.561-2.722,2.8,2.8,0,0,0-5.584-.324c-.059.519-.132.974-.765.917-.669-.061-.6-.6-.568-1.072a4.134,4.134,0,0,1,8.247.413Z" transform="translate(-5040.292 -959.406)" fill="#12263f"/>
          </g>
        </g>
      </g>
    </g>
    <g id="Grupo_161575" data-name="Grupo 161575" transform="translate(418.582 1361.436)">
      <g id="Grupo_146087-2" data-name="Grupo 146087" transform="translate(641.646 908.675)">
        <rect id="Rectángulo_37274-2" data-name="Rectángulo 37274" width="204.464" height="60.061" rx="10" transform="translate(1.155 0)" fill="url(#linear-gradient)"/>
        <g id="Rectángulo_37275-2" data-name="Rectángulo 37275" transform="translate(0 0)" fill="#fff" stroke="#1565c0" stroke-width="1">
          <rect width="56.596" height="60.061" rx="10" stroke="none"/>
          <rect x="0.5" y="0.5" width="55.596" height="59.061" rx="9.5" fill="none"/>
        </g>
        <path id="Trazado_199863" data-name="Trazado 199863" d="M-32.232-1.585A3.682,3.682,0,0,1-33.946-.27a6.924,6.924,0,0,1-2.561.436A4.966,4.966,0,0,1-39.13-.527,4.618,4.618,0,0,1-40.9-2.5a6.809,6.809,0,0,1-.643-2.963V-6.516a6.356,6.356,0,0,1,1.274-4.233,4.44,4.44,0,0,1,3.582-1.5,4.586,4.586,0,0,1,3.046.967,4.213,4.213,0,0,1,1.411,2.743h-1.594a2.635,2.635,0,0,0-2.855-2.407,2.821,2.821,0,0,0-2.428,1.126,5.5,5.5,0,0,0-.834,3.261v.989a5.151,5.151,0,0,0,.93,3.236,3.014,3.014,0,0,0,2.515,1.2,5.555,5.555,0,0,0,1.569-.2,2.426,2.426,0,0,0,1.112-.671V-4.715h-2.8v-1.3h4.383ZM-26.089.166a3.924,3.924,0,0,1-2.972-1.2,4.452,4.452,0,0,1-1.146-3.208v-.282A5.39,5.39,0,0,1-29.7-6.91a3.982,3.982,0,0,1,1.428-1.644,3.59,3.59,0,0,1,1.988-.594,3.364,3.364,0,0,1,2.723,1.154,5,5,0,0,1,.971,3.3v.639h-6.084a3.193,3.193,0,0,0,.776,2.146,2.44,2.44,0,0,0,1.888.818,2.675,2.675,0,0,0,1.378-.332,3.462,3.462,0,0,0,.988-.88l.938.73A3.772,3.772,0,0,1-26.089.166Zm-.191-8.052a2.048,2.048,0,0,0-1.561.677,3.288,3.288,0,0,0-.78,1.9h4.5v-.116a2.925,2.925,0,0,0-.631-1.814A1.928,1.928,0,0,0-26.28-7.886Zm10.7,5.5a1.131,1.131,0,0,0-.469-.967,4.514,4.514,0,0,0-1.635-.594,7.731,7.731,0,0,1-1.851-.6,2.633,2.633,0,0,1-1.013-.83,1.986,1.986,0,0,1-.328-1.146,2.33,2.33,0,0,1,.934-1.868,3.647,3.647,0,0,1,2.386-.764,3.753,3.753,0,0,1,2.478.789,2.5,2.5,0,0,1,.95,2.017h-1.544a1.386,1.386,0,0,0-.535-1.087,2.006,2.006,0,0,0-1.349-.457,2.1,2.1,0,0,0-1.312.365,1.15,1.15,0,0,0-.473.955.932.932,0,0,0,.44.838,5.413,5.413,0,0,0,1.59.54,8.283,8.283,0,0,1,1.864.614,2.718,2.718,0,0,1,1.058.859,2.112,2.112,0,0,1,.344,1.224,2.3,2.3,0,0,1-.963,1.93,4.039,4.039,0,0,1-2.5.726,4.523,4.523,0,0,1-1.909-.382,3.105,3.105,0,0,1-1.3-1.067,2.571,2.571,0,0,1-.469-1.482h1.536A1.59,1.59,0,0,0-19.03-1.54a2.4,2.4,0,0,0,1.523.452,2.476,2.476,0,0,0,1.4-.353A1.084,1.084,0,0,0-15.581-2.382Zm5.62-8.774v2.175h1.677v1.187H-9.961v5.577a1.247,1.247,0,0,0,.224.81.943.943,0,0,0,.764.27,3.718,3.718,0,0,0,.73-.1V0A4.478,4.478,0,0,1-9.421.166a1.912,1.912,0,0,1-1.552-.623A2.675,2.675,0,0,1-11.5-2.225v-5.57h-1.635V-8.981H-11.5v-2.175ZM-4.823,0H-6.358V-8.981h1.536Zm-1.66-11.364a.917.917,0,0,1,.228-.631.857.857,0,0,1,.677-.257.87.87,0,0,1,.681.257.907.907,0,0,1,.232.631.877.877,0,0,1-.232.623.886.886,0,0,1-.681.249.872.872,0,0,1-.677-.249A.886.886,0,0,1-6.483-11.364Zm3.71,6.79a5.3,5.3,0,0,1,.519-2.374A3.87,3.87,0,0,1-.809-8.575,3.932,3.932,0,0,1,1.3-9.147a3.788,3.788,0,0,1,2.968,1.27A4.886,4.886,0,0,1,5.4-4.5v.108a5.351,5.351,0,0,1-.5,2.353A3.813,3.813,0,0,1,3.466-.415,3.977,3.977,0,0,1,1.32.166,3.778,3.778,0,0,1-1.639-1.1,4.861,4.861,0,0,1-2.772-4.466Zm1.544.183a3.842,3.842,0,0,0,.693,2.4,2.218,2.218,0,0,0,1.855.9A2.2,2.2,0,0,0,3.179-2a4.2,4.2,0,0,0,.689-2.569,3.836,3.836,0,0,0-.7-2.395A2.23,2.23,0,0,0,1.3-7.886a2.205,2.205,0,0,0-1.834.9A4.17,4.17,0,0,0-1.229-4.391ZM2-12.733H3.86l-2.225,2.44L.4-10.3ZM8.782-8.981l.05,1.129a3.273,3.273,0,0,1,2.689-1.295q2.847,0,2.872,3.212V0H12.858V-5.943a2.068,2.068,0,0,0-.444-1.436,1.78,1.78,0,0,0-1.357-.465,2.216,2.216,0,0,0-1.312.4A2.706,2.706,0,0,0,8.865-6.4V0H7.33V-8.981ZM20.544-4.565a5.261,5.261,0,0,1,.979-3.324,3.1,3.1,0,0,1,2.565-1.258,3.115,3.115,0,0,1,2.5,1.079V-12.75h1.536V0H26.712l-.075-.963A3.127,3.127,0,0,1,24.072.166a3.068,3.068,0,0,1-2.544-1.278,5.321,5.321,0,0,1-.984-3.337Zm1.536.174A3.984,3.984,0,0,0,22.711-2a2.039,2.039,0,0,0,1.743.863,2.24,2.24,0,0,0,2.133-1.312V-6.574a2.257,2.257,0,0,0-2.117-1.27,2.049,2.049,0,0,0-1.76.872A4.386,4.386,0,0,0,22.08-4.391ZM34.232.166a3.924,3.924,0,0,1-2.972-1.2,4.452,4.452,0,0,1-1.146-3.208v-.282a5.39,5.39,0,0,1,.51-2.386,3.982,3.982,0,0,1,1.428-1.644,3.59,3.59,0,0,1,1.988-.594,3.364,3.364,0,0,1,2.723,1.154,5,5,0,0,1,.971,3.3v.639H31.651a3.193,3.193,0,0,0,.776,2.146,2.44,2.44,0,0,0,1.888.818,2.675,2.675,0,0,0,1.378-.332,3.462,3.462,0,0,0,.988-.88l.938.73A3.772,3.772,0,0,1,34.232.166Zm-.191-8.052a2.048,2.048,0,0,0-1.561.677,3.288,3.288,0,0,0-.78,1.9h4.5v-.116a2.925,2.925,0,0,0-.631-1.814A1.928,1.928,0,0,0,34.042-7.886ZM-41.437,18h-1.536V5.25h1.536Zm8,0a3.226,3.226,0,0,1-.216-.946,3.426,3.426,0,0,1-2.557,1.112,3.17,3.17,0,0,1-2.179-.751,2.43,2.43,0,0,1-.851-1.905,2.539,2.539,0,0,1,1.067-2.179,5.029,5.029,0,0,1,3-.776h1.494v-.706a1.725,1.725,0,0,0-.481-1.282,1.935,1.935,0,0,0-1.419-.477,2.239,2.239,0,0,0-1.378.415,1.223,1.223,0,0,0-.556,1h-1.544a2.119,2.119,0,0,1,.477-1.3,3.258,3.258,0,0,1,1.295-.992,4.356,4.356,0,0,1,1.8-.365,3.551,3.551,0,0,1,2.432.776,2.8,2.8,0,0,1,.913,2.137V15.9a5.054,5.054,0,0,0,.315,1.967V18Zm-2.548-1.17a2.7,2.7,0,0,0,1.37-.374,2.259,2.259,0,0,0,.938-.971V13.642h-1.2q-2.822,0-2.822,1.652a1.4,1.4,0,0,0,.481,1.129A1.85,1.85,0,0,0-35.984,16.83Zm10.085-3.4a5.261,5.261,0,0,1,.979-3.324,3.1,3.1,0,0,1,2.565-1.258,3.115,3.115,0,0,1,2.5,1.079V5.25h1.536V18h-1.411l-.075-.963a3.127,3.127,0,0,1-2.565,1.129,3.068,3.068,0,0,1-2.544-1.278,5.321,5.321,0,0,1-.984-3.337Zm1.536.174A3.984,3.984,0,0,0-23.732,16a2.039,2.039,0,0,0,1.743.863,2.24,2.24,0,0,0,2.133-1.312V11.426a2.257,2.257,0,0,0-2.117-1.27,2.049,2.049,0,0,0-1.76.872A4.386,4.386,0,0,0-24.363,13.609Zm12.152,4.557a3.924,3.924,0,0,1-2.972-1.2,4.452,4.452,0,0,1-1.146-3.208v-.282a5.39,5.39,0,0,1,.51-2.386,3.982,3.982,0,0,1,1.428-1.644A3.59,3.59,0,0,1-12.4,8.853a3.364,3.364,0,0,1,2.723,1.154,5,5,0,0,1,.971,3.3v.639h-6.084a3.193,3.193,0,0,0,.776,2.146,2.44,2.44,0,0,0,1.888.818,2.675,2.675,0,0,0,1.378-.332,3.462,3.462,0,0,0,.988-.88l.938.73A3.772,3.772,0,0,1-12.21,18.166Zm-.191-8.052a2.048,2.048,0,0,0-1.561.677,3.288,3.288,0,0,0-.78,1.9h4.5v-.116a2.925,2.925,0,0,0-.631-1.814A1.928,1.928,0,0,0-12.4,10.114Zm6.915-1.1.042,1A3.317,3.317,0,0,1-2.781,8.853,2.568,2.568,0,0,1-.216,10.3,3.4,3.4,0,0,1,.95,9.251a3.445,3.445,0,0,1,1.7-.4q2.955,0,3,3.129V18H4.117V12.073a2.062,2.062,0,0,0-.44-1.44A1.937,1.937,0,0,0,2.2,10.156a2.036,2.036,0,0,0-1.419.51A2.071,2.071,0,0,0,.125,12.04V18H-1.419V12.115a1.713,1.713,0,0,0-1.917-1.959A2.055,2.055,0,0,0-5.4,11.442V18H-6.939V9.019Zm19,8.981a3.226,3.226,0,0,1-.216-.946,3.426,3.426,0,0,1-2.557,1.112,3.17,3.17,0,0,1-2.179-.751,2.43,2.43,0,0,1-.851-1.905,2.539,2.539,0,0,1,1.067-2.179,5.029,5.029,0,0,1,3-.776h1.494v-.706a1.725,1.725,0,0,0-.481-1.282,1.935,1.935,0,0,0-1.419-.477,2.239,2.239,0,0,0-1.378.415,1.223,1.223,0,0,0-.556,1H7.894a2.119,2.119,0,0,1,.477-1.3,3.258,3.258,0,0,1,1.295-.992,4.356,4.356,0,0,1,1.8-.365,3.551,3.551,0,0,1,2.432.776,2.8,2.8,0,0,1,.913,2.137V15.9a5.054,5.054,0,0,0,.315,1.967V18Zm-2.548-1.17a2.7,2.7,0,0,0,1.37-.374,2.259,2.259,0,0,0,.938-.971V13.642h-1.2q-2.822,0-2.822,1.652a1.4,1.4,0,0,0,.481,1.129A1.85,1.85,0,0,0,10.965,16.83Zm7.7-7.811.05,1.129a3.273,3.273,0,0,1,2.689-1.295q2.847,0,2.872,3.212V18H22.744V12.057a2.068,2.068,0,0,0-.444-1.436,1.78,1.78,0,0,0-1.357-.465,2.216,2.216,0,0,0-1.312.4,2.706,2.706,0,0,0-.88,1.046V18H17.216V9.019Zm7.554,4.416A5.261,5.261,0,0,1,27.2,10.11a3.333,3.333,0,0,1,5.063-.178V5.25H33.8V18H32.39l-.075-.963a3.127,3.127,0,0,1-2.565,1.129,3.068,3.068,0,0,1-2.544-1.278,5.321,5.321,0,0,1-.984-3.337Zm1.536.174A3.984,3.984,0,0,0,28.389,16a2.039,2.039,0,0,0,1.743.863,2.24,2.24,0,0,0,2.133-1.312V11.426a2.257,2.257,0,0,0-2.117-1.27,2.049,2.049,0,0,0-1.76.872A4.386,4.386,0,0,0,27.758,13.609ZM41.728,18a3.226,3.226,0,0,1-.216-.946,3.426,3.426,0,0,1-2.557,1.112,3.17,3.17,0,0,1-2.179-.751,2.43,2.43,0,0,1-.851-1.905,2.539,2.539,0,0,1,1.067-2.179,5.029,5.029,0,0,1,3-.776h1.494v-.706a1.725,1.725,0,0,0-.481-1.282,1.935,1.935,0,0,0-1.419-.477,2.239,2.239,0,0,0-1.378.415,1.223,1.223,0,0,0-.556,1H36.108a2.119,2.119,0,0,1,.477-1.3,3.258,3.258,0,0,1,1.295-.992,4.356,4.356,0,0,1,1.8-.365,3.551,3.551,0,0,1,2.432.776,2.8,2.8,0,0,1,.913,2.137V15.9a5.054,5.054,0,0,0,.315,1.967V18ZM39.18,16.83a2.7,2.7,0,0,0,1.37-.374,2.259,2.259,0,0,0,.938-.971V13.642h-1.2q-2.822,0-2.822,1.652a1.4,1.4,0,0,0,.481,1.129A1.85,1.85,0,0,0,39.18,16.83Z" transform="translate(125.742 26.599)" fill="#fff"/>
        <g id="P3Bt8j.tif" transform="translate(-945.115 -760.323)">
          <g id="Grupo_161584" data-name="Grupo 161584" transform="translate(951.947 767.096)">
            <path id="Trazado_199707" data-name="Trazado 199707" d="M996.9,792.744v8.429a6.4,6.4,0,0,1-1.044,2.375c-.307.392-.619.783-.888,1.2a1.381,1.381,0,0,0-.234.692c-.018,2.039-.01,4.078-.01,6.116v.463h-11.6V811.5c0-1.8-.035-3.6.017-5.391a2.609,2.609,0,0,0-.654-1.928,5.5,5.5,0,0,1-1.4-2.552c-.114-.6-.135-1.215-.2-1.872a4.17,4.17,0,0,1-2.7.692c-1.1-.031-2.2-.008-3.307-.006-.145,0-.29.013-.426.02v2.9h2.108v1.409H958.5V803.33h1.4v-2.884h-.465c-1.284,0-2.568,0-3.851,0a3.6,3.6,0,0,1-3.634-3.611q-.008-8.722.005-17.443a3.569,3.569,0,0,1,.167-1.064,3.644,3.644,0,0,1,2.724-2.484V767.1H979.5v8.732a3.88,3.88,0,0,1,2.92,4.108c-.072,3.759-.021,7.521-.021,11.281v.449l1.453.4v-.482c0-2.432.014-4.863-.008-7.294a2.625,2.625,0,0,1,.665-2.087,3.511,3.511,0,0,1-1.095-1.93c-.316-1.58-.631-3.161-.935-4.743a3.345,3.345,0,0,1,3.371-4.085q3.647,0,7.295,0a3.368,3.368,0,0,1,3.692,2.659c.008.024.042.039.064.058v1.269a.582.582,0,0,0-.083.152c-.308,1.534-.618,3.069-.918,4.6a3.324,3.324,0,0,1-2.763,2.8,12.7,12.7,0,0,1-1.986.054c-1.008.006-2.017,0-2.955,0v5.907a2.26,2.26,0,0,1,2.575.886,2.208,2.208,0,0,1,1.9-.1,2.363,2.363,0,0,1,1.243,1.333,7.219,7.219,0,0,1,1.3.013A2.244,2.244,0,0,1,996.9,792.744Zm-18.868-24.2h-.5c-3.866,0-7.732.007-11.6-.01a.674.674,0,0,0-.706.455q-1.953,3.953-3.944,7.887c-.072.143-.217.343-.339.351-.567.037-1.137.017-1.745.017,0-.512.017-.978,0-1.442a1.437,1.437,0,0,0-2.092-1.286,1.485,1.485,0,0,0-.808,1.455q0,8.426,0,16.853c0,.115.018.231.027.343h21.708Zm4.366,24.676v.489c0,1.767.085,3.539-.023,5.3a6.032,6.032,0,0,0,1.583,4.735.869.869,0,0,0,.718.339c2.446-.013,4.893-.006,7.339-.008a3.757,3.757,0,0,0,1.562-.059c.438-.224.688-.811,1.025-1.237a3.723,3.723,0,0,0,.846-2.338c.011-2.356,0-4.712,0-7.068,0-.015,0-.03,0-.045-.017-.519-.318-.864-.743-.852a.764.764,0,0,0-.708.839c-.009.528,0,1.057,0,1.586v1.887h-1.447v-4.652c0-.106,0-.212,0-.317a.762.762,0,0,0-.71-.792.747.747,0,0,0-.737.808c-.01,1.5,0,2.99,0,4.485q0,.239,0,.479h-1.447v-.554c0-1.691,0-3.383,0-5.074,0-.6-.426-.986-.9-.837a.8.8,0,0,0-.552.881c.005,1.707,0,3.413,0,5.12v.46H986.75V785.039c0-.378.006-.755,0-1.133-.011-.521-.312-.865-.737-.856a.769.769,0,0,0-.714.835c0,.121,0,.242,0,.362q0,6.728,0,13.456v.531H983.85v-.465c0-1.012.008-2.024,0-3.035A1.441,1.441,0,0,0,982.4,793.221Zm7.266-20.325c-1.283,0-2.566-.013-3.849,0a1.9,1.9,0,0,0-1.9,2.343q.458,2.372.935,4.741A1.93,1.93,0,0,0,986.8,781.6q2.853.015,5.705,0a1.923,1.923,0,0,0,1.933-1.585c.318-1.563.632-3.128.926-4.7a1.91,1.91,0,0,0-2.038-2.419C992.108,772.892,990.885,772.895,989.663,772.9ZM966.572,799a2.3,2.3,0,0,1-1.561-1.972,2.2,2.2,0,0,1,1.609-2.35H953.4c0,.664,0,1.3,0,1.929A2.216,2.216,0,0,0,955.8,799q3.1,0,6.2,0Zm14.373-4.32H967.684a2.192,2.192,0,0,1,1.65,1.943A2.24,2.24,0,0,1,967.659,799c3.811,0,7.509.019,11.206-.011a2.115,2.115,0,0,0,2.073-2.062C980.976,796.186,980.945,795.447,980.945,794.679Zm3.649,10.86v5.035h8.651V805.54Zm-23.2-2.222h11.547v-2.847H961.391Zm-6.555-25.887a2.125,2.125,0,0,0-1.44,2.128q0,6.635,0,13.27c0,.115.019.23.029.336h1.411Zm24.689-.024v15.76h1.421c0-4.636.016-9.239-.014-13.842A2.044,2.044,0,0,0,979.525,777.406Zm-23.19-8.852v4.373l6.315-4.373Zm4.235,6.481,2.411-4.822-.064-.057-4.184,2.895A3.133,3.133,0,0,1,960.57,775.035Zm7.323,21.809a.721.721,0,1,0-.743.7A.757.757,0,0,0,967.893,796.845Z" transform="translate(-951.947 -767.096)" fill="#12263f"/>
            <path id="Trazado_199708" data-name="Trazado 199708" d="M1163.087,908.166h-1.429V906.7a3,3,0,0,1-2.154-3.559h1.41c0,.253-.012.517,0,.78a1.45,1.45,0,0,0,2.86.247,1.339,1.339,0,0,0-.842-1.526c-.446-.179-.91-.315-1.365-.472a2.844,2.844,0,0,1-.11-5.461l.187-.074v-1.469h1.414v1.43c1.852.9,2.311,1.653,2.179,3.614h-1.425c0-.3.015-.566,0-.831a1.415,1.415,0,0,0-1.344-1.342,1.431,1.431,0,0,0-1.524,1.139,1.394,1.394,0,0,0,.994,1.57c.469.164.946.3,1.413.473a2.827,2.827,0,0,1,.065,5.328c-.25.095-.352.207-.333.478C1163.106,907.388,1163.087,907.751,1163.087,908.166Z" transform="translate(-1140.613 -883.537)" fill="#12263f"/>
            <path id="Trazado_199709" data-name="Trazado 199709" d="M1027.769,926.833v1.448h-11.537v-1.448Z" transform="translate(-1010.394 -912.327)" fill="#12263f"/>
            <path id="Trazado_199710" data-name="Trazado 199710" d="M1016.085,960.131v-1.446h11.537v1.446Z" transform="translate(-1010.26 -941.286)" fill="#12263f"/>
            <path id="Trazado_199711" data-name="Trazado 199711" d="M1027.771,990.705v1.448h-11.537v-1.448Z" transform="translate(-1010.396 -970.398)" fill="#12263f"/>
            <path id="Trazado_199712" data-name="Trazado 199712" d="M1056.557,896.543H1047.9v-1.437h8.657Z" transform="translate(-1039.186 -883.481)" fill="#12263f"/>
            <path id="Trazado_199713" data-name="Trazado 199713" d="M1024.83,1022.666v1.417h-8.671v-1.417Z" transform="translate(-1010.328 -999.457)" fill="#12263f"/>
            <path id="Trazado_199714" data-name="Trazado 199714" d="M1016.25,895.066h1.408v1.422h-1.408Z" transform="translate(-1010.41 -883.445)" fill="#12263f"/>
            <path id="Trazado_199715" data-name="Trazado 199715" d="M1127.562,1024.006v-1.416h1.423v1.416Z" transform="translate(-1111.614 -999.388)" fill="#12263f"/>
            <path id="Trazado_199716" data-name="Trazado 199716" d="M1337.563,841.011l.948,1.041-6.2,6.2-1.895-1.9,1.017-.995.807.987Z" transform="translate(-1296.047 -834.299)" fill="#12263f"/>
          </g>
        </g>
      </g>
    </g>
    <g id="Grupo_161573" data-name="Grupo 161573" transform="translate(-21.418 1361.436)">
      <g id="Grupo_146087-3" data-name="Grupo 146087" transform="translate(641.646 908.675)">
        <rect id="Rectángulo_37274-3" data-name="Rectángulo 37274" width="204.464" height="60.061" rx="10" transform="translate(1.155 0)" fill="url(#linear-gradient)"/>
        <g id="Rectángulo_37275-3" data-name="Rectángulo 37275" transform="translate(0 0)" fill="#fff" stroke="#1565c0" stroke-width="1">
          <rect width="56.596" height="60.061" rx="10" stroke="none"/>
          <rect x="0.5" y="0.5" width="55.596" height="59.061" rx="9.5" fill="none"/>
        </g>
        <path id="Trazado_199861" data-name="Trazado 199861" d="M-45.634-4.731V0h-1.594V-12.086h4.458a4.478,4.478,0,0,1,3.109,1.013,3.433,3.433,0,0,1,1.125,2.681,3.388,3.388,0,0,1-1.1,2.71,4.678,4.678,0,0,1-3.15.95Zm0-1.3h2.864a2.863,2.863,0,0,0,1.959-.6A2.2,2.2,0,0,0-40.13-8.38a2.277,2.277,0,0,0-.681-1.73,2.682,2.682,0,0,0-1.868-.674h-2.955ZM-35.075,0h-1.536V-12.75h1.536Zm8,0a3.226,3.226,0,0,1-.216-.946A3.426,3.426,0,0,1-29.845.166a3.17,3.17,0,0,1-2.179-.751,2.43,2.43,0,0,1-.851-1.905,2.539,2.539,0,0,1,1.067-2.179,5.029,5.029,0,0,1,3-.776h1.494v-.706A1.725,1.725,0,0,0-27.8-7.433a1.935,1.935,0,0,0-1.419-.477,2.239,2.239,0,0,0-1.378.415,1.223,1.223,0,0,0-.556,1h-1.544a2.119,2.119,0,0,1,.477-1.3,3.258,3.258,0,0,1,1.295-.992,4.356,4.356,0,0,1,1.8-.365,3.551,3.551,0,0,1,2.432.776,2.8,2.8,0,0,1,.913,2.137V-2.1a5.054,5.054,0,0,0,.315,1.967V0Zm-2.548-1.17a2.7,2.7,0,0,0,1.37-.374,2.259,2.259,0,0,0,.938-.971V-4.358h-1.2q-2.822,0-2.822,1.652a1.4,1.4,0,0,0,.481,1.129A1.85,1.85,0,0,0-29.621-1.17Zm7.7-7.811.05,1.129a3.273,3.273,0,0,1,2.689-1.295q2.847,0,2.872,3.212V0h-1.536V-5.943a2.068,2.068,0,0,0-.444-1.436,1.78,1.78,0,0,0-1.357-.465,2.216,2.216,0,0,0-1.312.4,2.706,2.706,0,0,0-.88,1.046V0h-1.536V-8.981ZM-12.323,0h-1.536V-8.981h1.536Zm-1.66-11.364a.917.917,0,0,1,.228-.631.857.857,0,0,1,.677-.257.87.87,0,0,1,.681.257.907.907,0,0,1,.232.631.877.877,0,0,1-.232.623.886.886,0,0,1-.681.249.872.872,0,0,1-.677-.249A.886.886,0,0,1-13.983-11.364ZM-9.351,0V-7.794H-10.77V-8.981h1.419v-.764a3.12,3.12,0,0,1,.859-2.341,3.332,3.332,0,0,1,2.428-.838,7.311,7.311,0,0,1,2.349.506l-.257,1.295a5.321,5.321,0,0,0-1.976-.415,1.933,1.933,0,0,0-1.424.444,1.831,1.831,0,0,0-.436,1.332v.78h1.834v1.187H-7.807V0Zm6.4,0H-4.495V-8.981h1.544Zm6.1-1.087a2.212,2.212,0,0,0,1.436-.5,1.752,1.752,0,0,0,.681-1.245H6.719a2.785,2.785,0,0,1-.531,1.469A3.5,3.5,0,0,1,4.881-.249,3.772,3.772,0,0,1,3.15.166,3.7,3.7,0,0,1,.232-1.058,4.877,4.877,0,0,1-.851-4.408v-.257A5.407,5.407,0,0,1-.369-7,3.667,3.667,0,0,1,1.013-8.583a3.926,3.926,0,0,1,2.129-.564,3.6,3.6,0,0,1,2.511.9A3.234,3.234,0,0,1,6.719-5.894H5.267a2.116,2.116,0,0,0-.66-1.432,2.053,2.053,0,0,0-1.465-.56,2.149,2.149,0,0,0-1.814.843A3.957,3.957,0,0,0,.685-4.607v.291a3.878,3.878,0,0,0,.639,2.391A2.16,2.16,0,0,0,3.15-1.087ZM13.991,0a3.226,3.226,0,0,1-.216-.946A3.426,3.426,0,0,1,11.219.166,3.17,3.17,0,0,1,9.04-.585,2.43,2.43,0,0,1,8.189-2.49,2.539,2.539,0,0,1,9.255-4.669a5.029,5.029,0,0,1,3-.776H13.75v-.706a1.725,1.725,0,0,0-.481-1.282,1.935,1.935,0,0,0-1.419-.477,2.239,2.239,0,0,0-1.378.415,1.223,1.223,0,0,0-.556,1H8.371a2.119,2.119,0,0,1,.477-1.3,3.258,3.258,0,0,1,1.295-.992,4.356,4.356,0,0,1,1.8-.365,3.551,3.551,0,0,1,2.432.776,2.8,2.8,0,0,1,.913,2.137V-2.1A5.054,5.054,0,0,0,15.6-.133V0ZM11.443-1.17a2.7,2.7,0,0,0,1.37-.374,2.259,2.259,0,0,0,.938-.971V-4.358h-1.2q-2.822,0-2.822,1.652a1.4,1.4,0,0,0,.481,1.129A1.85,1.85,0,0,0,11.443-1.17Zm9.853.083a2.212,2.212,0,0,0,1.436-.5,1.752,1.752,0,0,0,.681-1.245h1.453a2.785,2.785,0,0,1-.531,1.469A3.5,3.5,0,0,1,23.026-.249,3.772,3.772,0,0,1,21.3.166a3.7,3.7,0,0,1-2.918-1.224,4.877,4.877,0,0,1-1.083-3.349v-.257A5.407,5.407,0,0,1,17.776-7a3.667,3.667,0,0,1,1.382-1.585,3.926,3.926,0,0,1,2.129-.564,3.6,3.6,0,0,1,2.511.9,3.234,3.234,0,0,1,1.067,2.349H23.412a2.116,2.116,0,0,0-.66-1.432,2.053,2.053,0,0,0-1.465-.56,2.149,2.149,0,0,0-1.814.843,3.957,3.957,0,0,0-.643,2.436v.291a3.878,3.878,0,0,0,.639,2.391A2.16,2.16,0,0,0,21.3-1.087ZM28.26,0H26.724V-8.981H28.26ZM26.6-11.364a.917.917,0,0,1,.228-.631.857.857,0,0,1,.677-.257.87.87,0,0,1,.681.257.907.907,0,0,1,.232.631.877.877,0,0,1-.232.623.886.886,0,0,1-.681.249.872.872,0,0,1-.677-.249A.886.886,0,0,1,26.6-11.364Zm3.71,6.79a5.3,5.3,0,0,1,.519-2.374,3.87,3.87,0,0,1,1.444-1.627,3.932,3.932,0,0,1,2.113-.573,3.788,3.788,0,0,1,2.968,1.27A4.886,4.886,0,0,1,38.487-4.5v.108a5.351,5.351,0,0,1-.5,2.353A3.813,3.813,0,0,1,36.548-.415,3.977,3.977,0,0,1,34.4.166,3.778,3.778,0,0,1,31.443-1.1,4.861,4.861,0,0,1,30.31-4.466Zm1.544.183a3.842,3.842,0,0,0,.693,2.4,2.218,2.218,0,0,0,1.855.9A2.2,2.2,0,0,0,36.262-2a4.2,4.2,0,0,0,.689-2.569,3.836,3.836,0,0,0-.7-2.395,2.23,2.23,0,0,0-1.864-.917,2.205,2.205,0,0,0-1.834.9A4.17,4.17,0,0,0,31.854-4.391Zm3.229-8.342h1.859l-2.225,2.44-1.237,0Zm6.782,3.752.05,1.129A3.273,3.273,0,0,1,44.6-9.147q2.847,0,2.872,3.212V0H45.941V-5.943A2.068,2.068,0,0,0,45.5-7.379a1.78,1.78,0,0,0-1.357-.465,2.216,2.216,0,0,0-1.312.4,2.706,2.706,0,0,0-.88,1.046V0H40.412V-8.981Z" transform="translate(125.742 36.599)" fill="#fff"/>
        <g id="Y2rqgQ.tif" transform="translate(-482.679 -967.612)">
          <g id="Grupo_161583" data-name="Grupo 161583" transform="translate(490.452 976.466)">
            <path id="Trazado_199683" data-name="Trazado 199683" d="M490.452,1057.885a2.17,2.17,0,0,1,1.546-1.56,2.516,2.516,0,0,1,.59-.061q10.47,0,20.94-.008a1.051,1.051,0,0,1,.83.345c.371.394.767.764,1.143,1.153a.7.7,0,0,1,0,1.118.661.661,0,0,0-.06.061,3.675,3.675,0,0,1-3.411,1.468c-6.352-.087-12.706-.055-19.059-.022a2.315,2.315,0,0,1-2.522-1.639Zm18.457-.258H492.762c-.071,0-.143,0-.214,0a.686.686,0,1,0,.018,1.368c.085.005.171,0,.256,0h16.086Zm1.406,1.372c.826,0,1.635-.05,2.435.016a1.352,1.352,0,0,0,1.312-.7,1.312,1.312,0,0,0-1.386-.694,6.816,6.816,0,0,1-1.021.009h-1.34Z" transform="translate(-490.452 -1049.417)" fill="#12263f"/>
            <path id="Trazado_199684" data-name="Trazado 199684" d="M649.207,976.466v1.341H634.153v-1.341Z" transform="translate(-621.836 -976.466)" fill="#12263f"/>
            <path id="Trazado_199685" data-name="Trazado 199685" d="M827.123,976.466V977.8h-1.368v-1.337Z" transform="translate(-797.015 -976.466)" fill="#12263f"/>
            <path id="Trazado_199686" data-name="Trazado 199686" d="M575.983,1123.6h-4.109c0,.409,0,.816,0,1.222,0,.59-.235.82-.832.821-1.068,0-2.137,0-3.239,0v2.74h1.725c.542,0,1.083-.007,1.625,0a.654.654,0,0,1,.719.715q.011,2.01,0,4.019a.662.662,0,0,1-.747.732q-4.041.006-8.081,0a.661.661,0,0,1-.743-.735q-.009-1.988,0-3.976a.67.67,0,0,1,.766-.756c1.095-.005,2.19,0,3.311,0v-2.74h-3.163c-.712,0-.915-.2-.916-.909q0-1.86,0-3.72c0-.619.226-.841.853-.842q3.934,0,7.867,0c.627,0,.852.223.855.84,0,.384,0,.767,0,1.181h4.109c0-.421,0-.844,0-1.266a.671.671,0,0,1,.767-.755q4.019,0,8.039,0a.67.67,0,0,1,.768.755q.008,1.988,0,3.976a.662.662,0,0,1-.743.736q-4.04.006-8.081,0c-.505,0-.743-.255-.749-.773C575.979,1124.462,575.983,1124.051,575.983,1123.6Zm-12.29-2.042v2.687h6.794v-2.687Zm20.477,2.7v-2.692h-6.789v2.692Zm-20.476,5.511v2.687h6.792v-2.687Z" transform="translate(-556.138 -1107.858)" fill="#12263f"/>
            <path id="Trazado_199687" data-name="Trazado 199687" d="M525.107,1146.5c-.655,0-1.294,0-1.933,0a.671.671,0,0,1-.765-.757q0-12.508,0-25.015c0-.055.009-.111.016-.2h1.333v24.584h17.093v1.374H526.542v1.375h17.052v1.374h-17.51c-.742,0-.938-.194-.94-.928q0-.834,0-1.667A.961.961,0,0,0,525.107,1146.5Z" transform="translate(-519.669 -1108.183)" fill="#12263f"/>
            <path id="Trazado_199688" data-name="Trazado 199688" d="M552.529,1024.8H551.17V1009.78H523.794v1.3h-1.376c0-.711-.023-1.433.011-2.153a.591.591,0,0,1,.576-.54,3.011,3.011,0,0,1,.385-.006h28.136c.819,0,.988.173.989,1.007q0,.791,0,1.582a1.227,1.227,0,0,0,.027.148h1.8c.687,0,.9.209.9.88q0,6.542,0,13.085v.37H553.9v-12.935h-1.375Z" transform="translate(-519.671 -1005.647)" fill="#12263f"/>
            <path id="Trazado_199689" data-name="Trazado 199689" d="M740.224,1215.986a10.263,10.263,0,1,1-10.252,10.185A10.253,10.253,0,0,1,740.224,1215.986Zm-.023,19.159a8.9,8.9,0,1,0-8.859-8.974A8.941,8.941,0,0,0,740.2,1235.145Z" transform="translate(-709.442 -1195.456)" fill="#12263f"/>
            <path id="Trazado_199690" data-name="Trazado 199690" d="M562.545,1337.313V1336h12.273v1.313Z" transform="translate(-556.366 -1305.184)" fill="#12263f"/>
            <path id="Trazado_199691" data-name="Trazado 199691" d="M573.478,1368.026v1.312h-10.9v-1.312Z" transform="translate(-556.391 -1334.464)" fill="#12263f"/>
            <path id="Trazado_199692" data-name="Trazado 199692" d="M610.464,1305.363v-1.316h8.153v1.316Z" transform="translate(-600.178 -1275.969)" fill="#12263f"/>
            <path id="Trazado_199693" data-name="Trazado 199693" d="M578.4,1305.479v-1.3h1.327v1.3Z" transform="translate(-570.858 -1276.093)" fill="#12263f"/>
            <path id="Trazado_199694" data-name="Trazado 199694" d="M813.386,1295.367l-.924-.974c.729-.73,1.465-1.48,2.219-2.213a.877.877,0,0,0,.3-.7c-.018-1.121-.007-2.242-.007-3.385h1.365v.62c0,1.111.007,2.221-.007,3.332a.871.871,0,0,1-.151.553C815.265,1293.531,814.326,1294.441,813.386,1295.367Z" transform="translate(-784.862 -1261.382)" fill="#12263f"/>
            <path id="Trazado_199695" data-name="Trazado 199695" d="M909.752,1285.96l-1.2.7-.69-1.193,1.185-.692Z" transform="translate(-872.088 -1258.345)" fill="#12263f"/>
            <path id="Trazado_199696" data-name="Trazado 199696" d="M879.811,1393.783l.688,1.194-1.188.691-.7-1.191Z" transform="translate(-845.343 -1358.014)" fill="#12263f"/>
            <path id="Trazado_199697" data-name="Trazado 199697" d="M907.888,1365.9l.686-1.194,1.2.687-.688,1.2Z" transform="translate(-872.109 -1331.432)" fill="#12263f"/>
            <path id="Trazado_199698" data-name="Trazado 199698" d="M770.8,1364.573l.693,1.2-1.193.692-.691-1.19Z" transform="translate(-745.684 -1331.307)" fill="#12263f"/>
            <path id="Trazado_199699" data-name="Trazado 199699" d="M770.79,1286.758l-1.193-.7.691-1.187,1.193.685Z" transform="translate(-745.671 -1258.44)" fill="#12263f"/>
            <path id="Trazado_199700" data-name="Trazado 199700" d="M800.672,1256.722l-1.192.688-.7-1.187,1.194-.7Z" transform="translate(-772.356 -1231.608)" fill="#12263f"/>
            <path id="Trazado_199701" data-name="Trazado 199701" d="M880.552,1256.3l-.692,1.188-1.192-.684.688-1.2Z" transform="translate(-845.393 -1231.679)" fill="#12263f"/>
            <path id="Trazado_199702" data-name="Trazado 199702" d="M799.508,1393.885l1.193.691-.687,1.2-1.193-.691Z" transform="translate(-772.39 -1358.107)" fill="#12263f"/>
            <path id="Trazado_199703" data-name="Trazado 199703" d="M923.166,1328.15v1.3h-1.327v-1.3Z" transform="translate(-884.864 -1298.006)" fill="#12263f"/>
            <path id="Trazado_199704" data-name="Trazado 199704" d="M763.594,1329.405h-1.308v-1.315h1.308Z" transform="translate(-738.987 -1297.952)" fill="#12263f"/>
            <path id="Trazado_199705" data-name="Trazado 199705" d="M841.942,1249.512V1248.2h1.327v1.309Z" transform="translate(-811.815 -1224.912)" fill="#12263f"/>
            <path id="Trazado_199706" data-name="Trazado 199706" d="M843.38,1407.867v1.31h-1.317v-1.31Z" transform="translate(-811.926 -1370.891)" fill="#12263f"/>
          </g>
        </g>
      </g>
    </g>
    <g id="Grupo_161574" data-name="Grupo 161574" transform="translate(198.582 1361.436)">
      <g id="Grupo_146087-4" data-name="Grupo 146087" transform="translate(641.646 908.675)">
        <rect id="Rectángulo_37274-4" data-name="Rectángulo 37274" width="204.464" height="60.061" rx="10" transform="translate(1.155 0)" fill="url(#linear-gradient)"/>
        <g id="Rectángulo_37275-4" data-name="Rectángulo 37275" transform="translate(0 0)" fill="#fff" stroke="#1565c0" stroke-width="1">
          <rect width="56.596" height="60.061" rx="10" stroke="none"/>
          <rect x="0.5" y="0.5" width="55.596" height="59.061" rx="9.5" fill="none"/>
        </g>
        <path id="Trazado_199862" data-name="Trazado 199862" d="M-39.151-5.387a7.494,7.494,0,0,1-2.984-1.448,2.768,2.768,0,0,1-.934-2.121,2.923,2.923,0,0,1,1.141-2.362,4.536,4.536,0,0,1,2.968-.934,4.951,4.951,0,0,1,2.22.481,3.651,3.651,0,0,1,1.511,1.328,3.4,3.4,0,0,1,.535,1.851h-1.6a2.21,2.21,0,0,0-.7-1.729,2.835,2.835,0,0,0-1.967-.629,2.9,2.9,0,0,0-1.839.52,1.734,1.734,0,0,0-.66,1.443,1.56,1.56,0,0,0,.627,1.252A6.147,6.147,0,0,0-38.7-6.8a9.9,9.9,0,0,1,2.357.935,3.577,3.577,0,0,1,1.262,1.191,3.04,3.04,0,0,1,.411,1.6A2.824,2.824,0,0,1-35.814-.718a4.884,4.884,0,0,1-3.063.884A5.681,5.681,0,0,1-41.2-.311a3.911,3.911,0,0,1-1.664-1.307A3.191,3.191,0,0,1-43.45-3.5h1.6a2.082,2.082,0,0,0,.809,1.731,3.408,3.408,0,0,0,2.162.635,3.133,3.133,0,0,0,1.934-.515,1.672,1.672,0,0,0,.672-1.4,1.641,1.641,0,0,0-.623-1.374A7.178,7.178,0,0,0-39.151-5.387Zm11.829,4.5A3.262,3.262,0,0,1-29.953.166a2.792,2.792,0,0,1-2.187-.834,3.611,3.611,0,0,1-.76-2.469V-8.981h1.536v5.8q0,2.042,1.66,2.042a2.3,2.3,0,0,0,2.341-1.312V-8.981h1.536V0h-1.461Zm11.414-3.5a5.378,5.378,0,0,1-.938,3.3A3.006,3.006,0,0,1-19.386.166,3.294,3.294,0,0,1-21.96-.872V3.453H-23.5V-8.981h1.4l.075,1a3.163,3.163,0,0,1,2.606-1.162,3.063,3.063,0,0,1,2.561,1.22,5.437,5.437,0,0,1,.942,3.4Zm-1.536-.174a3.968,3.968,0,0,0-.647-2.4,2.086,2.086,0,0,0-1.776-.88A2.257,2.257,0,0,0-21.96-6.607v4.292a2.262,2.262,0,0,0,2.108,1.229A2.076,2.076,0,0,0-18.1-1.963,4.332,4.332,0,0,0-17.444-4.565ZM-10.231.166a3.924,3.924,0,0,1-2.972-1.2,4.452,4.452,0,0,1-1.146-3.208v-.282a5.39,5.39,0,0,1,.51-2.386A3.982,3.982,0,0,1-12.41-8.554a3.59,3.59,0,0,1,1.988-.594A3.364,3.364,0,0,1-7.7-7.994a5,5,0,0,1,.971,3.3v.639h-6.084a3.193,3.193,0,0,0,.776,2.146,2.44,2.44,0,0,0,1.888.818A2.675,2.675,0,0,0-8.77-1.419a3.462,3.462,0,0,0,.988-.88l.938.73A3.772,3.772,0,0,1-10.231.166Zm-.191-8.052a2.048,2.048,0,0,0-1.561.677,3.288,3.288,0,0,0-.78,1.9h4.5v-.116a2.925,2.925,0,0,0-.631-1.814A1.928,1.928,0,0,0-10.422-7.886ZM-.61-7.6a4.6,4.6,0,0,0-.755-.058,2.024,2.024,0,0,0-2.05,1.287V0H-4.951V-8.981h1.494l.025,1.038a2.391,2.391,0,0,1,2.142-1.2,1.569,1.569,0,0,1,.681.116Zm4.524,5.52,2.225-6.9H7.707L4.487,0H3.316L.062-8.981H1.631ZM10.853,0H9.318V-8.981h1.536ZM9.193-11.364a.917.917,0,0,1,.228-.631.857.857,0,0,1,.677-.257.87.87,0,0,1,.681.257.907.907,0,0,1,.232.631.877.877,0,0,1-.232.623.886.886,0,0,1-.681.249.872.872,0,0,1-.677-.249A.886.886,0,0,1,9.193-11.364ZM18.54-2.382a1.131,1.131,0,0,0-.469-.967,4.514,4.514,0,0,0-1.635-.594,7.731,7.731,0,0,1-1.851-.6,2.633,2.633,0,0,1-1.013-.83,1.986,1.986,0,0,1-.328-1.146,2.33,2.33,0,0,1,.934-1.868,3.647,3.647,0,0,1,2.386-.764,3.753,3.753,0,0,1,2.478.789,2.5,2.5,0,0,1,.95,2.017H18.448a1.386,1.386,0,0,0-.535-1.087,2.006,2.006,0,0,0-1.349-.457,2.1,2.1,0,0,0-1.312.365,1.15,1.15,0,0,0-.473.955.932.932,0,0,0,.44.838,5.413,5.413,0,0,0,1.59.54,8.283,8.283,0,0,1,1.864.614,2.718,2.718,0,0,1,1.058.859,2.112,2.112,0,0,1,.344,1.224,2.3,2.3,0,0,1-.963,1.93,4.039,4.039,0,0,1-2.5.726A4.523,4.523,0,0,1,14.7-.216a3.105,3.105,0,0,1-1.3-1.067,2.571,2.571,0,0,1-.469-1.482h1.536a1.59,1.59,0,0,0,.618,1.224,2.4,2.4,0,0,0,1.523.452,2.476,2.476,0,0,0,1.4-.353A1.084,1.084,0,0,0,18.54-2.382ZM23.744,0H22.209V-8.981h1.536Zm-1.66-11.364a.917.917,0,0,1,.228-.631.857.857,0,0,1,.677-.257.87.87,0,0,1,.681.257.907.907,0,0,1,.232.631.877.877,0,0,1-.232.623.886.886,0,0,1-.681.249.872.872,0,0,1-.677-.249A.886.886,0,0,1,22.084-11.364Zm3.71,6.79a5.3,5.3,0,0,1,.519-2.374,3.87,3.87,0,0,1,1.444-1.627,3.932,3.932,0,0,1,2.113-.573,3.788,3.788,0,0,1,2.968,1.27A4.886,4.886,0,0,1,33.971-4.5v.108a5.351,5.351,0,0,1-.5,2.353A3.813,3.813,0,0,1,32.033-.415a3.977,3.977,0,0,1-2.146.581A3.778,3.778,0,0,1,26.928-1.1a4.861,4.861,0,0,1-1.133-3.362Zm1.544.183a3.842,3.842,0,0,0,.693,2.4,2.218,2.218,0,0,0,1.855.9A2.2,2.2,0,0,0,31.746-2a4.2,4.2,0,0,0,.689-2.569,3.836,3.836,0,0,0-.7-2.395,2.23,2.23,0,0,0-1.864-.917,2.205,2.205,0,0,0-1.834.9A4.17,4.17,0,0,0,27.339-4.391Zm3.229-8.342h1.859L30.2-10.293l-1.237,0Zm6.782,3.752.05,1.129a3.273,3.273,0,0,1,2.689-1.295q2.847,0,2.872,3.212V0H41.425V-5.943a2.068,2.068,0,0,0-.444-1.436,1.78,1.78,0,0,0-1.357-.465,2.216,2.216,0,0,0-1.312.4,2.706,2.706,0,0,0-.88,1.046V0H35.9V-8.981Z" transform="translate(125.742 36.599)" fill="#fff"/>
        <g id="LOV5LS.tif" transform="translate(-721.218 -133.591)">
          <g id="Grupo_161582" data-name="Grupo 161582" transform="translate(725.863 141.963)">
            <path id="Trazado_199665" data-name="Trazado 199665" d="M770.623,143.676v24.008a2.436,2.436,0,0,1-2.661,1.729c-3.275-.049-6.552-.016-9.828-.016h-.506c0,1.3-.008,2.55.006,3.8,0,.283-.051.43-.366.485-.449.078-.887.222-1.355.344l.864,1.471-3.874,3.891-1.488-.879c-.114.463-.238.866-.308,1.278-.063.369-.238.464-.6.455-1.108-.027-2.216-.01-3.245-.01.09,1.11.21,2.18.254,3.254s.011,2.164.011,3.246H725.868c0-1.218-.014-2.436,0-3.654a10.514,10.514,0,0,1,4.556-8.763,27.18,27.18,0,0,1,2.918-1.629c-.007-.006-.069-.067-.136-.121a5.737,5.737,0,0,1-.37-8.9.8.8,0,0,0,.25-.672q0-9.384,0-18.769a2.14,2.14,0,0,1,2.262-2.259q16.509,0,33.017,0a2.727,2.727,0,0,1,.623.065A2.294,2.294,0,0,1,770.623,143.676Zm-33.178,2.641v15.9a5.893,5.893,0,0,1,4.162,2.681c.076.116.332.159.5.16q11.84.011,23.681.007h.476V146.317Zm5.08,21.625h25.583c.844,0,1.058-.217,1.058-1.072q0-11.191,0-22.382c0-.854-.214-1.071-1.058-1.071H735.582c-.817,0-1.039.223-1.039,1.044q0,8.8,0,17.6v.481a5.338,5.338,0,0,1,.989-.256c.4-.025.436-.22.435-.552q-.013-8.167-.006-16.335v-.534H767.72v21.668H742.34Zm-1.509.018a4.321,4.321,0,1,0-4.35,4.316A4.357,4.357,0,0,0,741.016,167.961Zm-1.023,4.778c3.674,1.638,4.307,2.207,6.564,5.848a.392.392,0,0,0,.269.173c.99.012,1.979.008,2.987.008.131-.5.233-.987.389-1.452a.989.989,0,0,1,.373-.436.854.854,0,0,1,1.142.068c.17.143.393.222.573.356a.491.491,0,0,0,.79-.084c.286-.346.635-.639.948-.964s.775-.605.829-.959c.05-.324-.355-.722-.568-1.083a.923.923,0,0,1,.639-1.485l1.21-.3v-2.98h-2.986a5,5,0,0,1-1.965,5.517,4.7,4.7,0,0,1-5.308.352c-2.306-1.273-3.05-3.327-2.553-5.867-.948-.091-.953-.093-1.278.714A6.032,6.032,0,0,1,739.994,172.739Zm-8.663,2.79a9.117,9.117,0,0,0-2.626,2.805,11.329,11.329,0,0,0-1.339,6.644c0,.092.2.246.315.254.434.03.872-.009,1.306.019.366.024.462-.116.458-.467-.016-1.548-.007-3.1-.007-4.644V179.5h1.522v.559c0,1.578.01,3.156-.008,4.734,0,.362.112.465.466.46,1.217-.019,2.434-.006,3.651-.009.124,0,.247-.023.42-.041Zm12.6,3.968c.008.188.022.349.022.51,0,1.593.01,3.186-.006,4.779,0,.353.1.491.459.465a10.535,10.535,0,0,1,1.216,0c.306.014.445-.081.424-.407s0-.661,0-.992a10.747,10.747,0,0,0-.819-4.476,9.307,9.307,0,0,0-3.159-3.85l-4.163,9.689c.194.015.309.031.425.031,1.217,0,2.434-.011,3.651.008.357.006.467-.1.464-.462-.017-1.593-.007-3.186-.007-4.779V179.5Zm7.939-8.761c-.05-.249-.124-.585-.182-.924-.054-.319-.211-.426-.548-.423-1.939.018-3.879.015-5.818,0a.435.435,0,0,0-.509.36,3.463,3.463,0,0,0,1.014,3.739,3.38,3.38,0,0,0,3.889.625A3.613,3.613,0,0,0,751.869,170.736Zm-11.6,3.73c-.7,1.931-1.9,2.884-3.593,2.88-1.665,0-2.877-.982-3.552-2.886l-.494.231,4.067,9.457,4.067-9.46Zm-3.561-.764c-.593.074-1.187.153-1.783.22-.279.031-.348.167-.281.428a2.137,2.137,0,0,0,4.106-.011c.057-.232.015-.379-.249-.411C737.906,173.855,737.312,173.778,736.707,173.7Z" transform="translate(-725.863 -141.963)" fill="#12263f"/>
            <path id="Trazado_199666" data-name="Trazado 199666" d="M1102.079,479.149h-8.6v-1.387h8.6Z" transform="translate(-1060.242 -447.401)" fill="#12263f"/>
            <path id="Trazado_199667" data-name="Trazado 199667" d="M1093.411,510.968v-1.384h8.617v1.384Z" transform="translate(-1060.179 -476.346)" fill="#12263f"/>
            <path id="Trazado_199668" data-name="Trazado 199668" d="M1110.909,542.993h-1.368v-1.4h1.368Z" transform="translate(-1074.851 -505.46)" fill="#12263f"/>
            <path id="Trazado_199669" data-name="Trazado 199669" d="M1142.753,543.045h-1.383V541.66h1.383Z" transform="translate(-1103.802 -505.522)" fill="#12263f"/>
            <path id="Trazado_199670" data-name="Trazado 199670" d="M1173.253,542.993v-1.385h1.393v1.385Z" transform="translate(-1132.802 -505.474)" fill="#12263f"/>
            <path id="Trazado_199671" data-name="Trazado 199671" d="M890.794,213.3v1.436H895.8v7.218H884.322v-7.182h4.989v-1.436h-5.018v-2.885h-2.879v2.837H869.87v-7.161h11.521v2.831h2.879v-2.838h11.543v7.18Zm-5.025-5.731v4.261h8.582v-4.261Zm-.008,12.918h8.582v-4.236h-8.582Zm-5.843-12.913h-8.591v4.261h8.591Z" transform="translate(-856.85 -200.315)" fill="#12263f"/>
            <path id="Trazado_199672" data-name="Trazado 199672" d="M880.077,333.946v1.39H870.028v-1.39Z" transform="translate(-856.993 -316.588)" fill="#12263f"/>
            <path id="Trazado_199673" data-name="Trazado 199673" d="M916.315,365.813V367.2h-6.446v-1.388Z" transform="translate(-893.232 -345.574)" fill="#12263f"/>
            <path id="Trazado_199674" data-name="Trazado 199674" d="M903.346,303.426h-1.378v-1.4h1.378Z" transform="translate(-886.046 -287.551)" fill="#12263f"/>
            <path id="Trazado_199675" data-name="Trazado 199675" d="M935.211,301.938v1.386h-1.394v-1.386Z" transform="translate(-915.015 -287.474)" fill="#12263f"/>
            <path id="Trazado_199676" data-name="Trazado 199676" d="M965.815,301.847H967.2v1.4h-1.383Z" transform="translate(-944.12 -287.391)" fill="#12263f"/>
            <path id="Trazado_199677" data-name="Trazado 199677" d="M1067.179,237.966h-2.86v1.4h2.86Zm-4.342,1.415v-1.42h-1.41v1.42Z" transform="translate(-1031.086 -229.281)" fill="#12263f"/>
            <path id="Trazado_199678" data-name="Trazado 199678" d="M908.257,238h-6.473v1.4h6.473Z" transform="translate(-885.879 -229.314)" fill="#12263f"/>
            <path id="Trazado_199679" data-name="Trazado 199679" d="M1096.273,238.012v1.4h-2.861v-1.4Z" transform="translate(-1060.181 -229.328)" fill="#12263f"/>
            <path id="Trazado_199680" data-name="Trazado 199680" d="M1062.836,239.381h-1.41v-1.42h1.41Z" transform="translate(-1031.086 -229.281)" fill="#12263f"/>
            <path id="Trazado_199681" data-name="Trazado 199681" d="M1061.286,335.231v-1.4h5.751v1.4Z" transform="translate(-1030.959 -316.48)" fill="#12263f"/>
            <path id="Trazado_199682" data-name="Trazado 199682" d="M908.257,238v1.4h-6.473V238Z" transform="translate(-885.879 -229.314)" fill="#12263f"/>
          </g>
        </g>
      </g>
    </g>
    <g id="Rectángulo_46660" data-name="Rectángulo 46660" transform="translate(753.676 2134.707)" stroke="#039be5" stroke-width="4" fill="url(#linear-gradient-5)">
      <rect width="159.464" height="60.061" rx="10" stroke="none"/>
      <rect x="2" y="2" width="155.464" height="56.061" rx="8" fill="none"/>
    </g>
    <g id="Rectángulo_46661" data-name="Rectángulo 46661" transform="translate(754.212 2383.231)" stroke="#039be5" stroke-width="4" fill="url(#linear-gradient-5)">
      <rect width="159.464" height="60.061" rx="10" stroke="none"/>
      <rect x="2" y="2" width="155.464" height="56.061" rx="8" fill="none"/>
    </g>
    <g id="Rectángulo_46662" data-name="Rectángulo 46662" transform="translate(958.212 2383.231)" stroke="#039be5" stroke-width="4" fill="url(#linear-gradient-5)">
      <rect width="159.464" height="60.061" rx="10" stroke="none"/>
      <rect x="2" y="2" width="155.464" height="56.061" rx="8" fill="none"/>
    </g>
    <path id="Trazado_199859" data-name="Trazado 199859" d="M-52.926-12.086l3.951,9.861,3.951-9.861h2.067V0H-44.55V-4.707l.149-5.08L-48.369,0h-1.22l-3.959-9.762.158,5.055V0h-1.594V-12.086ZM-40.79-4.574a5.3,5.3,0,0,1,.519-2.374,3.87,3.87,0,0,1,1.444-1.627,3.932,3.932,0,0,1,2.113-.573,3.788,3.788,0,0,1,2.968,1.27A4.886,4.886,0,0,1-32.614-4.5v.108a5.351,5.351,0,0,1-.5,2.353A3.813,3.813,0,0,1-34.552-.415,3.977,3.977,0,0,1-36.7.166,3.778,3.778,0,0,1-39.657-1.1,4.861,4.861,0,0,1-40.79-4.466Zm1.544.183a3.842,3.842,0,0,0,.693,2.4,2.218,2.218,0,0,0,1.855.9A2.2,2.2,0,0,0-34.838-2a4.2,4.2,0,0,0,.689-2.569,3.836,3.836,0,0,0-.7-2.395,2.23,2.23,0,0,0-1.864-.917,2.205,2.205,0,0,0-1.834.9A4.17,4.17,0,0,0-39.246-4.391Zm10.011-4.59.05,1.129A3.273,3.273,0,0,1-26.5-9.147q2.847,0,2.872,3.212V0H-25.16V-5.943A2.068,2.068,0,0,0-25.6-7.379a1.78,1.78,0,0,0-1.357-.465,2.216,2.216,0,0,0-1.312.4,2.706,2.706,0,0,0-.88,1.046V0h-1.536V-8.981ZM-19.64,0h-1.536V-8.981h1.536ZM-21.3-11.364a.917.917,0,0,1,.228-.631.857.857,0,0,1,.677-.257.87.87,0,0,1,.681.257.907.907,0,0,1,.232.631.877.877,0,0,1-.232.623.886.886,0,0,1-.681.249.872.872,0,0,1-.677-.249A.886.886,0,0,1-21.3-11.364Zm6.2.208v2.175h1.677v1.187H-15.1v5.577a1.247,1.247,0,0,0,.224.81.943.943,0,0,0,.764.27,3.718,3.718,0,0,0,.73-.1V0A4.478,4.478,0,0,1-14.56.166a1.912,1.912,0,0,1-1.552-.623,2.675,2.675,0,0,1-.523-1.768v-5.57H-18.27V-8.981h1.635v-2.175Zm2.9,6.583a5.3,5.3,0,0,1,.519-2.374,3.87,3.87,0,0,1,1.444-1.627,3.932,3.932,0,0,1,2.113-.573,3.788,3.788,0,0,1,2.968,1.27A4.886,4.886,0,0,1-4.026-4.5v.108a5.351,5.351,0,0,1-.5,2.353A3.813,3.813,0,0,1-5.964-.415,3.977,3.977,0,0,1-8.11.166,3.778,3.778,0,0,1-11.069-1.1,4.861,4.861,0,0,1-12.2-4.466Zm1.544.183a3.842,3.842,0,0,0,.693,2.4,2.218,2.218,0,0,0,1.855.9A2.2,2.2,0,0,0-6.25-2a4.2,4.2,0,0,0,.689-2.569,3.836,3.836,0,0,0-.7-2.395,2.23,2.23,0,0,0-1.864-.917,2.205,2.205,0,0,0-1.834.9A4.17,4.17,0,0,0-10.658-4.391ZM2.241-7.6a4.6,4.6,0,0,0-.755-.058A2.024,2.024,0,0,0-.564-6.375V0H-2.1V-8.981H-.606l.025,1.038a2.391,2.391,0,0,1,2.142-1.2,1.569,1.569,0,0,1,.681.116ZM5.321,0H3.785V-8.981H5.321ZM3.661-11.364a.917.917,0,0,1,.228-.631.857.857,0,0,1,.677-.257.87.87,0,0,1,.681.257.907.907,0,0,1,.232.631.877.877,0,0,1-.232.623.886.886,0,0,1-.681.249.872.872,0,0,1-.677-.249A.886.886,0,0,1,3.661-11.364ZM9.222-1.253h5.254V0H7.346V-1.129L12.3-7.711H7.421v-1.27h6.807v1.087ZM21.748,0a3.226,3.226,0,0,1-.216-.946A3.426,3.426,0,0,1,18.976.166,3.17,3.17,0,0,1,16.8-.585a2.43,2.43,0,0,1-.851-1.905,2.539,2.539,0,0,1,1.067-2.179,5.029,5.029,0,0,1,3-.776h1.494v-.706a1.725,1.725,0,0,0-.481-1.282,1.935,1.935,0,0,0-1.419-.477,2.239,2.239,0,0,0-1.378.415,1.223,1.223,0,0,0-.556,1H16.128a2.119,2.119,0,0,1,.477-1.3A3.258,3.258,0,0,1,17.9-8.782a4.356,4.356,0,0,1,1.8-.365,3.551,3.551,0,0,1,2.432.776,2.8,2.8,0,0,1,.913,2.137V-2.1a5.054,5.054,0,0,0,.315,1.967V0ZM19.2-1.17a2.7,2.7,0,0,0,1.37-.374,2.259,2.259,0,0,0,.938-.971V-4.358H20.3q-2.822,0-2.822,1.652a1.4,1.4,0,0,0,.481,1.129A1.85,1.85,0,0,0,19.2-1.17Zm9.853.083a2.212,2.212,0,0,0,1.436-.5,1.752,1.752,0,0,0,.681-1.245h1.453a2.785,2.785,0,0,1-.531,1.469A3.5,3.5,0,0,1,30.783-.249a3.772,3.772,0,0,1-1.731.415,3.7,3.7,0,0,1-2.918-1.224,4.877,4.877,0,0,1-1.083-3.349v-.257A5.407,5.407,0,0,1,25.533-7a3.667,3.667,0,0,1,1.382-1.585,3.926,3.926,0,0,1,2.129-.564,3.6,3.6,0,0,1,2.511.9,3.234,3.234,0,0,1,1.067,2.349H31.169a2.116,2.116,0,0,0-.66-1.432,2.053,2.053,0,0,0-1.465-.56,2.149,2.149,0,0,0-1.814.843,3.957,3.957,0,0,0-.643,2.436v.291a3.878,3.878,0,0,0,.639,2.391A2.16,2.16,0,0,0,29.053-1.087ZM36.017,0H34.481V-8.981h1.536Zm-1.66-11.364a.917.917,0,0,1,.228-.631.857.857,0,0,1,.677-.257.87.87,0,0,1,.681.257.907.907,0,0,1,.232.631.877.877,0,0,1-.232.623.886.886,0,0,1-.681.249.872.872,0,0,1-.677-.249A.886.886,0,0,1,34.357-11.364Zm3.71,6.79a5.3,5.3,0,0,1,.519-2.374,3.87,3.87,0,0,1,1.444-1.627,3.932,3.932,0,0,1,2.113-.573,3.788,3.788,0,0,1,2.968,1.27A4.886,4.886,0,0,1,46.244-4.5v.108a5.351,5.351,0,0,1-.5,2.353A3.813,3.813,0,0,1,44.305-.415,3.977,3.977,0,0,1,42.16.166,3.778,3.778,0,0,1,39.2-1.1a4.861,4.861,0,0,1-1.133-3.362Zm1.544.183a3.842,3.842,0,0,0,.693,2.4,2.218,2.218,0,0,0,1.855.9A2.2,2.2,0,0,0,44.019-2a4.2,4.2,0,0,0,.689-2.569,3.836,3.836,0,0,0-.7-2.395,2.23,2.23,0,0,0-1.864-.917,2.205,2.205,0,0,0-1.834.9A4.17,4.17,0,0,0,39.611-4.391Zm3.229-8.342H44.7l-2.225,2.44-1.237,0Zm6.782,3.752.05,1.129a3.273,3.273,0,0,1,2.689-1.295q2.847,0,2.872,3.212V0H53.7V-5.943a2.068,2.068,0,0,0-.444-1.436A1.78,1.78,0,0,0,51.9-7.844a2.216,2.216,0,0,0-1.312.4,2.706,2.706,0,0,0-.88,1.046V0H48.169V-8.981Zm-98.3,24.732,2.092-6.732h1.644l-3.611,10.368q-.838,2.241-2.665,2.241l-.291-.025-.573-.108V20.25l.415.033a2.043,2.043,0,0,0,1.216-.315,2.283,2.283,0,0,0,.718-1.154l.34-.913-3.2-8.882h1.677Zm14.543-.133a1.13,1.13,0,0,0-.469-.967,4.514,4.514,0,0,0-1.635-.594,7.731,7.731,0,0,1-1.851-.6,2.633,2.633,0,0,1-1.013-.83,1.986,1.986,0,0,1-.328-1.146,2.33,2.33,0,0,1,.934-1.868,3.647,3.647,0,0,1,2.386-.764,3.753,3.753,0,0,1,2.478.789,2.5,2.5,0,0,1,.95,2.017h-1.544a1.386,1.386,0,0,0-.535-1.087,2.006,2.006,0,0,0-1.349-.457,2.1,2.1,0,0,0-1.312.365,1.15,1.15,0,0,0-.473.955.932.932,0,0,0,.44.838,5.413,5.413,0,0,0,1.59.54A8.283,8.283,0,0,1-34,13.426a2.718,2.718,0,0,1,1.058.859A2.112,2.112,0,0,1-32.6,15.51a2.3,2.3,0,0,1-.963,1.93,4.039,4.039,0,0,1-2.5.726,4.523,4.523,0,0,1-1.909-.382,3.105,3.105,0,0,1-1.3-1.067,2.571,2.571,0,0,1-.469-1.482H-38.2a1.59,1.59,0,0,0,.618,1.224,2.4,2.4,0,0,0,1.523.452,2.476,2.476,0,0,0,1.4-.353A1.084,1.084,0,0,0-34.133,15.618Zm7.263,2.548a3.924,3.924,0,0,1-2.972-1.2,4.452,4.452,0,0,1-1.146-3.208v-.282a5.39,5.39,0,0,1,.51-2.386,3.982,3.982,0,0,1,1.428-1.644,3.59,3.59,0,0,1,1.988-.594,3.364,3.364,0,0,1,2.723,1.154,5,5,0,0,1,.971,3.3v.639h-6.084a3.193,3.193,0,0,0,.776,2.146,2.44,2.44,0,0,0,1.888.818,2.675,2.675,0,0,0,1.378-.332,3.462,3.462,0,0,0,.988-.88l.938.73A3.772,3.772,0,0,1-26.87,18.166Zm-.191-8.052a2.048,2.048,0,0,0-1.561.677,3.288,3.288,0,0,0-.78,1.9h4.5v-.116a2.925,2.925,0,0,0-.631-1.814A1.928,1.928,0,0,0-27.061,10.114Zm5.1,3.32a5.279,5.279,0,0,1,.971-3.341,3.106,3.106,0,0,1,2.573-1.241,3.09,3.09,0,0,1,2.565,1.162l.075-1h1.4v8.766A3.654,3.654,0,0,1-15.4,20.532a3.814,3.814,0,0,1-2.777,1,4.619,4.619,0,0,1-1.9-.415A3.272,3.272,0,0,1-21.5,19.984l.8-.921a3,3,0,0,0,2.416,1.22,2.353,2.353,0,0,0,1.747-.631,2.411,2.411,0,0,0,.627-1.776V17.1a3.156,3.156,0,0,1-2.515,1.063A3.068,3.068,0,0,1-20.98,16.9,5.55,5.55,0,0,1-21.956,13.435Zm1.544.174A4.027,4.027,0,0,0-19.789,16a2.023,2.023,0,0,0,1.743.867,2.249,2.249,0,0,0,2.133-1.32v-4.1a2.276,2.276,0,0,0-2.117-1.287,2.041,2.041,0,0,0-1.751.872A4.386,4.386,0,0,0-20.412,13.609Zm13.9,3.5a3.262,3.262,0,0,1-2.631,1.054,2.792,2.792,0,0,1-2.187-.834,3.611,3.611,0,0,1-.76-2.469V9.019h1.536v5.8q0,2.042,1.66,2.042a2.3,2.3,0,0,0,2.341-1.312V9.019h1.536V18H-6.475Zm5.5.888H-2.548V9.019h1.536ZM-2.673,6.636a.917.917,0,0,1,.228-.631.857.857,0,0,1,.677-.257.87.87,0,0,1,.681.257.907.907,0,0,1,.232.631.877.877,0,0,1-.232.623.886.886,0,0,1-.681.249.872.872,0,0,1-.677-.249A.886.886,0,0,1-2.673,6.636ZM2.889,9.019l.042,1A3.317,3.317,0,0,1,5.595,8.853,2.568,2.568,0,0,1,8.16,10.3,3.4,3.4,0,0,1,9.326,9.251a3.445,3.445,0,0,1,1.7-.4q2.955,0,3,3.129V18H12.493V12.073a2.062,2.062,0,0,0-.44-1.44,1.937,1.937,0,0,0-1.478-.477,2.036,2.036,0,0,0-1.419.51A2.071,2.071,0,0,0,8.5,12.04V18H6.956V12.115a1.713,1.713,0,0,0-1.917-1.959,2.055,2.055,0,0,0-2.067,1.287V18H1.436V9.019ZM18.013,18H16.477V9.019h1.536ZM16.353,6.636a.917.917,0,0,1,.228-.631.857.857,0,0,1,.677-.257.87.87,0,0,1,.681.257.907.907,0,0,1,.232.631.877.877,0,0,1-.232.623.886.886,0,0,1-.681.249.872.872,0,0,1-.677-.249A.886.886,0,0,1,16.353,6.636ZM24.2,18.166a3.924,3.924,0,0,1-2.972-1.2,4.452,4.452,0,0,1-1.146-3.208v-.282a5.39,5.39,0,0,1,.51-2.386,3.982,3.982,0,0,1,1.428-1.644,3.59,3.59,0,0,1,1.988-.594,3.364,3.364,0,0,1,2.723,1.154,5,5,0,0,1,.971,3.3v.639H21.615a3.193,3.193,0,0,0,.776,2.146,2.44,2.44,0,0,0,1.888.818,2.675,2.675,0,0,0,1.378-.332,3.462,3.462,0,0,0,.988-.88l.938.73A3.772,3.772,0,0,1,24.2,18.166Zm-.191-8.052a2.048,2.048,0,0,0-1.561.677,3.288,3.288,0,0,0-.78,1.9h4.5v-.116a2.925,2.925,0,0,0-.631-1.814A1.928,1.928,0,0,0,24.006,10.114Zm6.923-1.1.05,1.129a3.273,3.273,0,0,1,2.689-1.295q2.847,0,2.872,3.212V18H35V12.057a2.068,2.068,0,0,0-.444-1.436,1.78,1.78,0,0,0-1.357-.465,2.216,2.216,0,0,0-1.312.4,2.706,2.706,0,0,0-.88,1.046V18H29.476V9.019ZM40.939,6.844V9.019h1.677v1.187H40.939v5.577a1.247,1.247,0,0,0,.224.81.943.943,0,0,0,.764.27,3.718,3.718,0,0,0,.73-.1V18a4.478,4.478,0,0,1-1.179.165,1.912,1.912,0,0,1-1.552-.623,2.675,2.675,0,0,1-.523-1.768v-5.57H37.769V9.019H39.4V6.844Zm2.9,6.583a5.3,5.3,0,0,1,.519-2.374A3.87,3.87,0,0,1,45.8,9.425a3.932,3.932,0,0,1,2.113-.573,3.788,3.788,0,0,1,2.968,1.27A4.886,4.886,0,0,1,52.013,13.5v.108a5.351,5.351,0,0,1-.5,2.353,3.813,3.813,0,0,1-1.436,1.623,3.977,3.977,0,0,1-2.146.581,3.778,3.778,0,0,1-2.959-1.27,4.861,4.861,0,0,1-1.133-3.362Zm1.544.183a3.842,3.842,0,0,0,.693,2.4A2.349,2.349,0,0,0,49.788,16a4.2,4.2,0,0,0,.689-2.569,3.836,3.836,0,0,0-.7-2.395,2.23,2.23,0,0,0-1.864-.917,2.205,2.205,0,0,0-1.834.9A4.17,4.17,0,0,0,45.38,13.609Z" transform="translate(832.676 2161.306)" fill="#12263f"/>
    <path id="Trazado_199864" data-name="Trazado 199864" d="M-41.022-1.585A3.682,3.682,0,0,1-42.737-.27,6.924,6.924,0,0,1-45.3.166,4.966,4.966,0,0,1-47.92-.527,4.618,4.618,0,0,1-49.693-2.5a6.809,6.809,0,0,1-.643-2.963V-6.516a6.356,6.356,0,0,1,1.274-4.233,4.44,4.44,0,0,1,3.582-1.5,4.586,4.586,0,0,1,3.046.967,4.213,4.213,0,0,1,1.411,2.743h-1.594a2.635,2.635,0,0,0-2.855-2.407A2.821,2.821,0,0,0-47.9-9.823a5.5,5.5,0,0,0-.834,3.261v.989a5.151,5.151,0,0,0,.93,3.236,3.014,3.014,0,0,0,2.515,1.2,5.555,5.555,0,0,0,1.569-.2,2.426,2.426,0,0,0,1.112-.671V-4.715h-2.8v-1.3h4.383ZM-34.88.166a3.924,3.924,0,0,1-2.972-1.2A4.452,4.452,0,0,1-39-4.242v-.282a5.39,5.39,0,0,1,.51-2.386,3.982,3.982,0,0,1,1.428-1.644,3.59,3.59,0,0,1,1.988-.594,3.364,3.364,0,0,1,2.723,1.154,5,5,0,0,1,.971,3.3v.639h-6.084a3.193,3.193,0,0,0,.776,2.146,2.44,2.44,0,0,0,1.888.818,2.675,2.675,0,0,0,1.378-.332,3.462,3.462,0,0,0,.988-.88l.938.73A3.772,3.772,0,0,1-34.88.166Zm-.191-8.052a2.048,2.048,0,0,0-1.561.677,3.288,3.288,0,0,0-.78,1.9h4.5v-.116a2.925,2.925,0,0,0-.631-1.814A1.928,1.928,0,0,0-35.071-7.886Zm10.7,5.5a1.131,1.131,0,0,0-.469-.967,4.514,4.514,0,0,0-1.635-.594,7.731,7.731,0,0,1-1.851-.6,2.633,2.633,0,0,1-1.013-.83,1.986,1.986,0,0,1-.328-1.146,2.33,2.33,0,0,1,.934-1.868,3.647,3.647,0,0,1,2.386-.764,3.753,3.753,0,0,1,2.478.789,2.5,2.5,0,0,1,.95,2.017h-1.544A1.386,1.386,0,0,0-25-7.429a2.006,2.006,0,0,0-1.349-.457,2.1,2.1,0,0,0-1.312.365,1.15,1.15,0,0,0-.473.955.932.932,0,0,0,.44.838,5.413,5.413,0,0,0,1.59.54,8.283,8.283,0,0,1,1.864.614,2.718,2.718,0,0,1,1.058.859,2.112,2.112,0,0,1,.344,1.224A2.3,2.3,0,0,1-23.8-.56a4.039,4.039,0,0,1-2.5.726,4.523,4.523,0,0,1-1.909-.382,3.105,3.105,0,0,1-1.3-1.067,2.571,2.571,0,0,1-.469-1.482h1.536A1.59,1.59,0,0,0-27.82-1.54a2.4,2.4,0,0,0,1.523.452,2.476,2.476,0,0,0,1.4-.353A1.084,1.084,0,0,0-24.371-2.382Zm5.62-8.774v2.175h1.677v1.187h-1.677v5.577a1.247,1.247,0,0,0,.224.81.943.943,0,0,0,.764.27,3.718,3.718,0,0,0,.73-.1V0a4.478,4.478,0,0,1-1.179.165,1.912,1.912,0,0,1-1.552-.623,2.675,2.675,0,0,1-.523-1.768v-5.57h-1.635V-8.981h1.635v-2.175ZM-13.613,0h-1.536V-8.981h1.536Zm-1.66-11.364a.917.917,0,0,1,.228-.631.857.857,0,0,1,.677-.257.87.87,0,0,1,.681.257.907.907,0,0,1,.232.631.877.877,0,0,1-.232.623.886.886,0,0,1-.681.249.872.872,0,0,1-.677-.249A.886.886,0,0,1-15.273-11.364Zm3.71,6.79a5.3,5.3,0,0,1,.519-2.374A3.87,3.87,0,0,1-9.6-8.575a3.932,3.932,0,0,1,2.113-.573A3.788,3.788,0,0,1-4.52-7.877,4.886,4.886,0,0,1-3.387-4.5v.108a5.351,5.351,0,0,1-.5,2.353A3.813,3.813,0,0,1-5.325-.415,3.977,3.977,0,0,1-7.471.166,3.778,3.778,0,0,1-10.43-1.1a4.861,4.861,0,0,1-1.133-3.362Zm1.544.183a3.842,3.842,0,0,0,.693,2.4,2.218,2.218,0,0,0,1.855.9A2.2,2.2,0,0,0-5.611-2a4.2,4.2,0,0,0,.689-2.569,3.836,3.836,0,0,0-.7-2.395,2.23,2.23,0,0,0-1.864-.917,2.205,2.205,0,0,0-1.834.9A4.17,4.17,0,0,0-10.019-4.391Zm3.229-8.342h1.859l-2.225,2.44-1.237,0ZM-.008-8.981l.05,1.129A3.273,3.273,0,0,1,2.731-9.147q2.847,0,2.872,3.212V0H4.067V-5.943a2.068,2.068,0,0,0-.444-1.436,1.78,1.78,0,0,0-1.357-.465,2.216,2.216,0,0,0-1.312.4A2.706,2.706,0,0,0,.075-6.4V0H-1.461V-8.981ZM11.754-4.565a5.261,5.261,0,0,1,.979-3.324A3.1,3.1,0,0,1,15.3-9.147a3.115,3.115,0,0,1,2.5,1.079V-12.75h1.536V0H17.921l-.075-.963A3.127,3.127,0,0,1,15.282.166a3.068,3.068,0,0,1-2.544-1.278,5.321,5.321,0,0,1-.984-3.337Zm1.536.174A3.984,3.984,0,0,0,13.92-2a2.039,2.039,0,0,0,1.743.863A2.24,2.24,0,0,0,17.8-2.449V-6.574a2.257,2.257,0,0,0-2.117-1.27,2.049,2.049,0,0,0-1.76.872A4.386,4.386,0,0,0,13.29-4.391ZM25.442.166a3.924,3.924,0,0,1-2.972-1.2,4.452,4.452,0,0,1-1.146-3.208v-.282a5.39,5.39,0,0,1,.51-2.386,3.982,3.982,0,0,1,1.428-1.644,3.59,3.59,0,0,1,1.988-.594,3.364,3.364,0,0,1,2.723,1.154,5,5,0,0,1,.971,3.3v.639H22.86a3.193,3.193,0,0,0,.776,2.146,2.44,2.44,0,0,0,1.888.818A2.675,2.675,0,0,0,26.9-1.419a3.462,3.462,0,0,0,.988-.88l.938.73A3.772,3.772,0,0,1,25.442.166Zm-.191-8.052a2.048,2.048,0,0,0-1.561.677,3.288,3.288,0,0,0-.78,1.9h4.5v-.116a2.925,2.925,0,0,0-.631-1.814A1.928,1.928,0,0,0,25.251-7.886ZM36.6,0H35.063V-12.75H36.6Zm8,0a3.226,3.226,0,0,1-.216-.946A3.426,3.426,0,0,1,41.828.166a3.17,3.17,0,0,1-2.179-.751A2.43,2.43,0,0,1,38.8-2.49a2.539,2.539,0,0,1,1.067-2.179,5.029,5.029,0,0,1,3-.776h1.494v-.706a1.725,1.725,0,0,0-.481-1.282,1.935,1.935,0,0,0-1.419-.477,2.239,2.239,0,0,0-1.378.415,1.223,1.223,0,0,0-.556,1H38.98a2.119,2.119,0,0,1,.477-1.3,3.258,3.258,0,0,1,1.295-.992,4.356,4.356,0,0,1,1.8-.365,3.551,3.551,0,0,1,2.432.776A2.8,2.8,0,0,1,45.9-6.234V-2.1A5.054,5.054,0,0,0,46.21-.133V0ZM42.052-1.17a2.7,2.7,0,0,0,1.37-.374,2.259,2.259,0,0,0,.938-.971V-4.358h-1.2q-2.822,0-2.822,1.652a1.4,1.4,0,0,0,.481,1.129A1.85,1.85,0,0,0,42.052-1.17Zm-76.741,14.6a5.261,5.261,0,0,1,.979-3.324,3.1,3.1,0,0,1,2.565-1.258,3.115,3.115,0,0,1,2.5,1.079V5.25h1.536V18h-1.411l-.075-.963a3.127,3.127,0,0,1-2.565,1.129,3.068,3.068,0,0,1-2.544-1.278,5.321,5.321,0,0,1-.984-3.337Zm1.536.174A3.984,3.984,0,0,0-32.522,16a2.039,2.039,0,0,0,1.743.863,2.24,2.24,0,0,0,2.133-1.312V11.426a2.257,2.257,0,0,0-2.117-1.27,2.049,2.049,0,0,0-1.76.872A4.386,4.386,0,0,0-33.153,13.609ZM-21,18.166a3.924,3.924,0,0,1-2.972-1.2,4.452,4.452,0,0,1-1.146-3.208v-.282a5.39,5.39,0,0,1,.51-2.386A3.982,3.982,0,0,1-23.18,9.446a3.59,3.59,0,0,1,1.988-.594,3.364,3.364,0,0,1,2.723,1.154,5,5,0,0,1,.971,3.3v.639h-6.084a3.193,3.193,0,0,0,.776,2.146,2.44,2.44,0,0,0,1.888.818,2.675,2.675,0,0,0,1.378-.332,3.462,3.462,0,0,0,.988-.88l.938.73A3.772,3.772,0,0,1-21,18.166Zm-.191-8.052a2.048,2.048,0,0,0-1.561.677,3.288,3.288,0,0,0-.78,1.9h4.5v-.116a2.925,2.925,0,0,0-.631-1.814A1.928,1.928,0,0,0-21.192,10.114Zm6.915-1.1.042,1a3.317,3.317,0,0,1,2.665-1.162A2.568,2.568,0,0,1-9.006,10.3,3.4,3.4,0,0,1-7.84,9.251a3.445,3.445,0,0,1,1.7-.4q2.955,0,3,3.129V18H-4.673V12.073a2.062,2.062,0,0,0-.44-1.44,1.937,1.937,0,0,0-1.478-.477,2.036,2.036,0,0,0-1.419.51,2.071,2.071,0,0,0-.656,1.374V18H-10.21V12.115a1.713,1.713,0,0,0-1.917-1.959,2.055,2.055,0,0,0-2.067,1.287V18H-15.73V9.019ZM4.723,18a3.226,3.226,0,0,1-.216-.946,3.426,3.426,0,0,1-2.557,1.112,3.17,3.17,0,0,1-2.179-.751,2.43,2.43,0,0,1-.851-1.905A2.539,2.539,0,0,1-.012,13.331a5.029,5.029,0,0,1,3-.776H4.482v-.706A1.725,1.725,0,0,0,4,10.567a1.935,1.935,0,0,0-1.419-.477A2.239,2.239,0,0,0,1.2,10.5a1.223,1.223,0,0,0-.556,1H-.9a2.119,2.119,0,0,1,.477-1.3A3.258,3.258,0,0,1,.876,9.218a4.356,4.356,0,0,1,1.8-.365A3.551,3.551,0,0,1,5.1,9.629a2.8,2.8,0,0,1,.913,2.137V15.9a5.054,5.054,0,0,0,.315,1.967V18ZM2.175,16.83a2.7,2.7,0,0,0,1.37-.374,2.259,2.259,0,0,0,.938-.971V13.642h-1.2q-2.822,0-2.822,1.652a1.4,1.4,0,0,0,.481,1.129A1.85,1.85,0,0,0,2.175,16.83Zm7.7-7.811.05,1.129a3.273,3.273,0,0,1,2.689-1.295q2.847,0,2.872,3.212V18H13.954V12.057a2.068,2.068,0,0,0-.444-1.436,1.78,1.78,0,0,0-1.357-.465,2.216,2.216,0,0,0-1.312.4,2.706,2.706,0,0,0-.88,1.046V18H8.425V9.019Zm7.554,4.416a5.261,5.261,0,0,1,.979-3.324,3.1,3.1,0,0,1,2.565-1.258,3.115,3.115,0,0,1,2.5,1.079V5.25H25.01V18H23.6l-.075-.963a3.127,3.127,0,0,1-2.565,1.129,3.068,3.068,0,0,1-2.544-1.278,5.321,5.321,0,0,1-.984-3.337Zm1.536.174A3.984,3.984,0,0,0,19.6,16a2.039,2.039,0,0,0,1.743.863,2.24,2.24,0,0,0,2.133-1.312V11.426a2.257,2.257,0,0,0-2.117-1.27,2.049,2.049,0,0,0-1.76.872A4.386,4.386,0,0,0,18.967,13.609ZM32.938,18a3.226,3.226,0,0,1-.216-.946,3.426,3.426,0,0,1-2.557,1.112,3.17,3.17,0,0,1-2.179-.751,2.43,2.43,0,0,1-.851-1.905A2.539,2.539,0,0,1,28.2,13.331a5.029,5.029,0,0,1,3-.776H32.7v-.706a1.725,1.725,0,0,0-.481-1.282,1.935,1.935,0,0,0-1.419-.477,2.239,2.239,0,0,0-1.378.415,1.223,1.223,0,0,0-.556,1H27.318a2.119,2.119,0,0,1,.477-1.3,3.258,3.258,0,0,1,1.295-.992,4.356,4.356,0,0,1,1.8-.365,3.551,3.551,0,0,1,2.432.776,2.8,2.8,0,0,1,.913,2.137V15.9a5.054,5.054,0,0,0,.315,1.967V18Zm-2.548-1.17a2.7,2.7,0,0,0,1.37-.374,2.259,2.259,0,0,0,.938-.971V13.642h-1.2q-2.822,0-2.822,1.652a1.4,1.4,0,0,0,.481,1.129A1.85,1.85,0,0,0,30.389,16.83Z" transform="translate(833.212 2409.83)" fill="#12263f"/>
    <path id="Trazado_199865" data-name="Trazado 199865" d="M-6.105-3.835A4.447,4.447,0,0,1-7.521-.876,4.638,4.638,0,0,1-10.687.166,4.259,4.259,0,0,1-14.12-1.37,6.178,6.178,0,0,1-15.41-5.479V-6.641a6.886,6.886,0,0,1,.6-2.963A4.5,4.5,0,0,1-13.1-11.567a4.75,4.75,0,0,1,2.557-.685,4.367,4.367,0,0,1,3.088,1.075A4.5,4.5,0,0,1-6.105-8.2h-1.6a3.472,3.472,0,0,0-.9-2.1,2.725,2.725,0,0,0-1.938-.649,2.851,2.851,0,0,0-2.395,1.13A5.187,5.187,0,0,0-13.808-6.6v1.171A5.332,5.332,0,0,0-12.987-2.3a2.655,2.655,0,0,0,2.3,1.163,3.067,3.067,0,0,0,2.038-.6,3.34,3.34,0,0,0,.942-2.1ZM-3.93,0V-12.086H-.519a5.492,5.492,0,0,1,2.789.7A4.716,4.716,0,0,1,4.142-9.4,6.457,6.457,0,0,1,4.81-6.45v.772a6.48,6.48,0,0,1-.66,3A4.642,4.642,0,0,1,2.266-.706,5.842,5.842,0,0,1-.585,0Zm1.594-10.783V-1.3H-.66A3.648,3.648,0,0,0,2.208-2.45,4.737,4.737,0,0,0,3.233-5.715v-.706a4.812,4.812,0,0,0-.967-3.2A3.441,3.441,0,0,0-.477-10.783ZM7.218,0V-12.086h3.951a4.587,4.587,0,0,1,2.959.813,2.932,2.932,0,0,1,.992,2.407,2.455,2.455,0,0,1-.481,1.5,3.121,3.121,0,0,1-1.312,1.009,2.8,2.8,0,0,1,1.548,1.042,2.99,2.99,0,0,1,.569,1.83A3.232,3.232,0,0,1,14.389-.93a4.36,4.36,0,0,1-2.98.93ZM8.811-5.653V-1.3h2.631A2.534,2.534,0,0,0,13.2-1.88a2.026,2.026,0,0,0,.643-1.59q0-2.183-2.374-2.183Zm0-1.278h2.407a2.523,2.523,0,0,0,1.673-.524,1.757,1.757,0,0,0,.627-1.422,1.728,1.728,0,0,0-.581-1.452,2.853,2.853,0,0,0-1.768-.453H8.811Z" transform="translate(1037.212 2419.83)" fill="#12263f"/>
    <path id="Trazado_199661" data-name="Trazado 199661" d="M-7812.137-9468.582h8.41v-41.93h14.031v41.93h8.766l-16.3,16.3Z" transform="translate(8627.676 11708)" fill="#f59d36"/>
    <g id="Grupo_161576" data-name="Grupo 161576">
      <path id="Trazado_199662" data-name="Trazado 199662" d="M-8116.387-9498.09h8" transform="translate(8723.229 11798.252)" fill="#12263f" stroke="#12263f" stroke-width="1"/>
      <g id="Polígono_80" data-name="Polígono 80" transform="translate(618.229 2297.641) rotate(90)" fill="#12263f">
        <path d="M 4.190985202789307 4.5 L 0.8090149760246277 4.5 L 2.5 1.118029952049255 L 4.190985202789307 4.5 Z" stroke="none"/>
        <path d="M 2.5 2.236069917678833 L 1.618035078048706 4 L 3.381965160369873 4 L 2.5 2.236069917678833 M 2.5 0 L 5 5 L 0 5 L 2.5 0 Z" stroke="none" fill="#12263f"/>
      </g>
    </g>
    <g id="Grupo_161577" data-name="Grupo 161577" transform="translate(221.006)">
      <path id="Trazado_199662-2" data-name="Trazado 199662" d="M-8116.387-9498.09h8" transform="translate(8723.229 11798.252)" fill="#12263f" stroke="#12263f" stroke-width="1"/>
      <g id="Polígono_80-2" data-name="Polígono 80" transform="translate(618.229 2297.641) rotate(90)" fill="#12263f">
        <path d="M 4.190985202789307 4.5 L 0.8090149760246277 4.5 L 2.5 1.118029952049255 L 4.190985202789307 4.5 Z" stroke="none"/>
        <path d="M 2.5 2.236069917678833 L 1.618035078048706 4 L 3.381965160369873 4 L 2.5 2.236069917678833 M 2.5 0 L 5 5 L 0 5 L 2.5 0 Z" stroke="none" fill="#12263f"/>
      </g>
    </g>
    <g id="Grupo_161579" data-name="Grupo 161579" transform="translate(336.006 113.689)">
      <path id="Trazado_199662-3" data-name="Trazado 199662" d="M-8116.387-9498.09h8" transform="translate(8723.229 11798.252)" fill="#12263f" stroke="#12263f" stroke-width="1"/>
      <g id="Polígono_80-3" data-name="Polígono 80" transform="translate(618.229 2297.641) rotate(90)" fill="#12263f">
        <path d="M 4.190985202789307 4.5 L 0.8090149760246277 4.5 L 2.5 1.118029952049255 L 4.190985202789307 4.5 Z" stroke="none"/>
        <path d="M 2.5 2.236069917678833 L 1.618035078048706 4 L 3.381965160369873 4 L 2.5 2.236069917678833 M 2.5 0 L 5 5 L 0 5 L 2.5 0 Z" stroke="none" fill="#12263f"/>
      </g>
    </g>
    <g id="Grupo_161578" data-name="Grupo 161578" transform="translate(441.005)">
      <path id="Trazado_199662-4" data-name="Trazado 199662" d="M-8116.387-9498.09h8" transform="translate(8723.229 11798.252)" fill="#12263f" stroke="#12263f" stroke-width="1"/>
      <g id="Polígono_80-4" data-name="Polígono 80" transform="translate(618.229 2297.641) rotate(90)" fill="#12263f">
        <path d="M 4.190985202789307 4.5 L 0.8090149760246277 4.5 L 2.5 1.118029952049255 L 4.190985202789307 4.5 Z" stroke="none"/>
        <path d="M 2.5 2.236069917678833 L 1.618035078048706 4 L 3.381965160369873 4 L 2.5 2.236069917678833 M 2.5 0 L 5 5 L 0 5 L 2.5 0 Z" stroke="none" fill="#12263f"/>
      </g>
    </g>
    <g id="Grupo_161580" data-name="Grupo 161580" transform="translate(1535.076 4713.971) rotate(180)">
      <path id="Trazado_199662-5" data-name="Trazado 199662" d="M-8116.387-9498.09h8" transform="translate(8723.229 11798.252)" fill="#12263f" stroke="#12263f" stroke-width="1"/>
      <g id="Polígono_80-5" data-name="Polígono 80" transform="translate(618.229 2297.641) rotate(90)" fill="#12263f">
        <path d="M 4.190985202789307 4.5 L 0.8090149760246277 4.5 L 2.5 1.118029952049255 L 4.190985202789307 4.5 Z" stroke="none"/>
        <path d="M 2.5 2.236069917678833 L 1.618035078048706 4 L 3.381965160369873 4 L 2.5 2.236069917678833 M 2.5 0 L 5 5 L 0 5 L 2.5 0 Z" stroke="none" fill="#12263f"/>
      </g>
    </g>
    <path id="Trazado_199663" data-name="Trazado 199663" d="M-7633.441-9286.17v-83.655" transform="translate(8561.676 11700)" fill="none" stroke="#12263f" stroke-width="1"/>
    <path id="Trazado_199664" data-name="Trazado 199664" d="M-7618.638-9286.17v-83.736" transform="translate(8561.676 11700)" fill="none" stroke="#12263f" stroke-width="1"/>
  </g>
</svg>
