<svg xmlns="http://www.w3.org/2000/svg" xmlns:xlink="http://www.w3.org/1999/xlink" width="924" height="564" viewBox="0 0 924 564">
  <defs>
    <linearGradient id="linear-gradient" x1="0.5" x2="0.5" y2="1" gradientUnits="objectBoundingBox">
      <stop offset="0" stop-color="#fff"/>
      <stop offset="1" stop-color="#d2e6ee"/>
    </linearGradient>
    <linearGradient id="linear-gradient-10" x1="0.5" x2="0.5" y2="1" gradientUnits="objectBoundingBox">
      <stop offset="0" stop-color="#039be5"/>
      <stop offset="1" stop-color="#027fbc"/>
    </linearGradient>
  </defs>
  <g id="Grupo_161643" data-name="Grupo 161643" transform="translate(-340 -1604)">
    <g id="Rectángulo_46696" data-name="Rectángulo 46696" transform="translate(409 1604)" stroke="#12263f" stroke-width="4" fill="url(#linear-gradient)">
      <rect width="211" height="71" rx="10" stroke="none"/>
      <rect x="2" y="2" width="207" height="67" rx="8" fill="none"/>
    </g>
    <g id="Rectángulo_46700" data-name="Rectángulo 46700" transform="translate(340 1923)" stroke="#12263f" stroke-width="4" fill="url(#linear-gradient)">
      <rect width="211" height="71" rx="10" stroke="none"/>
      <rect x="2" y="2" width="207" height="67" rx="8" fill="none"/>
    </g>
    <g id="Rectángulo_46701" data-name="Rectángulo 46701" transform="translate(573 1923)" stroke="#12263f" stroke-width="4" fill="url(#linear-gradient)">
      <rect width="211" height="71" rx="10" stroke="none"/>
      <rect x="2" y="2" width="207" height="67" rx="8" fill="none"/>
    </g>
    <g id="Rectángulo_46704" data-name="Rectángulo 46704" transform="translate(573 2097)" stroke="#12263f" stroke-width="4" fill="url(#linear-gradient)">
      <rect width="211" height="71" rx="10" stroke="none"/>
      <rect x="2" y="2" width="207" height="67" rx="8" fill="none"/>
    </g>
    <g id="Rectángulo_46705" data-name="Rectángulo 46705" transform="translate(1053 2097)" stroke="#12263f" stroke-width="4" fill="url(#linear-gradient)">
      <rect width="211" height="71" rx="10" stroke="none"/>
      <rect x="2" y="2" width="207" height="67" rx="8" fill="none"/>
    </g>
    <g id="Rectángulo_46702" data-name="Rectángulo 46702" transform="translate(811 1923)" stroke="#12263f" stroke-width="4" fill="url(#linear-gradient)">
      <rect width="211" height="71" rx="10" stroke="none"/>
      <rect x="2" y="2" width="207" height="67" rx="8" fill="none"/>
    </g>
    <g id="Rectángulo_46703" data-name="Rectángulo 46703" transform="translate(1049 1923)" stroke="#12263f" stroke-width="4" fill="url(#linear-gradient)">
      <rect width="211" height="71" rx="10" stroke="none"/>
      <rect x="2" y="2" width="207" height="67" rx="8" fill="none"/>
    </g>
    <g id="Rectángulo_46697" data-name="Rectángulo 46697" transform="translate(676 1604)" stroke="#12263f" stroke-width="4" fill="url(#linear-gradient)">
      <rect width="211" height="71" rx="10" stroke="none"/>
      <rect x="2" y="2" width="207" height="67" rx="8" fill="none"/>
    </g>
    <g id="Rectángulo_46698" data-name="Rectángulo 46698" transform="translate(942 1604)" stroke="#12263f" stroke-width="4" fill="url(#linear-gradient)">
      <rect width="211" height="71" rx="10" stroke="none"/>
      <rect x="2" y="2" width="207" height="67" rx="8" fill="none"/>
    </g>
    <path id="Trazado_199856" data-name="Trazado 199856" d="M-41.986-4.157a1.549,1.549,0,0,0-.585-1.289A7.277,7.277,0,0,0-44.628-6.4a19.736,19.736,0,0,1-2.406-.956q-3.04-1.493-3.04-4.1a3.68,3.68,0,0,1,.757-2.293A4.9,4.9,0,0,1-47.174-15.3a8.34,8.34,0,0,1,3.115-.553,7.3,7.3,0,0,1,3.024.6,4.788,4.788,0,0,1,2.079,1.713A4.474,4.474,0,0,1-38.215-11h-3.76a1.891,1.891,0,0,0-.585-1.482,2.282,2.282,0,0,0-1.584-.526,2.573,2.573,0,0,0-1.6.446,1.368,1.368,0,0,0-.585,1.133,1.377,1.377,0,0,0,.645,1.09,8.128,8.128,0,0,0,2.267,1.01A13.885,13.885,0,0,1-40.75-8.207a4.477,4.477,0,0,1,2.535,4.028A3.819,3.819,0,0,1-39.762-.956,6.88,6.88,0,0,1-44.005.215a8.418,8.418,0,0,1-3.443-.682,5.191,5.191,0,0,1-2.32-1.869,4.87,4.87,0,0,1-.779-2.734h3.781a2.4,2.4,0,0,0,.65,1.853,3.072,3.072,0,0,0,2.111.6,2.427,2.427,0,0,0,1.477-.4A1.33,1.33,0,0,0-41.986-4.157ZM-36.9-5.919a6.86,6.86,0,0,1,.677-3.1,4.84,4.84,0,0,1,1.944-2.089,5.856,5.856,0,0,1,2.976-.73,5.344,5.344,0,0,1,4.114,1.617,6.2,6.2,0,0,1,1.5,4.4v.129A6.019,6.019,0,0,1-27.2-1.38a5.359,5.359,0,0,1-4.087,1.6,5.42,5.42,0,0,1-3.985-1.488,5.819,5.819,0,0,1-1.622-4.034Zm3.62.226a4.325,4.325,0,0,0,.5,2.363,1.682,1.682,0,0,0,1.493.752q1.934,0,1.977-2.976v-.365q0-3.126-2-3.126-1.815,0-1.966,2.7Zm19.98-.032A7.009,7.009,0,0,1-14.523-1.4,3.909,3.909,0,0,1-17.816.215,3.351,3.351,0,0,1-20.448-.956V4.469h-3.62V-11.623h3.384l.107,1.074a3.351,3.351,0,0,1,2.739-1.289A3.941,3.941,0,0,1-14.5-10.253,7.1,7.1,0,0,1-13.3-5.9Zm-3.62-.226q0-3.094-1.8-3.094a1.7,1.7,0,0,0-1.719.924v4.576a1.759,1.759,0,0,0,1.74.967q1.729,0,1.783-2.986Zm4.759.032a6.86,6.86,0,0,1,.677-3.1,4.84,4.84,0,0,1,1.944-2.089,5.856,5.856,0,0,1,2.976-.73,5.344,5.344,0,0,1,4.114,1.617,6.2,6.2,0,0,1,1.5,4.4v.129A6.019,6.019,0,0,1-2.46-1.38,5.359,5.359,0,0,1-6.547.215a5.42,5.42,0,0,1-3.985-1.488,5.819,5.819,0,0,1-1.622-4.034Zm3.62.226a4.325,4.325,0,0,0,.5,2.363,1.682,1.682,0,0,0,1.493.752q1.934,0,1.977-2.976v-.365q0-3.126-2-3.126-1.815,0-1.966,2.7ZM7.675-8.347,6.483-8.433A2.142,2.142,0,0,0,4.292-7.358V0H.671V-11.623H4.066l.118,1.493A2.8,2.8,0,0,1,6.73-11.838a3.53,3.53,0,0,1,1.01.129Zm6.059-6.166v2.89h1.912v2.514H13.734v5.317a1.358,1.358,0,0,0,.236.913,1.268,1.268,0,0,0,.935.258,5.311,5.311,0,0,0,.9-.064V-.1a6.681,6.681,0,0,1-2.041.312,3.792,3.792,0,0,1-2.761-.881,3.61,3.61,0,0,1-.892-2.675V-9.109H8.631v-2.514h1.482v-2.89ZM22.693.215a5.975,5.975,0,0,1-4.329-1.6,5.509,5.509,0,0,1-1.654-4.152v-.3A7.138,7.138,0,0,1,17.37-8.98,4.834,4.834,0,0,1,19.3-11.091a5.821,5.821,0,0,1,3.008-.747,5.031,5.031,0,0,1,3.867,1.52A5.973,5.973,0,0,1,27.591-6.08v1.407h-7.2a2.609,2.609,0,0,0,.849,1.536,2.525,2.525,0,0,0,1.7.559,3.254,3.254,0,0,0,2.686-1.2L27.28-1.826A4.624,4.624,0,0,1,25.362-.338,6.48,6.48,0,0,1,22.693.215Zm-.408-9.26q-1.59,0-1.891,2.105h3.652v-.279a1.793,1.793,0,0,0-.44-1.348A1.753,1.753,0,0,0,22.285-9.045ZM41.073,0a4.088,4.088,0,0,1-.344-1.042A3.366,3.366,0,0,1,37.936.215a4.124,4.124,0,0,1-2.793-.994,3.163,3.163,0,0,1-1.149-2.5,3.251,3.251,0,0,1,1.4-2.857A7.114,7.114,0,0,1,39.451-7.1h1.117v-.615q0-1.608-1.386-1.608A1.133,1.133,0,0,0,37.893-8.05h-3.62a3.245,3.245,0,0,1,1.434-2.736,6.027,6.027,0,0,1,3.658-1.051,5.284,5.284,0,0,1,3.513,1.085A3.772,3.772,0,0,1,44.2-7.777v5.146a5.269,5.269,0,0,0,.494,2.449V0ZM38.806-2.363a2.019,2.019,0,0,0,1.123-.29,1.818,1.818,0,0,0,.639-.655V-5.167H39.515q-1.891,0-1.891,1.7a1.036,1.036,0,0,0,.333.8A1.205,1.205,0,0,0,38.806-2.363ZM50.021,0H46.39V-16.5h3.631Zm-82.43,19.734a.836.836,0,0,0-.483-.741,7.353,7.353,0,0,0-1.837-.58,8.376,8.376,0,0,1-2.234-.79,3.743,3.743,0,0,1-1.343-1.187,2.835,2.835,0,0,1-.462-1.6A3.212,3.212,0,0,1-37.447,12.2a5.443,5.443,0,0,1,3.459-1.037,6.03,6.03,0,0,1,3.7,1.042,3.258,3.258,0,0,1,1.4,2.739h-3.631q0-1.4-1.472-1.4a1.459,1.459,0,0,0-.956.317.981.981,0,0,0-.387.79.9.9,0,0,0,.473.784,4.466,4.466,0,0,0,1.509.494,13.042,13.042,0,0,1,1.821.462q2.621.9,2.621,3.233a3.044,3.044,0,0,1-1.413,2.589,6.2,6.2,0,0,1-3.658,1,6.322,6.322,0,0,1-2.664-.537,4.455,4.455,0,0,1-1.826-1.461,3.308,3.308,0,0,1-.655-1.944h3.384a1.4,1.4,0,0,0,.537,1.176,2.209,2.209,0,0,0,1.321.371,1.738,1.738,0,0,0,1.112-.3A.962.962,0,0,0-32.409,19.734Zm10.807,3.48a5.975,5.975,0,0,1-4.329-1.6,5.509,5.509,0,0,1-1.654-4.152v-.3a7.138,7.138,0,0,1,.661-3.147A4.834,4.834,0,0,1-25,11.909a5.821,5.821,0,0,1,3.008-.747,5.031,5.031,0,0,1,3.867,1.52A5.973,5.973,0,0,1-16.7,16.92v1.407h-7.2a2.609,2.609,0,0,0,.849,1.536,2.525,2.525,0,0,0,1.7.559,3.254,3.254,0,0,0,2.686-1.2l1.654,1.955a4.624,4.624,0,0,1-1.917,1.488A6.48,6.48,0,0,1-21.6,23.215Zm-.408-9.26q-1.59,0-1.891,2.105h3.652v-.279a1.793,1.793,0,0,0-.44-1.348A1.753,1.753,0,0,0-22.011,13.955Zm13.793.7-1.192-.086A2.142,2.142,0,0,0-11.6,15.642V23h-3.62V11.377h3.395l.118,1.493a2.8,2.8,0,0,1,2.546-1.708,3.53,3.53,0,0,1,1.01.129Zm6.134,4.039,1.837-7.315H3.566L-.226,23h-3.7L-7.713,11.377h3.824ZM8.465,23H4.834V11.377H8.465ZM4.619,8.369a1.63,1.63,0,0,1,.559-1.275,2.1,2.1,0,0,1,1.45-.5,2.1,2.1,0,0,1,1.45.5,1.63,1.63,0,0,1,.559,1.275,1.63,1.63,0,0,1-.559,1.275,2.1,2.1,0,0,1-1.45.5,2.1,2.1,0,0,1-1.45-.5A1.63,1.63,0,0,1,4.619,8.369ZM15.608,20.422a1.61,1.61,0,0,0,1.182-.414,1.517,1.517,0,0,0,.408-1.155h3.395a4.018,4.018,0,0,1-1.37,3.137,5.1,5.1,0,0,1-3.529,1.225,5.158,5.158,0,0,1-4-1.59,6.264,6.264,0,0,1-1.461-4.4v-.15a7.08,7.08,0,0,1,.65-3.11,4.732,4.732,0,0,1,1.875-2.073,5.589,5.589,0,0,1,2.9-.725,5.03,5.03,0,0,1,3.6,1.257,4.458,4.458,0,0,1,1.332,3.405H17.2a1.987,1.987,0,0,0-.44-1.386,1.52,1.52,0,0,0-1.182-.483q-1.407,0-1.644,1.794a12.659,12.659,0,0,0-.075,1.568,4.972,4.972,0,0,0,.419,2.428A1.45,1.45,0,0,0,15.608,20.422ZM25.942,23H22.312V11.377h3.631ZM22.1,8.369a1.63,1.63,0,0,1,.559-1.275,2.364,2.364,0,0,1,2.9,0,1.63,1.63,0,0,1,.559,1.275,1.63,1.63,0,0,1-.559,1.275,2.364,2.364,0,0,1-2.9,0A1.63,1.63,0,0,1,22.1,8.369Zm5.618,8.712a6.86,6.86,0,0,1,.677-3.1,4.84,4.84,0,0,1,1.944-2.089,5.856,5.856,0,0,1,2.976-.73,5.344,5.344,0,0,1,4.114,1.617,6.2,6.2,0,0,1,1.5,4.4v.129A6.019,6.019,0,0,1,37.42,21.62a5.359,5.359,0,0,1-4.087,1.6,5.42,5.42,0,0,1-3.985-1.488,5.819,5.819,0,0,1-1.622-4.034Zm3.62.226a4.325,4.325,0,0,0,.5,2.363,1.682,1.682,0,0,0,1.493.752q1.934,0,1.977-2.976v-.365q0-3.126-2-3.126-1.815,0-1.966,2.7Z" transform="translate(514.5 1635.5)" fill="#12263f"/>
    <path id="Trazado_199850" data-name="Trazado 199850" d="M-41.986-4.157a1.549,1.549,0,0,0-.585-1.289A7.277,7.277,0,0,0-44.628-6.4a19.736,19.736,0,0,1-2.406-.956q-3.04-1.493-3.04-4.1a3.68,3.68,0,0,1,.757-2.293A4.9,4.9,0,0,1-47.174-15.3a8.34,8.34,0,0,1,3.115-.553,7.3,7.3,0,0,1,3.024.6,4.788,4.788,0,0,1,2.079,1.713A4.474,4.474,0,0,1-38.215-11h-3.76a1.891,1.891,0,0,0-.585-1.482,2.282,2.282,0,0,0-1.584-.526,2.573,2.573,0,0,0-1.6.446,1.368,1.368,0,0,0-.585,1.133,1.377,1.377,0,0,0,.645,1.09,8.128,8.128,0,0,0,2.267,1.01A13.885,13.885,0,0,1-40.75-8.207a4.477,4.477,0,0,1,2.535,4.028A3.819,3.819,0,0,1-39.762-.956,6.88,6.88,0,0,1-44.005.215a8.418,8.418,0,0,1-3.443-.682,5.191,5.191,0,0,1-2.32-1.869,4.87,4.87,0,0,1-.779-2.734h3.781a2.4,2.4,0,0,0,.65,1.853,3.072,3.072,0,0,0,2.111.6,2.427,2.427,0,0,0,1.477-.4A1.33,1.33,0,0,0-41.986-4.157ZM-36.9-5.919a6.86,6.86,0,0,1,.677-3.1,4.84,4.84,0,0,1,1.944-2.089,5.856,5.856,0,0,1,2.976-.73,5.344,5.344,0,0,1,4.114,1.617,6.2,6.2,0,0,1,1.5,4.4v.129A6.019,6.019,0,0,1-27.2-1.38a5.359,5.359,0,0,1-4.087,1.6,5.42,5.42,0,0,1-3.985-1.488,5.819,5.819,0,0,1-1.622-4.034Zm3.62.226a4.325,4.325,0,0,0,.5,2.363,1.682,1.682,0,0,0,1.493.752q1.934,0,1.977-2.976v-.365q0-3.126-2-3.126-1.815,0-1.966,2.7Zm19.98-.032A7.009,7.009,0,0,1-14.523-1.4,3.909,3.909,0,0,1-17.816.215,3.351,3.351,0,0,1-20.448-.956V4.469h-3.62V-11.623h3.384l.107,1.074a3.351,3.351,0,0,1,2.739-1.289A3.941,3.941,0,0,1-14.5-10.253,7.1,7.1,0,0,1-13.3-5.9Zm-3.62-.226q0-3.094-1.8-3.094a1.7,1.7,0,0,0-1.719.924v4.576a1.759,1.759,0,0,0,1.74.967q1.729,0,1.783-2.986Zm4.759.032a6.86,6.86,0,0,1,.677-3.1,4.84,4.84,0,0,1,1.944-2.089,5.856,5.856,0,0,1,2.976-.73,5.344,5.344,0,0,1,4.114,1.617,6.2,6.2,0,0,1,1.5,4.4v.129A6.019,6.019,0,0,1-2.46-1.38,5.359,5.359,0,0,1-6.547.215a5.42,5.42,0,0,1-3.985-1.488,5.819,5.819,0,0,1-1.622-4.034Zm3.62.226a4.325,4.325,0,0,0,.5,2.363,1.682,1.682,0,0,0,1.493.752q1.934,0,1.977-2.976v-.365q0-3.126-2-3.126-1.815,0-1.966,2.7ZM7.675-8.347,6.483-8.433A2.142,2.142,0,0,0,4.292-7.358V0H.671V-11.623H4.066l.118,1.493A2.8,2.8,0,0,1,6.73-11.838a3.53,3.53,0,0,1,1.01.129Zm6.059-6.166v2.89h1.912v2.514H13.734v5.317a1.358,1.358,0,0,0,.236.913,1.268,1.268,0,0,0,.935.258,5.311,5.311,0,0,0,.9-.064V-.1a6.681,6.681,0,0,1-2.041.312,3.792,3.792,0,0,1-2.761-.881,3.61,3.61,0,0,1-.892-2.675V-9.109H8.631v-2.514h1.482v-2.89ZM22.693.215a5.975,5.975,0,0,1-4.329-1.6,5.509,5.509,0,0,1-1.654-4.152v-.3A7.138,7.138,0,0,1,17.37-8.98,4.834,4.834,0,0,1,19.3-11.091a5.821,5.821,0,0,1,3.008-.747,5.031,5.031,0,0,1,3.867,1.52A5.973,5.973,0,0,1,27.591-6.08v1.407h-7.2a2.609,2.609,0,0,0,.849,1.536,2.525,2.525,0,0,0,1.7.559,3.254,3.254,0,0,0,2.686-1.2L27.28-1.826A4.624,4.624,0,0,1,25.362-.338,6.48,6.48,0,0,1,22.693.215Zm-.408-9.26q-1.59,0-1.891,2.105h3.652v-.279a1.793,1.793,0,0,0-.44-1.348A1.753,1.753,0,0,0,22.285-9.045ZM41.073,0a4.088,4.088,0,0,1-.344-1.042A3.366,3.366,0,0,1,37.936.215a4.124,4.124,0,0,1-2.793-.994,3.163,3.163,0,0,1-1.149-2.5,3.251,3.251,0,0,1,1.4-2.857A7.114,7.114,0,0,1,39.451-7.1h1.117v-.615q0-1.608-1.386-1.608A1.133,1.133,0,0,0,37.893-8.05h-3.62a3.245,3.245,0,0,1,1.434-2.736,6.027,6.027,0,0,1,3.658-1.051,5.284,5.284,0,0,1,3.513,1.085A3.772,3.772,0,0,1,44.2-7.777v5.146a5.269,5.269,0,0,0,.494,2.449V0ZM38.806-2.363a2.019,2.019,0,0,0,1.123-.29,1.818,1.818,0,0,0,.639-.655V-5.167H39.515q-1.891,0-1.891,1.7a1.036,1.036,0,0,0,.333.8A1.205,1.205,0,0,0,38.806-2.363ZM50.021,0H46.39V-16.5h3.631Zm-82.43,19.734a.836.836,0,0,0-.483-.741,7.353,7.353,0,0,0-1.837-.58,8.376,8.376,0,0,1-2.234-.79,3.743,3.743,0,0,1-1.343-1.187,2.835,2.835,0,0,1-.462-1.6A3.212,3.212,0,0,1-37.447,12.2a5.443,5.443,0,0,1,3.459-1.037,6.03,6.03,0,0,1,3.7,1.042,3.258,3.258,0,0,1,1.4,2.739h-3.631q0-1.4-1.472-1.4a1.459,1.459,0,0,0-.956.317.981.981,0,0,0-.387.79.9.9,0,0,0,.473.784,4.466,4.466,0,0,0,1.509.494,13.042,13.042,0,0,1,1.821.462q2.621.9,2.621,3.233a3.044,3.044,0,0,1-1.413,2.589,6.2,6.2,0,0,1-3.658,1,6.322,6.322,0,0,1-2.664-.537,4.455,4.455,0,0,1-1.826-1.461,3.308,3.308,0,0,1-.655-1.944h3.384a1.4,1.4,0,0,0,.537,1.176,2.209,2.209,0,0,0,1.321.371,1.738,1.738,0,0,0,1.112-.3A.962.962,0,0,0-32.409,19.734Zm10.807,3.48a5.975,5.975,0,0,1-4.329-1.6,5.509,5.509,0,0,1-1.654-4.152v-.3a7.138,7.138,0,0,1,.661-3.147A4.834,4.834,0,0,1-25,11.909a5.821,5.821,0,0,1,3.008-.747,5.031,5.031,0,0,1,3.867,1.52A5.973,5.973,0,0,1-16.7,16.92v1.407h-7.2a2.609,2.609,0,0,0,.849,1.536,2.525,2.525,0,0,0,1.7.559,3.254,3.254,0,0,0,2.686-1.2l1.654,1.955a4.624,4.624,0,0,1-1.917,1.488A6.48,6.48,0,0,1-21.6,23.215Zm-.408-9.26q-1.59,0-1.891,2.105h3.652v-.279a1.793,1.793,0,0,0-.44-1.348A1.753,1.753,0,0,0-22.011,13.955Zm13.793.7-1.192-.086A2.142,2.142,0,0,0-11.6,15.642V23h-3.62V11.377h3.395l.118,1.493a2.8,2.8,0,0,1,2.546-1.708,3.53,3.53,0,0,1,1.01.129Zm6.134,4.039,1.837-7.315H3.566L-.226,23h-3.7L-7.713,11.377h3.824ZM8.465,23H4.834V11.377H8.465ZM4.619,8.369a1.63,1.63,0,0,1,.559-1.275,2.1,2.1,0,0,1,1.45-.5,2.1,2.1,0,0,1,1.45.5,1.63,1.63,0,0,1,.559,1.275,1.63,1.63,0,0,1-.559,1.275,2.1,2.1,0,0,1-1.45.5,2.1,2.1,0,0,1-1.45-.5A1.63,1.63,0,0,1,4.619,8.369ZM15.608,20.422a1.61,1.61,0,0,0,1.182-.414,1.517,1.517,0,0,0,.408-1.155h3.395a4.018,4.018,0,0,1-1.37,3.137,5.1,5.1,0,0,1-3.529,1.225,5.158,5.158,0,0,1-4-1.59,6.264,6.264,0,0,1-1.461-4.4v-.15a7.08,7.08,0,0,1,.65-3.11,4.732,4.732,0,0,1,1.875-2.073,5.589,5.589,0,0,1,2.9-.725,5.03,5.03,0,0,1,3.6,1.257,4.458,4.458,0,0,1,1.332,3.405H17.2a1.987,1.987,0,0,0-.44-1.386,1.52,1.52,0,0,0-1.182-.483q-1.407,0-1.644,1.794a12.659,12.659,0,0,0-.075,1.568,4.972,4.972,0,0,0,.419,2.428A1.45,1.45,0,0,0,15.608,20.422ZM25.942,23H22.312V11.377h3.631ZM22.1,8.369a1.63,1.63,0,0,1,.559-1.275,2.364,2.364,0,0,1,2.9,0,1.63,1.63,0,0,1,.559,1.275,1.63,1.63,0,0,1-.559,1.275,2.364,2.364,0,0,1-2.9,0A1.63,1.63,0,0,1,22.1,8.369Zm5.618,8.712a6.86,6.86,0,0,1,.677-3.1,4.84,4.84,0,0,1,1.944-2.089,5.856,5.856,0,0,1,2.976-.73,5.344,5.344,0,0,1,4.114,1.617,6.2,6.2,0,0,1,1.5,4.4v.129A6.019,6.019,0,0,1,37.42,21.62a5.359,5.359,0,0,1-4.087,1.6,5.42,5.42,0,0,1-3.985-1.488,5.819,5.819,0,0,1-1.622-4.034Zm3.62.226a4.325,4.325,0,0,0,.5,2.363,1.682,1.682,0,0,0,1.493.752q1.934,0,1.977-2.976v-.365q0-3.126-2-3.126-1.815,0-1.966,2.7Z" transform="translate(445.5 1954.5)" fill="#12263f"/>
    <path id="Trazado_199851" data-name="Trazado 199851" d="M-41.986-4.157a1.549,1.549,0,0,0-.585-1.289A7.277,7.277,0,0,0-44.628-6.4a19.736,19.736,0,0,1-2.406-.956q-3.04-1.493-3.04-4.1a3.68,3.68,0,0,1,.757-2.293A4.9,4.9,0,0,1-47.174-15.3a8.34,8.34,0,0,1,3.115-.553,7.3,7.3,0,0,1,3.024.6,4.788,4.788,0,0,1,2.079,1.713A4.474,4.474,0,0,1-38.215-11h-3.76a1.891,1.891,0,0,0-.585-1.482,2.282,2.282,0,0,0-1.584-.526,2.573,2.573,0,0,0-1.6.446,1.368,1.368,0,0,0-.585,1.133,1.377,1.377,0,0,0,.645,1.09,8.128,8.128,0,0,0,2.267,1.01A13.885,13.885,0,0,1-40.75-8.207a4.477,4.477,0,0,1,2.535,4.028A3.819,3.819,0,0,1-39.762-.956,6.88,6.88,0,0,1-44.005.215a8.418,8.418,0,0,1-3.443-.682,5.191,5.191,0,0,1-2.32-1.869,4.87,4.87,0,0,1-.779-2.734h3.781a2.4,2.4,0,0,0,.65,1.853,3.072,3.072,0,0,0,2.111.6,2.427,2.427,0,0,0,1.477-.4A1.33,1.33,0,0,0-41.986-4.157ZM-36.9-5.919a6.86,6.86,0,0,1,.677-3.1,4.84,4.84,0,0,1,1.944-2.089,5.856,5.856,0,0,1,2.976-.73,5.344,5.344,0,0,1,4.114,1.617,6.2,6.2,0,0,1,1.5,4.4v.129A6.019,6.019,0,0,1-27.2-1.38a5.359,5.359,0,0,1-4.087,1.6,5.42,5.42,0,0,1-3.985-1.488,5.819,5.819,0,0,1-1.622-4.034Zm3.62.226a4.325,4.325,0,0,0,.5,2.363,1.682,1.682,0,0,0,1.493.752q1.934,0,1.977-2.976v-.365q0-3.126-2-3.126-1.815,0-1.966,2.7Zm19.98-.032A7.009,7.009,0,0,1-14.523-1.4,3.909,3.909,0,0,1-17.816.215,3.351,3.351,0,0,1-20.448-.956V4.469h-3.62V-11.623h3.384l.107,1.074a3.351,3.351,0,0,1,2.739-1.289A3.941,3.941,0,0,1-14.5-10.253,7.1,7.1,0,0,1-13.3-5.9Zm-3.62-.226q0-3.094-1.8-3.094a1.7,1.7,0,0,0-1.719.924v4.576a1.759,1.759,0,0,0,1.74.967q1.729,0,1.783-2.986Zm4.759.032a6.86,6.86,0,0,1,.677-3.1,4.84,4.84,0,0,1,1.944-2.089,5.856,5.856,0,0,1,2.976-.73,5.344,5.344,0,0,1,4.114,1.617,6.2,6.2,0,0,1,1.5,4.4v.129A6.019,6.019,0,0,1-2.46-1.38,5.359,5.359,0,0,1-6.547.215a5.42,5.42,0,0,1-3.985-1.488,5.819,5.819,0,0,1-1.622-4.034Zm3.62.226a4.325,4.325,0,0,0,.5,2.363,1.682,1.682,0,0,0,1.493.752q1.934,0,1.977-2.976v-.365q0-3.126-2-3.126-1.815,0-1.966,2.7ZM7.675-8.347,6.483-8.433A2.142,2.142,0,0,0,4.292-7.358V0H.671V-11.623H4.066l.118,1.493A2.8,2.8,0,0,1,6.73-11.838a3.53,3.53,0,0,1,1.01.129Zm6.059-6.166v2.89h1.912v2.514H13.734v5.317a1.358,1.358,0,0,0,.236.913,1.268,1.268,0,0,0,.935.258,5.311,5.311,0,0,0,.9-.064V-.1a6.681,6.681,0,0,1-2.041.312,3.792,3.792,0,0,1-2.761-.881,3.61,3.61,0,0,1-.892-2.675V-9.109H8.631v-2.514h1.482v-2.89ZM22.693.215a5.975,5.975,0,0,1-4.329-1.6,5.509,5.509,0,0,1-1.654-4.152v-.3A7.138,7.138,0,0,1,17.37-8.98,4.834,4.834,0,0,1,19.3-11.091a5.821,5.821,0,0,1,3.008-.747,5.031,5.031,0,0,1,3.867,1.52A5.973,5.973,0,0,1,27.591-6.08v1.407h-7.2a2.609,2.609,0,0,0,.849,1.536,2.525,2.525,0,0,0,1.7.559,3.254,3.254,0,0,0,2.686-1.2L27.28-1.826A4.624,4.624,0,0,1,25.362-.338,6.48,6.48,0,0,1,22.693.215Zm-.408-9.26q-1.59,0-1.891,2.105h3.652v-.279a1.793,1.793,0,0,0-.44-1.348A1.753,1.753,0,0,0,22.285-9.045ZM41.073,0a4.088,4.088,0,0,1-.344-1.042A3.366,3.366,0,0,1,37.936.215a4.124,4.124,0,0,1-2.793-.994,3.163,3.163,0,0,1-1.149-2.5,3.251,3.251,0,0,1,1.4-2.857A7.114,7.114,0,0,1,39.451-7.1h1.117v-.615q0-1.608-1.386-1.608A1.133,1.133,0,0,0,37.893-8.05h-3.62a3.245,3.245,0,0,1,1.434-2.736,6.027,6.027,0,0,1,3.658-1.051,5.284,5.284,0,0,1,3.513,1.085A3.772,3.772,0,0,1,44.2-7.777v5.146a5.269,5.269,0,0,0,.494,2.449V0ZM38.806-2.363a2.019,2.019,0,0,0,1.123-.29,1.818,1.818,0,0,0,.639-.655V-5.167H39.515q-1.891,0-1.891,1.7a1.036,1.036,0,0,0,.333.8A1.205,1.205,0,0,0,38.806-2.363ZM50.021,0H46.39V-16.5h3.631Zm-82.43,19.734a.836.836,0,0,0-.483-.741,7.353,7.353,0,0,0-1.837-.58,8.376,8.376,0,0,1-2.234-.79,3.743,3.743,0,0,1-1.343-1.187,2.835,2.835,0,0,1-.462-1.6A3.212,3.212,0,0,1-37.447,12.2a5.443,5.443,0,0,1,3.459-1.037,6.03,6.03,0,0,1,3.7,1.042,3.258,3.258,0,0,1,1.4,2.739h-3.631q0-1.4-1.472-1.4a1.459,1.459,0,0,0-.956.317.981.981,0,0,0-.387.79.9.9,0,0,0,.473.784,4.466,4.466,0,0,0,1.509.494,13.042,13.042,0,0,1,1.821.462q2.621.9,2.621,3.233a3.044,3.044,0,0,1-1.413,2.589,6.2,6.2,0,0,1-3.658,1,6.322,6.322,0,0,1-2.664-.537,4.455,4.455,0,0,1-1.826-1.461,3.308,3.308,0,0,1-.655-1.944h3.384a1.4,1.4,0,0,0,.537,1.176,2.209,2.209,0,0,0,1.321.371,1.738,1.738,0,0,0,1.112-.3A.962.962,0,0,0-32.409,19.734Zm10.807,3.48a5.975,5.975,0,0,1-4.329-1.6,5.509,5.509,0,0,1-1.654-4.152v-.3a7.138,7.138,0,0,1,.661-3.147A4.834,4.834,0,0,1-25,11.909a5.821,5.821,0,0,1,3.008-.747,5.031,5.031,0,0,1,3.867,1.52A5.973,5.973,0,0,1-16.7,16.92v1.407h-7.2a2.609,2.609,0,0,0,.849,1.536,2.525,2.525,0,0,0,1.7.559,3.254,3.254,0,0,0,2.686-1.2l1.654,1.955a4.624,4.624,0,0,1-1.917,1.488A6.48,6.48,0,0,1-21.6,23.215Zm-.408-9.26q-1.59,0-1.891,2.105h3.652v-.279a1.793,1.793,0,0,0-.44-1.348A1.753,1.753,0,0,0-22.011,13.955Zm13.793.7-1.192-.086A2.142,2.142,0,0,0-11.6,15.642V23h-3.62V11.377h3.395l.118,1.493a2.8,2.8,0,0,1,2.546-1.708,3.53,3.53,0,0,1,1.01.129Zm6.134,4.039,1.837-7.315H3.566L-.226,23h-3.7L-7.713,11.377h3.824ZM8.465,23H4.834V11.377H8.465ZM4.619,8.369a1.63,1.63,0,0,1,.559-1.275,2.1,2.1,0,0,1,1.45-.5,2.1,2.1,0,0,1,1.45.5,1.63,1.63,0,0,1,.559,1.275,1.63,1.63,0,0,1-.559,1.275,2.1,2.1,0,0,1-1.45.5,2.1,2.1,0,0,1-1.45-.5A1.63,1.63,0,0,1,4.619,8.369ZM15.608,20.422a1.61,1.61,0,0,0,1.182-.414,1.517,1.517,0,0,0,.408-1.155h3.395a4.018,4.018,0,0,1-1.37,3.137,5.1,5.1,0,0,1-3.529,1.225,5.158,5.158,0,0,1-4-1.59,6.264,6.264,0,0,1-1.461-4.4v-.15a7.08,7.08,0,0,1,.65-3.11,4.732,4.732,0,0,1,1.875-2.073,5.589,5.589,0,0,1,2.9-.725,5.03,5.03,0,0,1,3.6,1.257,4.458,4.458,0,0,1,1.332,3.405H17.2a1.987,1.987,0,0,0-.44-1.386,1.52,1.52,0,0,0-1.182-.483q-1.407,0-1.644,1.794a12.659,12.659,0,0,0-.075,1.568,4.972,4.972,0,0,0,.419,2.428A1.45,1.45,0,0,0,15.608,20.422ZM25.942,23H22.312V11.377h3.631ZM22.1,8.369a1.63,1.63,0,0,1,.559-1.275,2.364,2.364,0,0,1,2.9,0,1.63,1.63,0,0,1,.559,1.275,1.63,1.63,0,0,1-.559,1.275,2.364,2.364,0,0,1-2.9,0A1.63,1.63,0,0,1,22.1,8.369Zm5.618,8.712a6.86,6.86,0,0,1,.677-3.1,4.84,4.84,0,0,1,1.944-2.089,5.856,5.856,0,0,1,2.976-.73,5.344,5.344,0,0,1,4.114,1.617,6.2,6.2,0,0,1,1.5,4.4v.129A6.019,6.019,0,0,1,37.42,21.62a5.359,5.359,0,0,1-4.087,1.6,5.42,5.42,0,0,1-3.985-1.488,5.819,5.819,0,0,1-1.622-4.034Zm3.62.226a4.325,4.325,0,0,0,.5,2.363,1.682,1.682,0,0,0,1.493.752q1.934,0,1.977-2.976v-.365q0-3.126-2-3.126-1.815,0-1.966,2.7Z" transform="translate(678.5 1954.5)" fill="#12263f"/>
    <path id="Trazado_199855" data-name="Trazado 199855" d="M-41.986-4.157a1.549,1.549,0,0,0-.585-1.289A7.277,7.277,0,0,0-44.628-6.4a19.736,19.736,0,0,1-2.406-.956q-3.04-1.493-3.04-4.1a3.68,3.68,0,0,1,.757-2.293A4.9,4.9,0,0,1-47.174-15.3a8.34,8.34,0,0,1,3.115-.553,7.3,7.3,0,0,1,3.024.6,4.788,4.788,0,0,1,2.079,1.713A4.474,4.474,0,0,1-38.215-11h-3.76a1.891,1.891,0,0,0-.585-1.482,2.282,2.282,0,0,0-1.584-.526,2.573,2.573,0,0,0-1.6.446,1.368,1.368,0,0,0-.585,1.133,1.377,1.377,0,0,0,.645,1.09,8.128,8.128,0,0,0,2.267,1.01A13.885,13.885,0,0,1-40.75-8.207a4.477,4.477,0,0,1,2.535,4.028A3.819,3.819,0,0,1-39.762-.956,6.88,6.88,0,0,1-44.005.215a8.418,8.418,0,0,1-3.443-.682,5.191,5.191,0,0,1-2.32-1.869,4.87,4.87,0,0,1-.779-2.734h3.781a2.4,2.4,0,0,0,.65,1.853,3.072,3.072,0,0,0,2.111.6,2.427,2.427,0,0,0,1.477-.4A1.33,1.33,0,0,0-41.986-4.157ZM-36.9-5.919a6.86,6.86,0,0,1,.677-3.1,4.84,4.84,0,0,1,1.944-2.089,5.856,5.856,0,0,1,2.976-.73,5.344,5.344,0,0,1,4.114,1.617,6.2,6.2,0,0,1,1.5,4.4v.129A6.019,6.019,0,0,1-27.2-1.38a5.359,5.359,0,0,1-4.087,1.6,5.42,5.42,0,0,1-3.985-1.488,5.819,5.819,0,0,1-1.622-4.034Zm3.62.226a4.325,4.325,0,0,0,.5,2.363,1.682,1.682,0,0,0,1.493.752q1.934,0,1.977-2.976v-.365q0-3.126-2-3.126-1.815,0-1.966,2.7Zm19.98-.032A7.009,7.009,0,0,1-14.523-1.4,3.909,3.909,0,0,1-17.816.215,3.351,3.351,0,0,1-20.448-.956V4.469h-3.62V-11.623h3.384l.107,1.074a3.351,3.351,0,0,1,2.739-1.289A3.941,3.941,0,0,1-14.5-10.253,7.1,7.1,0,0,1-13.3-5.9Zm-3.62-.226q0-3.094-1.8-3.094a1.7,1.7,0,0,0-1.719.924v4.576a1.759,1.759,0,0,0,1.74.967q1.729,0,1.783-2.986Zm4.759.032a6.86,6.86,0,0,1,.677-3.1,4.84,4.84,0,0,1,1.944-2.089,5.856,5.856,0,0,1,2.976-.73,5.344,5.344,0,0,1,4.114,1.617,6.2,6.2,0,0,1,1.5,4.4v.129A6.019,6.019,0,0,1-2.46-1.38,5.359,5.359,0,0,1-6.547.215a5.42,5.42,0,0,1-3.985-1.488,5.819,5.819,0,0,1-1.622-4.034Zm3.62.226a4.325,4.325,0,0,0,.5,2.363,1.682,1.682,0,0,0,1.493.752q1.934,0,1.977-2.976v-.365q0-3.126-2-3.126-1.815,0-1.966,2.7ZM7.675-8.347,6.483-8.433A2.142,2.142,0,0,0,4.292-7.358V0H.671V-11.623H4.066l.118,1.493A2.8,2.8,0,0,1,6.73-11.838a3.53,3.53,0,0,1,1.01.129Zm6.059-6.166v2.89h1.912v2.514H13.734v5.317a1.358,1.358,0,0,0,.236.913,1.268,1.268,0,0,0,.935.258,5.311,5.311,0,0,0,.9-.064V-.1a6.681,6.681,0,0,1-2.041.312,3.792,3.792,0,0,1-2.761-.881,3.61,3.61,0,0,1-.892-2.675V-9.109H8.631v-2.514h1.482v-2.89ZM22.693.215a5.975,5.975,0,0,1-4.329-1.6,5.509,5.509,0,0,1-1.654-4.152v-.3A7.138,7.138,0,0,1,17.37-8.98,4.834,4.834,0,0,1,19.3-11.091a5.821,5.821,0,0,1,3.008-.747,5.031,5.031,0,0,1,3.867,1.52A5.973,5.973,0,0,1,27.591-6.08v1.407h-7.2a2.609,2.609,0,0,0,.849,1.536,2.525,2.525,0,0,0,1.7.559,3.254,3.254,0,0,0,2.686-1.2L27.28-1.826A4.624,4.624,0,0,1,25.362-.338,6.48,6.48,0,0,1,22.693.215Zm-.408-9.26q-1.59,0-1.891,2.105h3.652v-.279a1.793,1.793,0,0,0-.44-1.348A1.753,1.753,0,0,0,22.285-9.045ZM41.073,0a4.088,4.088,0,0,1-.344-1.042A3.366,3.366,0,0,1,37.936.215a4.124,4.124,0,0,1-2.793-.994,3.163,3.163,0,0,1-1.149-2.5,3.251,3.251,0,0,1,1.4-2.857A7.114,7.114,0,0,1,39.451-7.1h1.117v-.615q0-1.608-1.386-1.608A1.133,1.133,0,0,0,37.893-8.05h-3.62a3.245,3.245,0,0,1,1.434-2.736,6.027,6.027,0,0,1,3.658-1.051,5.284,5.284,0,0,1,3.513,1.085A3.772,3.772,0,0,1,44.2-7.777v5.146a5.269,5.269,0,0,0,.494,2.449V0ZM38.806-2.363a2.019,2.019,0,0,0,1.123-.29,1.818,1.818,0,0,0,.639-.655V-5.167H39.515q-1.891,0-1.891,1.7a1.036,1.036,0,0,0,.333.8A1.205,1.205,0,0,0,38.806-2.363ZM50.021,0H46.39V-16.5h3.631Zm-82.43,19.734a.836.836,0,0,0-.483-.741,7.353,7.353,0,0,0-1.837-.58,8.376,8.376,0,0,1-2.234-.79,3.743,3.743,0,0,1-1.343-1.187,2.835,2.835,0,0,1-.462-1.6A3.212,3.212,0,0,1-37.447,12.2a5.443,5.443,0,0,1,3.459-1.037,6.03,6.03,0,0,1,3.7,1.042,3.258,3.258,0,0,1,1.4,2.739h-3.631q0-1.4-1.472-1.4a1.459,1.459,0,0,0-.956.317.981.981,0,0,0-.387.79.9.9,0,0,0,.473.784,4.466,4.466,0,0,0,1.509.494,13.042,13.042,0,0,1,1.821.462q2.621.9,2.621,3.233a3.044,3.044,0,0,1-1.413,2.589,6.2,6.2,0,0,1-3.658,1,6.322,6.322,0,0,1-2.664-.537,4.455,4.455,0,0,1-1.826-1.461,3.308,3.308,0,0,1-.655-1.944h3.384a1.4,1.4,0,0,0,.537,1.176,2.209,2.209,0,0,0,1.321.371,1.738,1.738,0,0,0,1.112-.3A.962.962,0,0,0-32.409,19.734Zm10.807,3.48a5.975,5.975,0,0,1-4.329-1.6,5.509,5.509,0,0,1-1.654-4.152v-.3a7.138,7.138,0,0,1,.661-3.147A4.834,4.834,0,0,1-25,11.909a5.821,5.821,0,0,1,3.008-.747,5.031,5.031,0,0,1,3.867,1.52A5.973,5.973,0,0,1-16.7,16.92v1.407h-7.2a2.609,2.609,0,0,0,.849,1.536,2.525,2.525,0,0,0,1.7.559,3.254,3.254,0,0,0,2.686-1.2l1.654,1.955a4.624,4.624,0,0,1-1.917,1.488A6.48,6.48,0,0,1-21.6,23.215Zm-.408-9.26q-1.59,0-1.891,2.105h3.652v-.279a1.793,1.793,0,0,0-.44-1.348A1.753,1.753,0,0,0-22.011,13.955Zm13.793.7-1.192-.086A2.142,2.142,0,0,0-11.6,15.642V23h-3.62V11.377h3.395l.118,1.493a2.8,2.8,0,0,1,2.546-1.708,3.53,3.53,0,0,1,1.01.129Zm6.134,4.039,1.837-7.315H3.566L-.226,23h-3.7L-7.713,11.377h3.824ZM8.465,23H4.834V11.377H8.465ZM4.619,8.369a1.63,1.63,0,0,1,.559-1.275,2.1,2.1,0,0,1,1.45-.5,2.1,2.1,0,0,1,1.45.5,1.63,1.63,0,0,1,.559,1.275,1.63,1.63,0,0,1-.559,1.275,2.1,2.1,0,0,1-1.45.5,2.1,2.1,0,0,1-1.45-.5A1.63,1.63,0,0,1,4.619,8.369ZM15.608,20.422a1.61,1.61,0,0,0,1.182-.414,1.517,1.517,0,0,0,.408-1.155h3.395a4.018,4.018,0,0,1-1.37,3.137,5.1,5.1,0,0,1-3.529,1.225,5.158,5.158,0,0,1-4-1.59,6.264,6.264,0,0,1-1.461-4.4v-.15a7.08,7.08,0,0,1,.65-3.11,4.732,4.732,0,0,1,1.875-2.073,5.589,5.589,0,0,1,2.9-.725,5.03,5.03,0,0,1,3.6,1.257,4.458,4.458,0,0,1,1.332,3.405H17.2a1.987,1.987,0,0,0-.44-1.386,1.52,1.52,0,0,0-1.182-.483q-1.407,0-1.644,1.794a12.659,12.659,0,0,0-.075,1.568,4.972,4.972,0,0,0,.419,2.428A1.45,1.45,0,0,0,15.608,20.422ZM25.942,23H22.312V11.377h3.631ZM22.1,8.369a1.63,1.63,0,0,1,.559-1.275,2.364,2.364,0,0,1,2.9,0,1.63,1.63,0,0,1,.559,1.275,1.63,1.63,0,0,1-.559,1.275,2.364,2.364,0,0,1-2.9,0A1.63,1.63,0,0,1,22.1,8.369Zm5.618,8.712a6.86,6.86,0,0,1,.677-3.1,4.84,4.84,0,0,1,1.944-2.089,5.856,5.856,0,0,1,2.976-.73,5.344,5.344,0,0,1,4.114,1.617,6.2,6.2,0,0,1,1.5,4.4v.129A6.019,6.019,0,0,1,37.42,21.62a5.359,5.359,0,0,1-4.087,1.6,5.42,5.42,0,0,1-3.985-1.488,5.819,5.819,0,0,1-1.622-4.034Zm3.62.226a4.325,4.325,0,0,0,.5,2.363,1.682,1.682,0,0,0,1.493.752q1.934,0,1.977-2.976v-.365q0-3.126-2-3.126-1.815,0-1.966,2.7Z" transform="translate(678.5 2128.5)" fill="#12263f"/>
    <path id="Trazado_199854" data-name="Trazado 199854" d="M-41.986-4.157a1.549,1.549,0,0,0-.585-1.289A7.277,7.277,0,0,0-44.628-6.4a19.736,19.736,0,0,1-2.406-.956q-3.04-1.493-3.04-4.1a3.68,3.68,0,0,1,.757-2.293A4.9,4.9,0,0,1-47.174-15.3a8.34,8.34,0,0,1,3.115-.553,7.3,7.3,0,0,1,3.024.6,4.788,4.788,0,0,1,2.079,1.713A4.474,4.474,0,0,1-38.215-11h-3.76a1.891,1.891,0,0,0-.585-1.482,2.282,2.282,0,0,0-1.584-.526,2.573,2.573,0,0,0-1.6.446,1.368,1.368,0,0,0-.585,1.133,1.377,1.377,0,0,0,.645,1.09,8.128,8.128,0,0,0,2.267,1.01A13.885,13.885,0,0,1-40.75-8.207a4.477,4.477,0,0,1,2.535,4.028A3.819,3.819,0,0,1-39.762-.956,6.88,6.88,0,0,1-44.005.215a8.418,8.418,0,0,1-3.443-.682,5.191,5.191,0,0,1-2.32-1.869,4.87,4.87,0,0,1-.779-2.734h3.781a2.4,2.4,0,0,0,.65,1.853,3.072,3.072,0,0,0,2.111.6,2.427,2.427,0,0,0,1.477-.4A1.33,1.33,0,0,0-41.986-4.157ZM-36.9-5.919a6.86,6.86,0,0,1,.677-3.1,4.84,4.84,0,0,1,1.944-2.089,5.856,5.856,0,0,1,2.976-.73,5.344,5.344,0,0,1,4.114,1.617,6.2,6.2,0,0,1,1.5,4.4v.129A6.019,6.019,0,0,1-27.2-1.38a5.359,5.359,0,0,1-4.087,1.6,5.42,5.42,0,0,1-3.985-1.488,5.819,5.819,0,0,1-1.622-4.034Zm3.62.226a4.325,4.325,0,0,0,.5,2.363,1.682,1.682,0,0,0,1.493.752q1.934,0,1.977-2.976v-.365q0-3.126-2-3.126-1.815,0-1.966,2.7Zm19.98-.032A7.009,7.009,0,0,1-14.523-1.4,3.909,3.909,0,0,1-17.816.215,3.351,3.351,0,0,1-20.448-.956V4.469h-3.62V-11.623h3.384l.107,1.074a3.351,3.351,0,0,1,2.739-1.289A3.941,3.941,0,0,1-14.5-10.253,7.1,7.1,0,0,1-13.3-5.9Zm-3.62-.226q0-3.094-1.8-3.094a1.7,1.7,0,0,0-1.719.924v4.576a1.759,1.759,0,0,0,1.74.967q1.729,0,1.783-2.986Zm4.759.032a6.86,6.86,0,0,1,.677-3.1,4.84,4.84,0,0,1,1.944-2.089,5.856,5.856,0,0,1,2.976-.73,5.344,5.344,0,0,1,4.114,1.617,6.2,6.2,0,0,1,1.5,4.4v.129A6.019,6.019,0,0,1-2.46-1.38,5.359,5.359,0,0,1-6.547.215a5.42,5.42,0,0,1-3.985-1.488,5.819,5.819,0,0,1-1.622-4.034Zm3.62.226a4.325,4.325,0,0,0,.5,2.363,1.682,1.682,0,0,0,1.493.752q1.934,0,1.977-2.976v-.365q0-3.126-2-3.126-1.815,0-1.966,2.7ZM7.675-8.347,6.483-8.433A2.142,2.142,0,0,0,4.292-7.358V0H.671V-11.623H4.066l.118,1.493A2.8,2.8,0,0,1,6.73-11.838a3.53,3.53,0,0,1,1.01.129Zm6.059-6.166v2.89h1.912v2.514H13.734v5.317a1.358,1.358,0,0,0,.236.913,1.268,1.268,0,0,0,.935.258,5.311,5.311,0,0,0,.9-.064V-.1a6.681,6.681,0,0,1-2.041.312,3.792,3.792,0,0,1-2.761-.881,3.61,3.61,0,0,1-.892-2.675V-9.109H8.631v-2.514h1.482v-2.89ZM22.693.215a5.975,5.975,0,0,1-4.329-1.6,5.509,5.509,0,0,1-1.654-4.152v-.3A7.138,7.138,0,0,1,17.37-8.98,4.834,4.834,0,0,1,19.3-11.091a5.821,5.821,0,0,1,3.008-.747,5.031,5.031,0,0,1,3.867,1.52A5.973,5.973,0,0,1,27.591-6.08v1.407h-7.2a2.609,2.609,0,0,0,.849,1.536,2.525,2.525,0,0,0,1.7.559,3.254,3.254,0,0,0,2.686-1.2L27.28-1.826A4.624,4.624,0,0,1,25.362-.338,6.48,6.48,0,0,1,22.693.215Zm-.408-9.26q-1.59,0-1.891,2.105h3.652v-.279a1.793,1.793,0,0,0-.44-1.348A1.753,1.753,0,0,0,22.285-9.045ZM41.073,0a4.088,4.088,0,0,1-.344-1.042A3.366,3.366,0,0,1,37.936.215a4.124,4.124,0,0,1-2.793-.994,3.163,3.163,0,0,1-1.149-2.5,3.251,3.251,0,0,1,1.4-2.857A7.114,7.114,0,0,1,39.451-7.1h1.117v-.615q0-1.608-1.386-1.608A1.133,1.133,0,0,0,37.893-8.05h-3.62a3.245,3.245,0,0,1,1.434-2.736,6.027,6.027,0,0,1,3.658-1.051,5.284,5.284,0,0,1,3.513,1.085A3.772,3.772,0,0,1,44.2-7.777v5.146a5.269,5.269,0,0,0,.494,2.449V0ZM38.806-2.363a2.019,2.019,0,0,0,1.123-.29,1.818,1.818,0,0,0,.639-.655V-5.167H39.515q-1.891,0-1.891,1.7a1.036,1.036,0,0,0,.333.8A1.205,1.205,0,0,0,38.806-2.363ZM50.021,0H46.39V-16.5h3.631Zm-82.43,19.734a.836.836,0,0,0-.483-.741,7.353,7.353,0,0,0-1.837-.58,8.376,8.376,0,0,1-2.234-.79,3.743,3.743,0,0,1-1.343-1.187,2.835,2.835,0,0,1-.462-1.6A3.212,3.212,0,0,1-37.447,12.2a5.443,5.443,0,0,1,3.459-1.037,6.03,6.03,0,0,1,3.7,1.042,3.258,3.258,0,0,1,1.4,2.739h-3.631q0-1.4-1.472-1.4a1.459,1.459,0,0,0-.956.317.981.981,0,0,0-.387.79.9.9,0,0,0,.473.784,4.466,4.466,0,0,0,1.509.494,13.042,13.042,0,0,1,1.821.462q2.621.9,2.621,3.233a3.044,3.044,0,0,1-1.413,2.589,6.2,6.2,0,0,1-3.658,1,6.322,6.322,0,0,1-2.664-.537,4.455,4.455,0,0,1-1.826-1.461,3.308,3.308,0,0,1-.655-1.944h3.384a1.4,1.4,0,0,0,.537,1.176,2.209,2.209,0,0,0,1.321.371,1.738,1.738,0,0,0,1.112-.3A.962.962,0,0,0-32.409,19.734Zm10.807,3.48a5.975,5.975,0,0,1-4.329-1.6,5.509,5.509,0,0,1-1.654-4.152v-.3a7.138,7.138,0,0,1,.661-3.147A4.834,4.834,0,0,1-25,11.909a5.821,5.821,0,0,1,3.008-.747,5.031,5.031,0,0,1,3.867,1.52A5.973,5.973,0,0,1-16.7,16.92v1.407h-7.2a2.609,2.609,0,0,0,.849,1.536,2.525,2.525,0,0,0,1.7.559,3.254,3.254,0,0,0,2.686-1.2l1.654,1.955a4.624,4.624,0,0,1-1.917,1.488A6.48,6.48,0,0,1-21.6,23.215Zm-.408-9.26q-1.59,0-1.891,2.105h3.652v-.279a1.793,1.793,0,0,0-.44-1.348A1.753,1.753,0,0,0-22.011,13.955Zm13.793.7-1.192-.086A2.142,2.142,0,0,0-11.6,15.642V23h-3.62V11.377h3.395l.118,1.493a2.8,2.8,0,0,1,2.546-1.708,3.53,3.53,0,0,1,1.01.129Zm6.134,4.039,1.837-7.315H3.566L-.226,23h-3.7L-7.713,11.377h3.824ZM8.465,23H4.834V11.377H8.465ZM4.619,8.369a1.63,1.63,0,0,1,.559-1.275,2.1,2.1,0,0,1,1.45-.5,2.1,2.1,0,0,1,1.45.5,1.63,1.63,0,0,1,.559,1.275,1.63,1.63,0,0,1-.559,1.275,2.1,2.1,0,0,1-1.45.5,2.1,2.1,0,0,1-1.45-.5A1.63,1.63,0,0,1,4.619,8.369ZM15.608,20.422a1.61,1.61,0,0,0,1.182-.414,1.517,1.517,0,0,0,.408-1.155h3.395a4.018,4.018,0,0,1-1.37,3.137,5.1,5.1,0,0,1-3.529,1.225,5.158,5.158,0,0,1-4-1.59,6.264,6.264,0,0,1-1.461-4.4v-.15a7.08,7.08,0,0,1,.65-3.11,4.732,4.732,0,0,1,1.875-2.073,5.589,5.589,0,0,1,2.9-.725,5.03,5.03,0,0,1,3.6,1.257,4.458,4.458,0,0,1,1.332,3.405H17.2a1.987,1.987,0,0,0-.44-1.386,1.52,1.52,0,0,0-1.182-.483q-1.407,0-1.644,1.794a12.659,12.659,0,0,0-.075,1.568,4.972,4.972,0,0,0,.419,2.428A1.45,1.45,0,0,0,15.608,20.422ZM25.942,23H22.312V11.377h3.631ZM22.1,8.369a1.63,1.63,0,0,1,.559-1.275,2.364,2.364,0,0,1,2.9,0,1.63,1.63,0,0,1,.559,1.275,1.63,1.63,0,0,1-.559,1.275,2.364,2.364,0,0,1-2.9,0A1.63,1.63,0,0,1,22.1,8.369Zm5.618,8.712a6.86,6.86,0,0,1,.677-3.1,4.84,4.84,0,0,1,1.944-2.089,5.856,5.856,0,0,1,2.976-.73,5.344,5.344,0,0,1,4.114,1.617,6.2,6.2,0,0,1,1.5,4.4v.129A6.019,6.019,0,0,1,37.42,21.62a5.359,5.359,0,0,1-4.087,1.6,5.42,5.42,0,0,1-3.985-1.488,5.819,5.819,0,0,1-1.622-4.034Zm3.62.226a4.325,4.325,0,0,0,.5,2.363,1.682,1.682,0,0,0,1.493.752q1.934,0,1.977-2.976v-.365q0-3.126-2-3.126-1.815,0-1.966,2.7Z" transform="translate(1158.5 2128.5)" fill="#12263f"/>
    <path id="Trazado_199852" data-name="Trazado 199852" d="M-41.986-4.157a1.549,1.549,0,0,0-.585-1.289A7.277,7.277,0,0,0-44.628-6.4a19.736,19.736,0,0,1-2.406-.956q-3.04-1.493-3.04-4.1a3.68,3.68,0,0,1,.757-2.293A4.9,4.9,0,0,1-47.174-15.3a8.34,8.34,0,0,1,3.115-.553,7.3,7.3,0,0,1,3.024.6,4.788,4.788,0,0,1,2.079,1.713A4.474,4.474,0,0,1-38.215-11h-3.76a1.891,1.891,0,0,0-.585-1.482,2.282,2.282,0,0,0-1.584-.526,2.573,2.573,0,0,0-1.6.446,1.368,1.368,0,0,0-.585,1.133,1.377,1.377,0,0,0,.645,1.09,8.128,8.128,0,0,0,2.267,1.01A13.885,13.885,0,0,1-40.75-8.207a4.477,4.477,0,0,1,2.535,4.028A3.819,3.819,0,0,1-39.762-.956,6.88,6.88,0,0,1-44.005.215a8.418,8.418,0,0,1-3.443-.682,5.191,5.191,0,0,1-2.32-1.869,4.87,4.87,0,0,1-.779-2.734h3.781a2.4,2.4,0,0,0,.65,1.853,3.072,3.072,0,0,0,2.111.6,2.427,2.427,0,0,0,1.477-.4A1.33,1.33,0,0,0-41.986-4.157ZM-36.9-5.919a6.86,6.86,0,0,1,.677-3.1,4.84,4.84,0,0,1,1.944-2.089,5.856,5.856,0,0,1,2.976-.73,5.344,5.344,0,0,1,4.114,1.617,6.2,6.2,0,0,1,1.5,4.4v.129A6.019,6.019,0,0,1-27.2-1.38a5.359,5.359,0,0,1-4.087,1.6,5.42,5.42,0,0,1-3.985-1.488,5.819,5.819,0,0,1-1.622-4.034Zm3.62.226a4.325,4.325,0,0,0,.5,2.363,1.682,1.682,0,0,0,1.493.752q1.934,0,1.977-2.976v-.365q0-3.126-2-3.126-1.815,0-1.966,2.7Zm19.98-.032A7.009,7.009,0,0,1-14.523-1.4,3.909,3.909,0,0,1-17.816.215,3.351,3.351,0,0,1-20.448-.956V4.469h-3.62V-11.623h3.384l.107,1.074a3.351,3.351,0,0,1,2.739-1.289A3.941,3.941,0,0,1-14.5-10.253,7.1,7.1,0,0,1-13.3-5.9Zm-3.62-.226q0-3.094-1.8-3.094a1.7,1.7,0,0,0-1.719.924v4.576a1.759,1.759,0,0,0,1.74.967q1.729,0,1.783-2.986Zm4.759.032a6.86,6.86,0,0,1,.677-3.1,4.84,4.84,0,0,1,1.944-2.089,5.856,5.856,0,0,1,2.976-.73,5.344,5.344,0,0,1,4.114,1.617,6.2,6.2,0,0,1,1.5,4.4v.129A6.019,6.019,0,0,1-2.46-1.38,5.359,5.359,0,0,1-6.547.215a5.42,5.42,0,0,1-3.985-1.488,5.819,5.819,0,0,1-1.622-4.034Zm3.62.226a4.325,4.325,0,0,0,.5,2.363,1.682,1.682,0,0,0,1.493.752q1.934,0,1.977-2.976v-.365q0-3.126-2-3.126-1.815,0-1.966,2.7ZM7.675-8.347,6.483-8.433A2.142,2.142,0,0,0,4.292-7.358V0H.671V-11.623H4.066l.118,1.493A2.8,2.8,0,0,1,6.73-11.838a3.53,3.53,0,0,1,1.01.129Zm6.059-6.166v2.89h1.912v2.514H13.734v5.317a1.358,1.358,0,0,0,.236.913,1.268,1.268,0,0,0,.935.258,5.311,5.311,0,0,0,.9-.064V-.1a6.681,6.681,0,0,1-2.041.312,3.792,3.792,0,0,1-2.761-.881,3.61,3.61,0,0,1-.892-2.675V-9.109H8.631v-2.514h1.482v-2.89ZM22.693.215a5.975,5.975,0,0,1-4.329-1.6,5.509,5.509,0,0,1-1.654-4.152v-.3A7.138,7.138,0,0,1,17.37-8.98,4.834,4.834,0,0,1,19.3-11.091a5.821,5.821,0,0,1,3.008-.747,5.031,5.031,0,0,1,3.867,1.52A5.973,5.973,0,0,1,27.591-6.08v1.407h-7.2a2.609,2.609,0,0,0,.849,1.536,2.525,2.525,0,0,0,1.7.559,3.254,3.254,0,0,0,2.686-1.2L27.28-1.826A4.624,4.624,0,0,1,25.362-.338,6.48,6.48,0,0,1,22.693.215Zm-.408-9.26q-1.59,0-1.891,2.105h3.652v-.279a1.793,1.793,0,0,0-.44-1.348A1.753,1.753,0,0,0,22.285-9.045ZM41.073,0a4.088,4.088,0,0,1-.344-1.042A3.366,3.366,0,0,1,37.936.215a4.124,4.124,0,0,1-2.793-.994,3.163,3.163,0,0,1-1.149-2.5,3.251,3.251,0,0,1,1.4-2.857A7.114,7.114,0,0,1,39.451-7.1h1.117v-.615q0-1.608-1.386-1.608A1.133,1.133,0,0,0,37.893-8.05h-3.62a3.245,3.245,0,0,1,1.434-2.736,6.027,6.027,0,0,1,3.658-1.051,5.284,5.284,0,0,1,3.513,1.085A3.772,3.772,0,0,1,44.2-7.777v5.146a5.269,5.269,0,0,0,.494,2.449V0ZM38.806-2.363a2.019,2.019,0,0,0,1.123-.29,1.818,1.818,0,0,0,.639-.655V-5.167H39.515q-1.891,0-1.891,1.7a1.036,1.036,0,0,0,.333.8A1.205,1.205,0,0,0,38.806-2.363ZM50.021,0H46.39V-16.5h3.631Zm-82.43,19.734a.836.836,0,0,0-.483-.741,7.353,7.353,0,0,0-1.837-.58,8.376,8.376,0,0,1-2.234-.79,3.743,3.743,0,0,1-1.343-1.187,2.835,2.835,0,0,1-.462-1.6A3.212,3.212,0,0,1-37.447,12.2a5.443,5.443,0,0,1,3.459-1.037,6.03,6.03,0,0,1,3.7,1.042,3.258,3.258,0,0,1,1.4,2.739h-3.631q0-1.4-1.472-1.4a1.459,1.459,0,0,0-.956.317.981.981,0,0,0-.387.79.9.9,0,0,0,.473.784,4.466,4.466,0,0,0,1.509.494,13.042,13.042,0,0,1,1.821.462q2.621.9,2.621,3.233a3.044,3.044,0,0,1-1.413,2.589,6.2,6.2,0,0,1-3.658,1,6.322,6.322,0,0,1-2.664-.537,4.455,4.455,0,0,1-1.826-1.461,3.308,3.308,0,0,1-.655-1.944h3.384a1.4,1.4,0,0,0,.537,1.176,2.209,2.209,0,0,0,1.321.371,1.738,1.738,0,0,0,1.112-.3A.962.962,0,0,0-32.409,19.734Zm10.807,3.48a5.975,5.975,0,0,1-4.329-1.6,5.509,5.509,0,0,1-1.654-4.152v-.3a7.138,7.138,0,0,1,.661-3.147A4.834,4.834,0,0,1-25,11.909a5.821,5.821,0,0,1,3.008-.747,5.031,5.031,0,0,1,3.867,1.52A5.973,5.973,0,0,1-16.7,16.92v1.407h-7.2a2.609,2.609,0,0,0,.849,1.536,2.525,2.525,0,0,0,1.7.559,3.254,3.254,0,0,0,2.686-1.2l1.654,1.955a4.624,4.624,0,0,1-1.917,1.488A6.48,6.48,0,0,1-21.6,23.215Zm-.408-9.26q-1.59,0-1.891,2.105h3.652v-.279a1.793,1.793,0,0,0-.44-1.348A1.753,1.753,0,0,0-22.011,13.955Zm13.793.7-1.192-.086A2.142,2.142,0,0,0-11.6,15.642V23h-3.62V11.377h3.395l.118,1.493a2.8,2.8,0,0,1,2.546-1.708,3.53,3.53,0,0,1,1.01.129Zm6.134,4.039,1.837-7.315H3.566L-.226,23h-3.7L-7.713,11.377h3.824ZM8.465,23H4.834V11.377H8.465ZM4.619,8.369a1.63,1.63,0,0,1,.559-1.275,2.1,2.1,0,0,1,1.45-.5,2.1,2.1,0,0,1,1.45.5,1.63,1.63,0,0,1,.559,1.275,1.63,1.63,0,0,1-.559,1.275,2.1,2.1,0,0,1-1.45.5,2.1,2.1,0,0,1-1.45-.5A1.63,1.63,0,0,1,4.619,8.369ZM15.608,20.422a1.61,1.61,0,0,0,1.182-.414,1.517,1.517,0,0,0,.408-1.155h3.395a4.018,4.018,0,0,1-1.37,3.137,5.1,5.1,0,0,1-3.529,1.225,5.158,5.158,0,0,1-4-1.59,6.264,6.264,0,0,1-1.461-4.4v-.15a7.08,7.08,0,0,1,.65-3.11,4.732,4.732,0,0,1,1.875-2.073,5.589,5.589,0,0,1,2.9-.725,5.03,5.03,0,0,1,3.6,1.257,4.458,4.458,0,0,1,1.332,3.405H17.2a1.987,1.987,0,0,0-.44-1.386,1.52,1.52,0,0,0-1.182-.483q-1.407,0-1.644,1.794a12.659,12.659,0,0,0-.075,1.568,4.972,4.972,0,0,0,.419,2.428A1.45,1.45,0,0,0,15.608,20.422ZM25.942,23H22.312V11.377h3.631ZM22.1,8.369a1.63,1.63,0,0,1,.559-1.275,2.364,2.364,0,0,1,2.9,0,1.63,1.63,0,0,1,.559,1.275,1.63,1.63,0,0,1-.559,1.275,2.364,2.364,0,0,1-2.9,0A1.63,1.63,0,0,1,22.1,8.369Zm5.618,8.712a6.86,6.86,0,0,1,.677-3.1,4.84,4.84,0,0,1,1.944-2.089,5.856,5.856,0,0,1,2.976-.73,5.344,5.344,0,0,1,4.114,1.617,6.2,6.2,0,0,1,1.5,4.4v.129A6.019,6.019,0,0,1,37.42,21.62a5.359,5.359,0,0,1-4.087,1.6,5.42,5.42,0,0,1-3.985-1.488,5.819,5.819,0,0,1-1.622-4.034Zm3.62.226a4.325,4.325,0,0,0,.5,2.363,1.682,1.682,0,0,0,1.493.752q1.934,0,1.977-2.976v-.365q0-3.126-2-3.126-1.815,0-1.966,2.7Z" transform="translate(916.5 1954.5)" fill="#12263f"/>
    <path id="Trazado_199853" data-name="Trazado 199853" d="M-41.986-4.157a1.549,1.549,0,0,0-.585-1.289A7.277,7.277,0,0,0-44.628-6.4a19.736,19.736,0,0,1-2.406-.956q-3.04-1.493-3.04-4.1a3.68,3.68,0,0,1,.757-2.293A4.9,4.9,0,0,1-47.174-15.3a8.34,8.34,0,0,1,3.115-.553,7.3,7.3,0,0,1,3.024.6,4.788,4.788,0,0,1,2.079,1.713A4.474,4.474,0,0,1-38.215-11h-3.76a1.891,1.891,0,0,0-.585-1.482,2.282,2.282,0,0,0-1.584-.526,2.573,2.573,0,0,0-1.6.446,1.368,1.368,0,0,0-.585,1.133,1.377,1.377,0,0,0,.645,1.09,8.128,8.128,0,0,0,2.267,1.01A13.885,13.885,0,0,1-40.75-8.207a4.477,4.477,0,0,1,2.535,4.028A3.819,3.819,0,0,1-39.762-.956,6.88,6.88,0,0,1-44.005.215a8.418,8.418,0,0,1-3.443-.682,5.191,5.191,0,0,1-2.32-1.869,4.87,4.87,0,0,1-.779-2.734h3.781a2.4,2.4,0,0,0,.65,1.853,3.072,3.072,0,0,0,2.111.6,2.427,2.427,0,0,0,1.477-.4A1.33,1.33,0,0,0-41.986-4.157ZM-36.9-5.919a6.86,6.86,0,0,1,.677-3.1,4.84,4.84,0,0,1,1.944-2.089,5.856,5.856,0,0,1,2.976-.73,5.344,5.344,0,0,1,4.114,1.617,6.2,6.2,0,0,1,1.5,4.4v.129A6.019,6.019,0,0,1-27.2-1.38a5.359,5.359,0,0,1-4.087,1.6,5.42,5.42,0,0,1-3.985-1.488,5.819,5.819,0,0,1-1.622-4.034Zm3.62.226a4.325,4.325,0,0,0,.5,2.363,1.682,1.682,0,0,0,1.493.752q1.934,0,1.977-2.976v-.365q0-3.126-2-3.126-1.815,0-1.966,2.7Zm19.98-.032A7.009,7.009,0,0,1-14.523-1.4,3.909,3.909,0,0,1-17.816.215,3.351,3.351,0,0,1-20.448-.956V4.469h-3.62V-11.623h3.384l.107,1.074a3.351,3.351,0,0,1,2.739-1.289A3.941,3.941,0,0,1-14.5-10.253,7.1,7.1,0,0,1-13.3-5.9Zm-3.62-.226q0-3.094-1.8-3.094a1.7,1.7,0,0,0-1.719.924v4.576a1.759,1.759,0,0,0,1.74.967q1.729,0,1.783-2.986Zm4.759.032a6.86,6.86,0,0,1,.677-3.1,4.84,4.84,0,0,1,1.944-2.089,5.856,5.856,0,0,1,2.976-.73,5.344,5.344,0,0,1,4.114,1.617,6.2,6.2,0,0,1,1.5,4.4v.129A6.019,6.019,0,0,1-2.46-1.38,5.359,5.359,0,0,1-6.547.215a5.42,5.42,0,0,1-3.985-1.488,5.819,5.819,0,0,1-1.622-4.034Zm3.62.226a4.325,4.325,0,0,0,.5,2.363,1.682,1.682,0,0,0,1.493.752q1.934,0,1.977-2.976v-.365q0-3.126-2-3.126-1.815,0-1.966,2.7ZM7.675-8.347,6.483-8.433A2.142,2.142,0,0,0,4.292-7.358V0H.671V-11.623H4.066l.118,1.493A2.8,2.8,0,0,1,6.73-11.838a3.53,3.53,0,0,1,1.01.129Zm6.059-6.166v2.89h1.912v2.514H13.734v5.317a1.358,1.358,0,0,0,.236.913,1.268,1.268,0,0,0,.935.258,5.311,5.311,0,0,0,.9-.064V-.1a6.681,6.681,0,0,1-2.041.312,3.792,3.792,0,0,1-2.761-.881,3.61,3.61,0,0,1-.892-2.675V-9.109H8.631v-2.514h1.482v-2.89ZM22.693.215a5.975,5.975,0,0,1-4.329-1.6,5.509,5.509,0,0,1-1.654-4.152v-.3A7.138,7.138,0,0,1,17.37-8.98,4.834,4.834,0,0,1,19.3-11.091a5.821,5.821,0,0,1,3.008-.747,5.031,5.031,0,0,1,3.867,1.52A5.973,5.973,0,0,1,27.591-6.08v1.407h-7.2a2.609,2.609,0,0,0,.849,1.536,2.525,2.525,0,0,0,1.7.559,3.254,3.254,0,0,0,2.686-1.2L27.28-1.826A4.624,4.624,0,0,1,25.362-.338,6.48,6.48,0,0,1,22.693.215Zm-.408-9.26q-1.59,0-1.891,2.105h3.652v-.279a1.793,1.793,0,0,0-.44-1.348A1.753,1.753,0,0,0,22.285-9.045ZM41.073,0a4.088,4.088,0,0,1-.344-1.042A3.366,3.366,0,0,1,37.936.215a4.124,4.124,0,0,1-2.793-.994,3.163,3.163,0,0,1-1.149-2.5,3.251,3.251,0,0,1,1.4-2.857A7.114,7.114,0,0,1,39.451-7.1h1.117v-.615q0-1.608-1.386-1.608A1.133,1.133,0,0,0,37.893-8.05h-3.62a3.245,3.245,0,0,1,1.434-2.736,6.027,6.027,0,0,1,3.658-1.051,5.284,5.284,0,0,1,3.513,1.085A3.772,3.772,0,0,1,44.2-7.777v5.146a5.269,5.269,0,0,0,.494,2.449V0ZM38.806-2.363a2.019,2.019,0,0,0,1.123-.29,1.818,1.818,0,0,0,.639-.655V-5.167H39.515q-1.891,0-1.891,1.7a1.036,1.036,0,0,0,.333.8A1.205,1.205,0,0,0,38.806-2.363ZM50.021,0H46.39V-16.5h3.631Zm-82.43,19.734a.836.836,0,0,0-.483-.741,7.353,7.353,0,0,0-1.837-.58,8.376,8.376,0,0,1-2.234-.79,3.743,3.743,0,0,1-1.343-1.187,2.835,2.835,0,0,1-.462-1.6A3.212,3.212,0,0,1-37.447,12.2a5.443,5.443,0,0,1,3.459-1.037,6.03,6.03,0,0,1,3.7,1.042,3.258,3.258,0,0,1,1.4,2.739h-3.631q0-1.4-1.472-1.4a1.459,1.459,0,0,0-.956.317.981.981,0,0,0-.387.79.9.9,0,0,0,.473.784,4.466,4.466,0,0,0,1.509.494,13.042,13.042,0,0,1,1.821.462q2.621.9,2.621,3.233a3.044,3.044,0,0,1-1.413,2.589,6.2,6.2,0,0,1-3.658,1,6.322,6.322,0,0,1-2.664-.537,4.455,4.455,0,0,1-1.826-1.461,3.308,3.308,0,0,1-.655-1.944h3.384a1.4,1.4,0,0,0,.537,1.176,2.209,2.209,0,0,0,1.321.371,1.738,1.738,0,0,0,1.112-.3A.962.962,0,0,0-32.409,19.734Zm10.807,3.48a5.975,5.975,0,0,1-4.329-1.6,5.509,5.509,0,0,1-1.654-4.152v-.3a7.138,7.138,0,0,1,.661-3.147A4.834,4.834,0,0,1-25,11.909a5.821,5.821,0,0,1,3.008-.747,5.031,5.031,0,0,1,3.867,1.52A5.973,5.973,0,0,1-16.7,16.92v1.407h-7.2a2.609,2.609,0,0,0,.849,1.536,2.525,2.525,0,0,0,1.7.559,3.254,3.254,0,0,0,2.686-1.2l1.654,1.955a4.624,4.624,0,0,1-1.917,1.488A6.48,6.48,0,0,1-21.6,23.215Zm-.408-9.26q-1.59,0-1.891,2.105h3.652v-.279a1.793,1.793,0,0,0-.44-1.348A1.753,1.753,0,0,0-22.011,13.955Zm13.793.7-1.192-.086A2.142,2.142,0,0,0-11.6,15.642V23h-3.62V11.377h3.395l.118,1.493a2.8,2.8,0,0,1,2.546-1.708,3.53,3.53,0,0,1,1.01.129Zm6.134,4.039,1.837-7.315H3.566L-.226,23h-3.7L-7.713,11.377h3.824ZM8.465,23H4.834V11.377H8.465ZM4.619,8.369a1.63,1.63,0,0,1,.559-1.275,2.1,2.1,0,0,1,1.45-.5,2.1,2.1,0,0,1,1.45.5,1.63,1.63,0,0,1,.559,1.275,1.63,1.63,0,0,1-.559,1.275,2.1,2.1,0,0,1-1.45.5,2.1,2.1,0,0,1-1.45-.5A1.63,1.63,0,0,1,4.619,8.369ZM15.608,20.422a1.61,1.61,0,0,0,1.182-.414,1.517,1.517,0,0,0,.408-1.155h3.395a4.018,4.018,0,0,1-1.37,3.137,5.1,5.1,0,0,1-3.529,1.225,5.158,5.158,0,0,1-4-1.59,6.264,6.264,0,0,1-1.461-4.4v-.15a7.08,7.08,0,0,1,.65-3.11,4.732,4.732,0,0,1,1.875-2.073,5.589,5.589,0,0,1,2.9-.725,5.03,5.03,0,0,1,3.6,1.257,4.458,4.458,0,0,1,1.332,3.405H17.2a1.987,1.987,0,0,0-.44-1.386,1.52,1.52,0,0,0-1.182-.483q-1.407,0-1.644,1.794a12.659,12.659,0,0,0-.075,1.568,4.972,4.972,0,0,0,.419,2.428A1.45,1.45,0,0,0,15.608,20.422ZM25.942,23H22.312V11.377h3.631ZM22.1,8.369a1.63,1.63,0,0,1,.559-1.275,2.364,2.364,0,0,1,2.9,0,1.63,1.63,0,0,1,.559,1.275,1.63,1.63,0,0,1-.559,1.275,2.364,2.364,0,0,1-2.9,0A1.63,1.63,0,0,1,22.1,8.369Zm5.618,8.712a6.86,6.86,0,0,1,.677-3.1,4.84,4.84,0,0,1,1.944-2.089,5.856,5.856,0,0,1,2.976-.73,5.344,5.344,0,0,1,4.114,1.617,6.2,6.2,0,0,1,1.5,4.4v.129A6.019,6.019,0,0,1,37.42,21.62a5.359,5.359,0,0,1-4.087,1.6,5.42,5.42,0,0,1-3.985-1.488,5.819,5.819,0,0,1-1.622-4.034Zm3.62.226a4.325,4.325,0,0,0,.5,2.363,1.682,1.682,0,0,0,1.493.752q1.934,0,1.977-2.976v-.365q0-3.126-2-3.126-1.815,0-1.966,2.7Z" transform="translate(1154.5 1954.5)" fill="#12263f"/>
    <path id="Trazado_199857" data-name="Trazado 199857" d="M-34.418-5.3A5.712,5.712,0,0,1-35.3-2.412,5.316,5.316,0,0,1-37.56-.473a7.7,7.7,0,0,1-3.325.688A6.142,6.142,0,0,1-45.74-1.794a8.294,8.294,0,0,1-1.772-5.672v-.773a9.467,9.467,0,0,1,.8-4.023,6.064,6.064,0,0,1,2.3-2.664,6.429,6.429,0,0,1,3.48-.94,6.741,6.741,0,0,1,4.576,1.5,5.921,5.921,0,0,1,1.966,4.13h-3.76a2.8,2.8,0,0,0-.72-2.052,2.96,2.96,0,0,0-2.062-.623,2.252,2.252,0,0,0-2.062,1.053A6.766,6.766,0,0,0-43.678-8.5v1.106a7.487,7.487,0,0,0,.628,3.577,2.3,2.3,0,0,0,2.165,1.074A2.9,2.9,0,0,0-38.9-3.352a2.6,2.6,0,0,0,.73-1.944Zm7.24,5.511a5.975,5.975,0,0,1-4.329-1.6,5.509,5.509,0,0,1-1.654-4.152v-.3A7.138,7.138,0,0,1-32.5-8.98a4.834,4.834,0,0,1,1.928-2.111,5.821,5.821,0,0,1,3.008-.747,5.031,5.031,0,0,1,3.867,1.52A5.973,5.973,0,0,1-22.279-6.08v1.407h-7.2a2.609,2.609,0,0,0,.849,1.536,2.525,2.525,0,0,0,1.7.559,3.254,3.254,0,0,0,2.686-1.2l1.654,1.955A4.624,4.624,0,0,1-24.508-.338,6.48,6.48,0,0,1-27.178.215Zm-.408-9.26q-1.59,0-1.891,2.105h3.652v-.279a1.793,1.793,0,0,0-.44-1.348A1.753,1.753,0,0,0-27.586-9.045ZM-17.5-11.623l.118,1.364a3.942,3.942,0,0,1,3.319-1.579,3.316,3.316,0,0,1,2.712,1.085,5.165,5.165,0,0,1,.929,3.266V0h-3.631V-7.337a1.961,1.961,0,0,0-.354-1.294,1.64,1.64,0,0,0-1.289-.414,1.726,1.726,0,0,0-1.579.838V0h-3.62V-11.623Zm13.3-2.89v2.89h1.912v2.514H-4.2v5.317a1.358,1.358,0,0,0,.236.913,1.268,1.268,0,0,0,.935.258,5.311,5.311,0,0,0,.9-.064V-.1A6.681,6.681,0,0,1-4.168.215,3.792,3.792,0,0,1-6.929-.666,3.61,3.61,0,0,1-7.82-3.341V-9.109H-9.3v-2.514H-7.82v-2.89ZM6.166-8.347,4.974-8.433A2.142,2.142,0,0,0,2.782-7.358V0H-.838V-11.623H2.557l.118,1.493a2.8,2.8,0,0,1,2.546-1.708,3.53,3.53,0,0,1,1.01.129Zm.462,2.428a6.86,6.86,0,0,1,.677-3.1,4.84,4.84,0,0,1,1.944-2.089,5.856,5.856,0,0,1,2.976-.73,5.344,5.344,0,0,1,4.114,1.617,6.2,6.2,0,0,1,1.5,4.4v.129A6.019,6.019,0,0,1,16.333-1.38a5.359,5.359,0,0,1-4.087,1.6A5.42,5.42,0,0,1,8.261-1.273,5.819,5.819,0,0,1,6.639-5.307Zm3.62.226a4.325,4.325,0,0,0,.5,2.363,1.682,1.682,0,0,0,1.493.752q1.934,0,1.977-2.976v-.365q0-3.126-2-3.126-1.815,0-1.966,2.7ZM24.46-5.9a7.1,7.1,0,0,1,1.192-4.351,3.925,3.925,0,0,1,3.33-1.59A3.338,3.338,0,0,1,31.6-10.613V-16.5h3.631V0H31.979L31.8-1.246A3.428,3.428,0,0,1,28.961.215a3.918,3.918,0,0,1-3.287-1.59A7.325,7.325,0,0,1,24.46-5.9Zm3.62.226q0,3.094,1.8,3.094A1.782,1.782,0,0,0,31.6-3.588V-8.014a1.734,1.734,0,0,0-1.7-1.031q-1.676,0-1.815,2.707ZM42.915.215a5.975,5.975,0,0,1-4.329-1.6,5.509,5.509,0,0,1-1.654-4.152v-.3a7.138,7.138,0,0,1,.661-3.147,4.834,4.834,0,0,1,1.928-2.111,5.821,5.821,0,0,1,3.008-.747,5.031,5.031,0,0,1,3.867,1.52A5.973,5.973,0,0,1,47.813-6.08v1.407h-7.2a2.609,2.609,0,0,0,.849,1.536,2.525,2.525,0,0,0,1.7.559,3.254,3.254,0,0,0,2.686-1.2L47.5-1.826A4.624,4.624,0,0,1,45.584-.338,6.48,6.48,0,0,1,42.915.215Zm-.408-9.26q-1.59,0-1.891,2.105h3.652v-.279a1.793,1.793,0,0,0-.44-1.348A1.753,1.753,0,0,0,42.507-9.045Zm-80.55,28.779a.836.836,0,0,0-.483-.741,7.353,7.353,0,0,0-1.837-.58,8.376,8.376,0,0,1-2.234-.79,3.743,3.743,0,0,1-1.343-1.187,2.835,2.835,0,0,1-.462-1.6A3.212,3.212,0,0,1-43.082,12.2a5.443,5.443,0,0,1,3.459-1.037,6.03,6.03,0,0,1,3.7,1.042,3.258,3.258,0,0,1,1.4,2.739h-3.631q0-1.4-1.472-1.4a1.459,1.459,0,0,0-.956.317.981.981,0,0,0-.387.79.9.9,0,0,0,.473.784,4.466,4.466,0,0,0,1.509.494,13.042,13.042,0,0,1,1.821.462q2.621.9,2.621,3.233a3.044,3.044,0,0,1-1.413,2.589,6.2,6.2,0,0,1-3.658,1,6.322,6.322,0,0,1-2.664-.537,4.455,4.455,0,0,1-1.826-1.461,3.308,3.308,0,0,1-.655-1.944h3.384a1.4,1.4,0,0,0,.537,1.176,2.209,2.209,0,0,0,1.321.371,1.738,1.738,0,0,0,1.112-.3A.962.962,0,0,0-38.043,19.734Zm10.807,3.48a5.975,5.975,0,0,1-4.329-1.6,5.509,5.509,0,0,1-1.654-4.152v-.3a7.138,7.138,0,0,1,.661-3.147,4.834,4.834,0,0,1,1.928-2.111,5.821,5.821,0,0,1,3.008-.747,5.031,5.031,0,0,1,3.867,1.52,5.973,5.973,0,0,1,1.418,4.238v1.407h-7.2a2.609,2.609,0,0,0,.849,1.536,2.525,2.525,0,0,0,1.7.559,3.254,3.254,0,0,0,2.686-1.2l1.654,1.955a4.624,4.624,0,0,1-1.917,1.488A6.48,6.48,0,0,1-27.237,23.215Zm-.408-9.26q-1.59,0-1.891,2.105h3.652v-.279a1.793,1.793,0,0,0-.44-1.348A1.753,1.753,0,0,0-27.645,13.955Zm13.793.7-1.192-.086a2.142,2.142,0,0,0-2.191,1.074V23h-3.62V11.377h3.395l.118,1.493A2.8,2.8,0,0,1-14.8,11.162a3.53,3.53,0,0,1,1.01.129Zm6.134,4.039,1.837-7.315h3.813L-5.86,23h-3.7l-3.792-11.623h3.824ZM2.831,23H-.8V11.377H2.831ZM-1.015,8.369A1.63,1.63,0,0,1-.457,7.094a2.1,2.1,0,0,1,1.45-.5,2.1,2.1,0,0,1,1.45.5A1.63,1.63,0,0,1,3,8.369a1.63,1.63,0,0,1-.559,1.275,2.1,2.1,0,0,1-1.45.5,2.1,2.1,0,0,1-1.45-.5A1.63,1.63,0,0,1-1.015,8.369ZM9.974,20.422a1.61,1.61,0,0,0,1.182-.414,1.517,1.517,0,0,0,.408-1.155h3.395a4.018,4.018,0,0,1-1.37,3.137,5.1,5.1,0,0,1-3.529,1.225,5.158,5.158,0,0,1-4-1.59,6.264,6.264,0,0,1-1.461-4.4v-.15a7.08,7.08,0,0,1,.65-3.11,4.732,4.732,0,0,1,1.875-2.073,5.589,5.589,0,0,1,2.9-.725,5.03,5.03,0,0,1,3.6,1.257,4.458,4.458,0,0,1,1.332,3.405H11.564a1.987,1.987,0,0,0-.44-1.386,1.52,1.52,0,0,0-1.182-.483q-1.407,0-1.644,1.794a12.659,12.659,0,0,0-.075,1.568,4.972,4.972,0,0,0,.419,2.428A1.45,1.45,0,0,0,9.974,20.422ZM20.308,23H16.677V11.377h3.631ZM16.462,8.369a1.63,1.63,0,0,1,.559-1.275,2.364,2.364,0,0,1,2.9,0,1.63,1.63,0,0,1,.559,1.275,1.63,1.63,0,0,1-.559,1.275,2.364,2.364,0,0,1-2.9,0A1.63,1.63,0,0,1,16.462,8.369Zm5.618,8.712a6.86,6.86,0,0,1,.677-3.1A4.84,4.84,0,0,1,24.7,11.893a5.856,5.856,0,0,1,2.976-.73,5.344,5.344,0,0,1,4.114,1.617,6.2,6.2,0,0,1,1.5,4.4v.129a6.019,6.019,0,0,1-1.509,4.313,5.359,5.359,0,0,1-4.087,1.6,5.42,5.42,0,0,1-3.985-1.488,5.819,5.819,0,0,1-1.622-4.034Zm3.62.226a4.325,4.325,0,0,0,.5,2.363,1.682,1.682,0,0,0,1.493.752q1.934,0,1.977-2.976v-.365q0-3.126-2-3.126-1.815,0-1.966,2.7Zm15.275,2.428a.836.836,0,0,0-.483-.741,7.353,7.353,0,0,0-1.837-.58,8.376,8.376,0,0,1-2.234-.79,3.743,3.743,0,0,1-1.343-1.187,2.835,2.835,0,0,1-.462-1.6A3.212,3.212,0,0,1,35.938,12.2,5.443,5.443,0,0,1,39.4,11.162a6.03,6.03,0,0,1,3.7,1.042,3.258,3.258,0,0,1,1.4,2.739H40.858q0-1.4-1.472-1.4a1.459,1.459,0,0,0-.956.317.981.981,0,0,0-.387.79.9.9,0,0,0,.473.784,4.466,4.466,0,0,0,1.509.494,13.042,13.042,0,0,1,1.821.462q2.621.9,2.621,3.233a3.044,3.044,0,0,1-1.413,2.589,6.2,6.2,0,0,1-3.658,1,6.322,6.322,0,0,1-2.664-.537,4.455,4.455,0,0,1-1.826-1.461,3.308,3.308,0,0,1-.655-1.944h3.384a1.4,1.4,0,0,0,.537,1.176,2.209,2.209,0,0,0,1.321.371,1.738,1.738,0,0,0,1.112-.3A.962.962,0,0,0,40.976,19.734Z" transform="translate(781.5 1635.5)" fill="#12263f"/>
    <path id="Trazado_199858" data-name="Trazado 199858" d="M-56.939-5.307V0h-3.771V-15.641h6.241a7.269,7.269,0,0,1,3.174.661,4.979,4.979,0,0,1,2.138,1.88,5.134,5.134,0,0,1,.757,2.766,4.526,4.526,0,0,1-1.638,3.658,6.8,6.8,0,0,1-4.5,1.37Zm0-2.911h2.471a2.33,2.33,0,0,0,1.67-.548,2.035,2.035,0,0,0,.575-1.547,2.516,2.516,0,0,0-.591-1.751,2.092,2.092,0,0,0-1.611-.666h-2.514Zm17.413-.129-1.192-.086A2.142,2.142,0,0,0-42.91-7.358V0h-3.62V-11.623h3.395l.118,1.493a2.8,2.8,0,0,1,2.546-1.708,3.53,3.53,0,0,1,1.01.129Zm.462,2.428a6.86,6.86,0,0,1,.677-3.1,4.84,4.84,0,0,1,1.944-2.089,5.856,5.856,0,0,1,2.976-.73,5.344,5.344,0,0,1,4.114,1.617,6.2,6.2,0,0,1,1.5,4.4v.129A6.019,6.019,0,0,1-29.358-1.38a5.359,5.359,0,0,1-4.087,1.6,5.42,5.42,0,0,1-3.985-1.488,5.819,5.819,0,0,1-1.622-4.034Zm3.62.226a4.325,4.325,0,0,0,.5,2.363,1.682,1.682,0,0,0,1.493.752q1.934,0,1.977-2.976v-.365q0-3.126-2-3.126-1.815,0-1.966,2.7ZM-21.78-4.308l1.837-7.315h3.813L-19.921,0h-3.7l-3.792-11.623h3.824ZM-11.231,0h-3.631V-11.623h3.631Zm-3.846-14.631a1.63,1.63,0,0,1,.559-1.275,2.1,2.1,0,0,1,1.45-.5,2.1,2.1,0,0,1,1.45.5,1.63,1.63,0,0,1,.559,1.275,1.63,1.63,0,0,1-.559,1.275,2.1,2.1,0,0,1-1.45.5,2.1,2.1,0,0,1-1.45-.5A1.63,1.63,0,0,1-15.077-14.631ZM-2.917-3.266A.836.836,0,0,0-3.4-4.007a7.353,7.353,0,0,0-1.837-.58,8.376,8.376,0,0,1-2.234-.79A3.743,3.743,0,0,1-8.814-6.563a2.834,2.834,0,0,1-.462-1.6A3.212,3.212,0,0,1-7.955-10.8,5.443,5.443,0,0,1-4.5-11.838,6.03,6.03,0,0,1-.8-10.8,3.258,3.258,0,0,1,.6-8.057H-3.035q0-1.4-1.472-1.4a1.459,1.459,0,0,0-.956.317.981.981,0,0,0-.387.79.9.9,0,0,0,.473.784,4.466,4.466,0,0,0,1.509.494,13.043,13.043,0,0,1,1.821.462Q.575-5.7.575-3.373A3.044,3.044,0,0,1-.838-.784,6.2,6.2,0,0,1-4.5.215,6.322,6.322,0,0,1-7.16-.322,4.455,4.455,0,0,1-8.986-1.783a3.308,3.308,0,0,1-.655-1.944h3.384A1.4,1.4,0,0,0-5.72-2.551,2.209,2.209,0,0,0-4.4-2.181a1.738,1.738,0,0,0,1.112-.3A.962.962,0,0,0-2.917-3.266ZM6.085,0H2.455V-11.623H6.085ZM2.24-14.631A1.63,1.63,0,0,1,2.8-15.906a2.1,2.1,0,0,1,1.45-.5,2.1,2.1,0,0,1,1.45.5,1.63,1.63,0,0,1,.559,1.275A1.63,1.63,0,0,1,5.7-13.356a2.1,2.1,0,0,1-1.45.5,2.1,2.1,0,0,1-1.45-.5A1.63,1.63,0,0,1,2.24-14.631ZM7.858-5.919a6.86,6.86,0,0,1,.677-3.1,4.84,4.84,0,0,1,1.944-2.089,5.856,5.856,0,0,1,2.976-.73,5.344,5.344,0,0,1,4.114,1.617,6.2,6.2,0,0,1,1.5,4.4v.129A6.019,6.019,0,0,1,17.563-1.38a5.359,5.359,0,0,1-4.087,1.6A5.42,5.42,0,0,1,9.491-1.273,5.819,5.819,0,0,1,7.869-5.307Zm3.62.226a4.325,4.325,0,0,0,.5,2.363,1.682,1.682,0,0,0,1.493.752q1.934,0,1.977-2.976v-.365q0-3.126-2-3.126-1.815,0-1.966,2.7ZM13.949-16.5h3.824l-2.986,3.373-2.954-.005Zm10.044,4.877.118,1.364a3.942,3.942,0,0,1,3.319-1.579,3.316,3.316,0,0,1,2.712,1.085,5.165,5.165,0,0,1,.929,3.266V0H27.441V-7.337a1.961,1.961,0,0,0-.354-1.294A1.64,1.64,0,0,0,25.8-9.045a1.726,1.726,0,0,0-1.579.838V0H20.6V-11.623ZM38.1-5.9a7.1,7.1,0,0,1,1.192-4.351,3.925,3.925,0,0,1,3.33-1.59,3.338,3.338,0,0,1,2.621,1.225V-16.5h3.631V0H45.617l-.183-1.246A3.428,3.428,0,0,1,42.6.215a3.918,3.918,0,0,1-3.287-1.59A7.325,7.325,0,0,1,38.1-5.9Zm3.62.226q0,3.094,1.8,3.094a1.782,1.782,0,0,0,1.719-1.01V-8.014a1.734,1.734,0,0,0-1.7-1.031q-1.676,0-1.815,2.707ZM56.552.215a5.975,5.975,0,0,1-4.329-1.6,5.509,5.509,0,0,1-1.654-4.152v-.3a7.138,7.138,0,0,1,.661-3.147,4.834,4.834,0,0,1,1.928-2.111,5.821,5.821,0,0,1,3.008-.747,5.031,5.031,0,0,1,3.867,1.52A5.973,5.973,0,0,1,61.451-6.08v1.407h-7.2A2.609,2.609,0,0,0,55.1-3.137a2.525,2.525,0,0,0,1.7.559,3.254,3.254,0,0,0,2.686-1.2l1.654,1.955A4.624,4.624,0,0,1,59.222-.338,6.48,6.48,0,0,1,56.552.215Zm-.408-9.26q-1.59,0-1.891,2.105h3.652v-.279a1.793,1.793,0,0,0-.44-1.348A1.753,1.753,0,0,0,56.144-9.045ZM-38.043,19.734a.836.836,0,0,0-.483-.741,7.353,7.353,0,0,0-1.837-.58,8.376,8.376,0,0,1-2.234-.79,3.743,3.743,0,0,1-1.343-1.187,2.835,2.835,0,0,1-.462-1.6A3.212,3.212,0,0,1-43.082,12.2a5.443,5.443,0,0,1,3.459-1.037,6.03,6.03,0,0,1,3.7,1.042,3.258,3.258,0,0,1,1.4,2.739h-3.631q0-1.4-1.472-1.4a1.459,1.459,0,0,0-.956.317.981.981,0,0,0-.387.79.9.9,0,0,0,.473.784,4.466,4.466,0,0,0,1.509.494,13.042,13.042,0,0,1,1.821.462q2.621.9,2.621,3.233a3.044,3.044,0,0,1-1.413,2.589,6.2,6.2,0,0,1-3.658,1,6.322,6.322,0,0,1-2.664-.537,4.455,4.455,0,0,1-1.826-1.461,3.308,3.308,0,0,1-.655-1.944h3.384a1.4,1.4,0,0,0,.537,1.176,2.209,2.209,0,0,0,1.321.371,1.738,1.738,0,0,0,1.112-.3A.962.962,0,0,0-38.043,19.734Zm10.807,3.48a5.975,5.975,0,0,1-4.329-1.6,5.509,5.509,0,0,1-1.654-4.152v-.3a7.138,7.138,0,0,1,.661-3.147,4.834,4.834,0,0,1,1.928-2.111,5.821,5.821,0,0,1,3.008-.747,5.031,5.031,0,0,1,3.867,1.52,5.973,5.973,0,0,1,1.418,4.238v1.407h-7.2a2.609,2.609,0,0,0,.849,1.536,2.525,2.525,0,0,0,1.7.559,3.254,3.254,0,0,0,2.686-1.2l1.654,1.955a4.624,4.624,0,0,1-1.917,1.488A6.48,6.48,0,0,1-27.237,23.215Zm-.408-9.26q-1.59,0-1.891,2.105h3.652v-.279a1.793,1.793,0,0,0-.44-1.348A1.753,1.753,0,0,0-27.645,13.955Zm13.793.7-1.192-.086a2.142,2.142,0,0,0-2.191,1.074V23h-3.62V11.377h3.395l.118,1.493A2.8,2.8,0,0,1-14.8,11.162a3.53,3.53,0,0,1,1.01.129Zm6.134,4.039,1.837-7.315h3.813L-5.86,23h-3.7l-3.792-11.623h3.824ZM2.831,23H-.8V11.377H2.831ZM-1.015,8.369A1.63,1.63,0,0,1-.457,7.094a2.1,2.1,0,0,1,1.45-.5,2.1,2.1,0,0,1,1.45.5A1.63,1.63,0,0,1,3,8.369a1.63,1.63,0,0,1-.559,1.275,2.1,2.1,0,0,1-1.45.5,2.1,2.1,0,0,1-1.45-.5A1.63,1.63,0,0,1-1.015,8.369ZM9.974,20.422a1.61,1.61,0,0,0,1.182-.414,1.517,1.517,0,0,0,.408-1.155h3.395a4.018,4.018,0,0,1-1.37,3.137,5.1,5.1,0,0,1-3.529,1.225,5.158,5.158,0,0,1-4-1.59,6.264,6.264,0,0,1-1.461-4.4v-.15a7.08,7.08,0,0,1,.65-3.11,4.732,4.732,0,0,1,1.875-2.073,5.589,5.589,0,0,1,2.9-.725,5.03,5.03,0,0,1,3.6,1.257,4.458,4.458,0,0,1,1.332,3.405H11.564a1.987,1.987,0,0,0-.44-1.386,1.52,1.52,0,0,0-1.182-.483q-1.407,0-1.644,1.794a12.659,12.659,0,0,0-.075,1.568,4.972,4.972,0,0,0,.419,2.428A1.45,1.45,0,0,0,9.974,20.422ZM20.308,23H16.677V11.377h3.631ZM16.462,8.369a1.63,1.63,0,0,1,.559-1.275,2.364,2.364,0,0,1,2.9,0,1.63,1.63,0,0,1,.559,1.275,1.63,1.63,0,0,1-.559,1.275,2.364,2.364,0,0,1-2.9,0A1.63,1.63,0,0,1,16.462,8.369Zm5.618,8.712a6.86,6.86,0,0,1,.677-3.1A4.84,4.84,0,0,1,24.7,11.893a5.856,5.856,0,0,1,2.976-.73,5.344,5.344,0,0,1,4.114,1.617,6.2,6.2,0,0,1,1.5,4.4v.129a6.019,6.019,0,0,1-1.509,4.313,5.359,5.359,0,0,1-4.087,1.6,5.42,5.42,0,0,1-3.985-1.488,5.819,5.819,0,0,1-1.622-4.034Zm3.62.226a4.325,4.325,0,0,0,.5,2.363,1.682,1.682,0,0,0,1.493.752q1.934,0,1.977-2.976v-.365q0-3.126-2-3.126-1.815,0-1.966,2.7Zm15.275,2.428a.836.836,0,0,0-.483-.741,7.353,7.353,0,0,0-1.837-.58,8.376,8.376,0,0,1-2.234-.79,3.743,3.743,0,0,1-1.343-1.187,2.835,2.835,0,0,1-.462-1.6A3.212,3.212,0,0,1,35.938,12.2,5.443,5.443,0,0,1,39.4,11.162a6.03,6.03,0,0,1,3.7,1.042,3.258,3.258,0,0,1,1.4,2.739H40.858q0-1.4-1.472-1.4a1.459,1.459,0,0,0-.956.317.981.981,0,0,0-.387.79.9.9,0,0,0,.473.784,4.466,4.466,0,0,0,1.509.494,13.042,13.042,0,0,1,1.821.462q2.621.9,2.621,3.233a3.044,3.044,0,0,1-1.413,2.589,6.2,6.2,0,0,1-3.658,1,6.322,6.322,0,0,1-2.664-.537,4.455,4.455,0,0,1-1.826-1.461,3.308,3.308,0,0,1-.655-1.944h3.384a1.4,1.4,0,0,0,.537,1.176,2.209,2.209,0,0,0,1.321.371,1.738,1.738,0,0,0,1.112-.3A.962.962,0,0,0,40.976,19.734Z" transform="translate(1047.5 1635.5)" fill="#12263f"/>
    <rect id="Rectángulo_46699" data-name="Rectángulo 46699" width="744" height="13" transform="translate(409 1681)" fill="url(#linear-gradient-10)"/>
    <path id="Trazado_199661" data-name="Trazado 199661" d="M-7812.137-9468.582h8.41v-41.93h14.031v41.93h8.766l-16.3,16.3Z" transform="translate(-7012.137 -7752.793) rotate(180)" fill="url(#linear-gradient-10)"/>
    <path id="Trazado_199827" data-name="Trazado 199827" d="M-7812.137-9468.582h8.41v-71.078h14.031v71.078h8.766l-16.3,16.3Z" transform="translate(-7121.137 -7451.066) rotate(180)" fill="url(#linear-gradient-10)"/>
    <path id="Trazado_199828" data-name="Trazado 199828" d="M-7812.137-9468.582h8.41V-9717.22h14.031v248.638h8.766l-16.3,16.3Z" transform="translate(-8665.277 9928.816) rotate(90)" fill="url(#linear-gradient-10)"/>
    <path id="Trazado_199826" data-name="Trazado 199826" d="M-7812.137-9468.582h8.41v-41.93h14.031v41.93h8.766l-16.3,16.3Z" transform="translate(8580.93 11354.177)" fill="url(#linear-gradient-10)"/>
    <g id="Grupo_161574" data-name="Grupo 161574" transform="translate(-56.765 860.8)">
      <g id="Grupo_146087" data-name="Grupo 146087" transform="translate(641.646 908.675)">
        <rect id="Rectángulo_37274" data-name="Rectángulo 37274" width="394.631" height="65.692" rx="10" transform="translate(1.263 0)" fill="url(#linear-gradient-10)"/>
        <g id="Rectángulo_37275" data-name="Rectángulo 37275" transform="translate(0 0)" fill="#fff" stroke="#1565c0" stroke-width="1">
          <rect width="61.902" height="65.692" rx="10" stroke="none"/>
          <rect x="0.5" y="0.5" width="60.902" height="64.692" rx="9.5" fill="none"/>
        </g>
        <path id="Trazado_199859" data-name="Trazado 199859" d="M-139.514-15.641-134.4-2.879l5.113-12.762h2.675V0h-2.062V-6.091l.193-6.574L-133.617,0H-135.2l-5.124-12.633.2,6.542V0h-2.062V-15.641Zm15.705,9.722a6.865,6.865,0,0,1,.671-3.072,5.009,5.009,0,0,1,1.869-2.105,5.088,5.088,0,0,1,2.734-.741,4.9,4.9,0,0,1,3.84,1.644,6.323,6.323,0,0,1,1.466,4.372v.14a6.925,6.925,0,0,1-.65,3.045,4.935,4.935,0,0,1-1.858,2.1,5.147,5.147,0,0,1-2.777.752,4.889,4.889,0,0,1-3.83-1.644,6.291,6.291,0,0,1-1.466-4.351Zm2,.236a4.972,4.972,0,0,0,.9,3.1,2.871,2.871,0,0,0,2.4,1.171,2.853,2.853,0,0,0,2.406-1.187,5.437,5.437,0,0,0,.892-3.325,4.964,4.964,0,0,0-.908-3.1,2.886,2.886,0,0,0-2.412-1.187,2.854,2.854,0,0,0-2.374,1.171A5.4,5.4,0,0,0-121.811-5.683Zm12.955-5.94.064,1.461a4.236,4.236,0,0,1,3.48-1.676q3.685,0,3.717,4.157V0h-1.987V-7.691a2.676,2.676,0,0,0-.575-1.858,2.3,2.3,0,0,0-1.756-.6,2.868,2.868,0,0,0-1.7.516,3.5,3.5,0,0,0-1.139,1.354V0h-1.987V-11.623ZM-96.438,0h-1.987V-11.623h1.987Zm-2.148-14.706a1.186,1.186,0,0,1,.3-.816,1.109,1.109,0,0,1,.875-.333,1.126,1.126,0,0,1,.881.333,1.174,1.174,0,0,1,.3.816,1.135,1.135,0,0,1-.3.806,1.147,1.147,0,0,1-.881.322,1.129,1.129,0,0,1-.875-.322A1.147,1.147,0,0,1-98.586-14.706Zm8.024.269v2.814h2.17v1.536h-2.17V-2.87a1.613,1.613,0,0,0,.29,1.049,1.221,1.221,0,0,0,.988.35,4.811,4.811,0,0,0,.945-.129V0a5.8,5.8,0,0,1-1.525.214,2.475,2.475,0,0,1-2.009-.806,3.461,3.461,0,0,1-.677-2.288v-7.208h-2.116v-1.536h2.116v-2.814Zm3.749,8.519a6.865,6.865,0,0,1,.671-3.072A5.009,5.009,0,0,1-84.272-11.1a5.088,5.088,0,0,1,2.734-.741,4.9,4.9,0,0,1,3.84,1.644,6.323,6.323,0,0,1,1.466,4.372v.14a6.925,6.925,0,0,1-.65,3.045,4.935,4.935,0,0,1-1.858,2.1,5.147,5.147,0,0,1-2.777.752,4.889,4.889,0,0,1-3.83-1.644,6.291,6.291,0,0,1-1.466-4.351Zm2,.236a4.972,4.972,0,0,0,.9,3.1,2.871,2.871,0,0,0,2.4,1.171,2.853,2.853,0,0,0,2.406-1.187,5.437,5.437,0,0,0,.892-3.325,4.964,4.964,0,0,0-.908-3.1,2.886,2.886,0,0,0-2.412-1.187,2.854,2.854,0,0,0-2.374,1.171A5.4,5.4,0,0,0-84.815-5.683ZM-68.122-9.84a5.955,5.955,0,0,0-.978-.075A2.619,2.619,0,0,0-71.752-8.25V0H-73.74V-11.623h1.934l.032,1.343A3.094,3.094,0,0,1-69-11.838a2.03,2.03,0,0,1,.881.15ZM-64.136,0h-1.987V-11.623h1.987Zm-2.148-14.706a1.186,1.186,0,0,1,.3-.816,1.109,1.109,0,0,1,.875-.333,1.126,1.126,0,0,1,.881.333,1.174,1.174,0,0,1,.3.816,1.135,1.135,0,0,1-.3.806,1.147,1.147,0,0,1-.881.322,1.129,1.129,0,0,1-.875-.322A1.147,1.147,0,0,1-66.285-14.706Zm7.2,13.084h6.8V0h-9.228V-1.461L-55.1-9.979h-6.316v-1.644h8.809v1.407ZM-42.877,0a4.175,4.175,0,0,1-.279-1.225A4.434,4.434,0,0,1-46.465.215a4.1,4.1,0,0,1-2.82-.972,3.145,3.145,0,0,1-1.1-2.465,3.286,3.286,0,0,1,1.38-2.82,6.508,6.508,0,0,1,3.883-1h1.934V-7.96a2.232,2.232,0,0,0-.623-1.66,2.5,2.5,0,0,0-1.837-.618,2.9,2.9,0,0,0-1.783.537,1.583,1.583,0,0,0-.72,1.3h-2a2.743,2.743,0,0,1,.618-1.681,4.216,4.216,0,0,1,1.676-1.284,5.638,5.638,0,0,1,2.326-.473,4.6,4.6,0,0,1,3.147,1A3.623,3.623,0,0,1-41.2-8.067v5.35a6.54,6.54,0,0,0,.408,2.546V0Zm-3.3-1.515A3.493,3.493,0,0,0-44.4-2a2.924,2.924,0,0,0,1.214-1.257V-5.64h-1.558Q-48.4-5.64-48.4-3.5a1.809,1.809,0,0,0,.623,1.461A2.4,2.4,0,0,0-46.175-1.515Zm12.751.107a2.863,2.863,0,0,0,1.858-.645,2.268,2.268,0,0,0,.881-1.611h1.88a3.6,3.6,0,0,1-.687,1.9A4.528,4.528,0,0,1-31.185-.322a4.882,4.882,0,0,1-2.24.537A4.788,4.788,0,0,1-37.2-1.37,6.311,6.311,0,0,1-38.6-5.7v-.333a7,7,0,0,1,.623-3.019,4.745,4.745,0,0,1,1.789-2.052,5.081,5.081,0,0,1,2.755-.73,4.662,4.662,0,0,1,3.25,1.171,4.185,4.185,0,0,1,1.38,3.04h-1.88a2.739,2.739,0,0,0-.854-1.853,2.657,2.657,0,0,0-1.9-.725,2.781,2.781,0,0,0-2.347,1.09,5.121,5.121,0,0,0-.833,3.153v.376a5.019,5.019,0,0,0,.827,3.094A2.8,2.8,0,0,0-33.424-1.407ZM-24.412,0H-26.4V-11.623h1.987ZM-26.56-14.706a1.186,1.186,0,0,1,.3-.816,1.109,1.109,0,0,1,.875-.333,1.126,1.126,0,0,1,.881.333,1.174,1.174,0,0,1,.3.816,1.135,1.135,0,0,1-.3.806,1.147,1.147,0,0,1-.881.322,1.129,1.129,0,0,1-.875-.322A1.147,1.147,0,0,1-26.56-14.706Zm4.8,8.787a6.865,6.865,0,0,1,.671-3.072A5.008,5.008,0,0,1-19.218-11.1a5.088,5.088,0,0,1,2.734-.741,4.9,4.9,0,0,1,3.84,1.644,6.323,6.323,0,0,1,1.466,4.372v.14a6.925,6.925,0,0,1-.65,3.045,4.935,4.935,0,0,1-1.858,2.1,5.146,5.146,0,0,1-2.777.752,4.889,4.889,0,0,1-3.83-1.644,6.291,6.291,0,0,1-1.466-4.351Zm2,.236a4.972,4.972,0,0,0,.9,3.1,2.871,2.871,0,0,0,2.4,1.171,2.853,2.853,0,0,0,2.406-1.187,5.437,5.437,0,0,0,.892-3.325,4.964,4.964,0,0,0-.908-3.1,2.886,2.886,0,0,0-2.412-1.187,2.854,2.854,0,0,0-2.374,1.171A5.4,5.4,0,0,0-19.76-5.683Zm4.179-10.8h2.406l-2.879,3.158-1.6-.005Zm8.776,4.855.064,1.461a4.236,4.236,0,0,1,3.48-1.676q3.685,0,3.717,4.157V0H-1.531V-7.691A2.676,2.676,0,0,0-2.105-9.55a2.3,2.3,0,0,0-1.756-.6,2.868,2.868,0,0,0-1.7.516A3.5,3.5,0,0,0-6.7-8.282V0H-8.685V-11.623ZM12.7-2.911l2.707-8.712h2.127L12.864,1.794q-1.085,2.9-3.448,2.9L9.04,4.662,8.3,4.522V2.911l.537.043a2.644,2.644,0,0,0,1.574-.408,2.954,2.954,0,0,0,.929-1.493l.44-1.182L7.632-11.623H9.8Zm18.82-.172a1.463,1.463,0,0,0-.607-1.251A5.842,5.842,0,0,0,28.8-5.1a10.005,10.005,0,0,1-2.4-.773A3.408,3.408,0,0,1,25.094-6.95a2.57,2.57,0,0,1-.424-1.482,3.015,3.015,0,0,1,1.208-2.417,4.72,4.72,0,0,1,3.088-.988,4.857,4.857,0,0,1,3.207,1.021,3.241,3.241,0,0,1,1.23,2.61h-2a1.794,1.794,0,0,0-.693-1.407,2.6,2.6,0,0,0-1.746-.591,2.717,2.717,0,0,0-1.7.473A1.488,1.488,0,0,0,26.657-8.5a1.205,1.205,0,0,0,.569,1.085,7,7,0,0,0,2.057.7,10.719,10.719,0,0,1,2.412.795,3.518,3.518,0,0,1,1.37,1.112,2.734,2.734,0,0,1,.446,1.584,2.975,2.975,0,0,1-1.246,2.5,5.227,5.227,0,0,1-3.233.94A5.853,5.853,0,0,1,26.56-.279a4.018,4.018,0,0,1-1.681-1.38,3.327,3.327,0,0,1-.607-1.917h1.987a2.058,2.058,0,0,0,.8,1.584,3.1,3.1,0,0,0,1.971.585,3.2,3.2,0,0,0,1.81-.457A1.4,1.4,0,0,0,31.523-3.083Zm9.4,3.3a5.078,5.078,0,0,1-3.846-1.552,5.761,5.761,0,0,1-1.482-4.152v-.365a6.975,6.975,0,0,1,.661-3.088A5.154,5.154,0,0,1,38.1-11.07a4.645,4.645,0,0,1,2.573-.768A4.353,4.353,0,0,1,44.2-10.345a6.465,6.465,0,0,1,1.257,4.275v.827H37.582a4.132,4.132,0,0,0,1,2.777A3.157,3.157,0,0,0,41.03-1.407a3.461,3.461,0,0,0,1.783-.43,4.48,4.48,0,0,0,1.278-1.139l1.214.945A4.881,4.881,0,0,1,40.922.215Zm-.247-10.42a2.651,2.651,0,0,0-2.02.875,4.255,4.255,0,0,0-1.01,2.455h5.822v-.15a3.785,3.785,0,0,0-.816-2.347A2.5,2.5,0,0,0,40.675-10.205Zm6.606,4.3a6.831,6.831,0,0,1,1.257-4.324,4.019,4.019,0,0,1,3.33-1.606,4,4,0,0,1,3.319,1.5l.1-1.289H57.1V-.279a4.728,4.728,0,0,1-1.337,3.556,4.935,4.935,0,0,1-3.593,1.3,5.978,5.978,0,0,1-2.46-.537,4.235,4.235,0,0,1-1.837-1.472L48.9,1.375A3.886,3.886,0,0,0,52.03,2.954a3.045,3.045,0,0,0,2.261-.816,3.12,3.12,0,0,0,.811-2.3v-1A4.085,4.085,0,0,1,51.847.215a3.97,3.97,0,0,1-3.3-1.644A7.182,7.182,0,0,1,47.282-5.908Zm2,.226a5.211,5.211,0,0,0,.806,3.088,2.618,2.618,0,0,0,2.256,1.123A2.911,2.911,0,0,0,55.1-3.18V-8.486a2.945,2.945,0,0,0-2.739-1.665A2.641,2.641,0,0,0,50.1-9.023,5.676,5.676,0,0,0,49.28-5.683ZM67.273-1.149A4.221,4.221,0,0,1,63.868.215a3.613,3.613,0,0,1-2.831-1.08,4.673,4.673,0,0,1-.983-3.2v-7.562h1.987v7.509q0,2.643,2.148,2.643a2.975,2.975,0,0,0,3.029-1.7v-8.454h1.987V0H67.316ZM74.384,0H72.4V-11.623h1.987ZM72.236-14.706a1.186,1.186,0,0,1,.3-.816,1.109,1.109,0,0,1,.875-.333,1.126,1.126,0,0,1,.881.333,1.174,1.174,0,0,1,.3.816,1.135,1.135,0,0,1-.3.806,1.147,1.147,0,0,1-.881.322,1.129,1.129,0,0,1-.875-.322A1.147,1.147,0,0,1,72.236-14.706Zm7.2,3.083.054,1.289a4.292,4.292,0,0,1,3.448-1.5,3.323,3.323,0,0,1,3.319,1.869,4.4,4.4,0,0,1,1.509-1.354,4.458,4.458,0,0,1,2.2-.516q3.824,0,3.889,4.05V0H91.862V-7.67a2.669,2.669,0,0,0-.569-1.864,2.507,2.507,0,0,0-1.912-.618,2.635,2.635,0,0,0-1.837.661,2.68,2.68,0,0,0-.849,1.778V0h-2V-7.616a2.217,2.217,0,0,0-2.481-2.535,2.659,2.659,0,0,0-2.675,1.665V0H77.553V-11.623ZM99.005,0H97.018V-11.623h1.987ZM96.857-14.706a1.186,1.186,0,0,1,.3-.816,1.109,1.109,0,0,1,.875-.333,1.126,1.126,0,0,1,.881.333,1.174,1.174,0,0,1,.3.816,1.135,1.135,0,0,1-.3.806,1.147,1.147,0,0,1-.881.322,1.129,1.129,0,0,1-.875-.322A1.147,1.147,0,0,1,96.857-14.706ZM107.008.215a5.078,5.078,0,0,1-3.846-1.552,5.761,5.761,0,0,1-1.482-4.152v-.365a6.975,6.975,0,0,1,.661-3.088,5.154,5.154,0,0,1,1.848-2.127,4.645,4.645,0,0,1,2.573-.768,4.353,4.353,0,0,1,3.523,1.493,6.465,6.465,0,0,1,1.257,4.275v.827h-7.874a4.132,4.132,0,0,0,1,2.777,3.157,3.157,0,0,0,2.444,1.058,3.461,3.461,0,0,0,1.783-.43,4.48,4.48,0,0,0,1.278-1.139l1.214.945A4.881,4.881,0,0,1,107.008.215Zm-.247-10.42a2.651,2.651,0,0,0-2.02.875,4.255,4.255,0,0,0-1.01,2.455h5.822v-.15a3.785,3.785,0,0,0-.816-2.347A2.5,2.5,0,0,0,106.761-10.205Zm8.959-1.418.064,1.461a4.236,4.236,0,0,1,3.48-1.676q3.685,0,3.717,4.157V0h-1.987V-7.691a2.676,2.676,0,0,0-.575-1.858,2.3,2.3,0,0,0-1.756-.6,2.868,2.868,0,0,0-1.7.516,3.5,3.5,0,0,0-1.139,1.354V0H113.84V-11.623Zm12.955-2.814v2.814h2.17v1.536h-2.17V-2.87a1.613,1.613,0,0,0,.29,1.049,1.221,1.221,0,0,0,.988.35A4.811,4.811,0,0,0,130.9-1.6V0a5.8,5.8,0,0,1-1.525.214,2.475,2.475,0,0,1-2.009-.806,3.461,3.461,0,0,1-.677-2.288v-7.208h-2.116v-1.536h2.116v-2.814Zm3.749,8.519a6.865,6.865,0,0,1,.671-3.072,5.008,5.008,0,0,1,1.869-2.105,5.088,5.088,0,0,1,2.734-.741,4.9,4.9,0,0,1,3.84,1.644,6.323,6.323,0,0,1,1.466,4.372v.14a6.925,6.925,0,0,1-.65,3.045,4.935,4.935,0,0,1-1.858,2.1,5.146,5.146,0,0,1-2.777.752,4.889,4.889,0,0,1-3.83-1.644,6.291,6.291,0,0,1-1.466-4.351Zm2,.236a4.972,4.972,0,0,0,.9,3.1,2.871,2.871,0,0,0,2.4,1.171,2.853,2.853,0,0,0,2.406-1.187,5.437,5.437,0,0,0,.892-3.325,4.964,4.964,0,0,0-.908-3.1,2.886,2.886,0,0,0-2.412-1.187,2.854,2.854,0,0,0-2.374,1.171A5.4,5.4,0,0,0,134.422-5.683Z" transform="translate(226.311 39.53)" fill="#fff"/>
        <g id="LOV5LS.tif" transform="translate(5.081 9.157)">
          <g id="Grupo_161582" data-name="Grupo 161582">
            <path id="Trazado_199665" data-name="Trazado 199665" d="M774.819,143.837V170.1a2.664,2.664,0,0,1-2.91,1.891c-3.583-.054-7.166-.018-10.75-.018h-.553c0,1.427-.009,2.789.006,4.151,0,.31-.056.471-.4.53-.491.085-.97.243-1.482.377l.945,1.609-4.237,4.255-1.628-.962c-.125.507-.261.947-.337,1.4-.068.4-.26.508-.66.5-1.211-.03-2.424-.011-3.549-.011.1,1.214.23,2.385.278,3.559s.012,2.367.012,3.551H725.868c0-1.332-.016-2.665.005-4a11.5,11.5,0,0,1,4.983-9.585,29.729,29.729,0,0,1,3.191-1.782c-.008-.007-.075-.074-.149-.132a6.275,6.275,0,0,1-.4-9.73.878.878,0,0,0,.274-.735q0-10.264,0-20.528a2.341,2.341,0,0,1,2.474-2.471q18.056,0,36.112,0a2.982,2.982,0,0,1,.681.072A2.508,2.508,0,0,1,774.819,143.837Zm-36.288,2.888v17.392a6.446,6.446,0,0,1,4.552,2.932c.083.127.363.174.552.175q12.95.012,25.9.007h.521V146.725Zm5.557,23.653h27.982c.923,0,1.157-.237,1.157-1.172q0-12.24,0-24.48c0-.934-.234-1.171-1.157-1.171H736.493c-.894,0-1.136.244-1.136,1.142q0,9.624,0,19.248v.526a5.838,5.838,0,0,1,1.082-.28c.44-.027.477-.241.476-.6q-.014-8.933-.007-17.866v-.584h34.736v23.7h-27.76Zm-1.65.02a4.726,4.726,0,1,0-4.758,4.721A4.765,4.765,0,0,0,742.437,170.4Zm-1.119,5.226c4.018,1.792,4.71,2.414,7.179,6.4a.429.429,0,0,0,.295.189c1.082.014,2.165.008,3.267.008.143-.552.255-1.08.425-1.588a1.082,1.082,0,0,1,.408-.477.935.935,0,0,1,1.249.075c.186.157.43.242.627.389a.537.537,0,0,0,.864-.092c.313-.378.694-.7,1.036-1.054s.848-.662.907-1.049c.054-.355-.388-.79-.622-1.184a1.01,1.01,0,0,1,.7-1.624l1.323-.333v-3.259h-3.266a5.47,5.47,0,0,1-2.149,6.034,5.143,5.143,0,0,1-5.806.385c-2.522-1.392-3.336-3.638-2.793-6.417-1.037-.1-1.042-.1-1.4.781A6.6,6.6,0,0,1,741.318,175.624Zm-9.475,3.052a9.971,9.971,0,0,0-2.872,3.068,12.391,12.391,0,0,0-1.464,7.267c0,.1.219.269.345.277.474.033.954-.01,1.428.021.4.026.5-.127.5-.511-.018-1.693-.007-3.386-.007-5.079v-.7h1.664v.611c0,1.726.011,3.452-.008,5.178,0,.4.123.509.51.5,1.331-.02,2.662-.007,3.993-.01.135,0,.271-.025.46-.045Zm13.781,4.34c.009.205.024.381.024.557,0,1.742.011,3.485-.007,5.227,0,.386.1.537.5.509a11.522,11.522,0,0,1,1.33,0c.334.016.487-.089.463-.445s0-.723-.005-1.085a11.754,11.754,0,0,0-.9-4.9,10.18,10.18,0,0,0-3.455-4.211l-4.554,10.6c.212.016.338.034.465.034,1.331,0,2.662-.012,3.993.009.39.006.511-.113.507-.505-.019-1.742-.008-3.484-.008-5.227v-.562Zm8.683-9.583c-.054-.272-.136-.64-.2-1.011-.059-.349-.231-.466-.6-.463-2.121.02-4.242.017-6.363,0a.475.475,0,0,0-.556.394,3.788,3.788,0,0,0,1.11,4.089,3.7,3.7,0,0,0,4.254.684A3.952,3.952,0,0,0,754.307,173.433Zm-12.69,4.08c-.767,2.113-2.073,3.154-3.929,3.15-1.821,0-3.147-1.074-3.885-3.157l-.54.253,4.448,10.344,4.448-10.347Zm-3.894-.835c-.649.081-1.3.167-1.95.24-.306.034-.381.183-.307.468a2.338,2.338,0,0,0,4.491-.012c.063-.253.017-.415-.272-.45C739.035,176.845,738.385,176.761,737.723,176.677Z" transform="translate(-725.863 -141.963)" fill="#12263f"/>
            <path id="Trazado_199666" data-name="Trazado 199666" d="M1102.885,479.279h-9.405v-1.517h9.405Z" transform="translate(-1057.126 -444.555)" fill="#12263f"/>
            <path id="Trazado_199667" data-name="Trazado 199667" d="M1093.411,511.1v-1.514h9.424V511.1Z" transform="translate(-1057.064 -473.23)" fill="#12263f"/>
            <path id="Trazado_199668" data-name="Trazado 199668" d="M1111.038,543.124h-1.5v-1.532h1.5Z" transform="translate(-1071.599 -502.072)" fill="#12263f"/>
            <path id="Trazado_199669" data-name="Trazado 199669" d="M1142.883,543.175h-1.513V541.66h1.513Z" transform="translate(-1100.28 -502.134)" fill="#12263f"/>
            <path id="Trazado_199670" data-name="Trazado 199670" d="M1173.253,543.123v-1.515h1.523v1.515Z" transform="translate(-1129.01 -502.087)" fill="#12263f"/>
            <path id="Trazado_199671" data-name="Trazado 199671" d="M892.755,213.968v1.57h5.481v7.9h-12.56v-7.856h5.457v-1.57h-5.488v-3.155H882.5v3.1H869.87v-7.833h12.6v3.1h3.149v-3.1h12.625v7.853Zm-5.5-6.268v4.661h9.387V207.7Zm-.009,14.129h9.386V217.2h-9.386Zm-6.391-14.124h-9.4v4.66h9.4Z" transform="translate(-855.629 -199.771)" fill="#12263f"/>
            <path id="Trazado_199672" data-name="Trazado 199672" d="M881.019,333.946v1.521H870.028v-1.521Z" transform="translate(-855.771 -314.961)" fill="#12263f"/>
            <path id="Trazado_199673" data-name="Trazado 199673" d="M916.92,365.813v1.518h-7.051v-1.518Z" transform="translate(-891.673 -343.676)" fill="#12263f"/>
            <path id="Trazado_199674" data-name="Trazado 199674" d="M903.476,303.557h-1.508v-1.534h1.508Z" transform="translate(-884.553 -286.195)" fill="#12263f"/>
            <path id="Trazado_199675" data-name="Trazado 199675" d="M935.342,301.938v1.516h-1.525v-1.516Z" transform="translate(-913.252 -286.118)" fill="#12263f"/>
            <path id="Trazado_199676" data-name="Trazado 199676" d="M965.815,301.847h1.512v1.536h-1.512Z" transform="translate(-942.086 -286.036)" fill="#12263f"/>
            <path id="Trazado_199677" data-name="Trazado 199677" d="M1067.718,237.966h-3.128V239.5h3.128Zm-4.749,1.548v-1.553h-1.542v1.553Z" transform="translate(-1028.242 -228.468)" fill="#12263f"/>
            <path id="Trazado_199678" data-name="Trazado 199678" d="M908.864,238h-7.079v1.536h7.079Z" transform="translate(-884.388 -228.5)" fill="#12263f"/>
            <path id="Trazado_199679" data-name="Trazado 199679" d="M1096.542,238.012v1.533h-3.129v-1.533Z" transform="translate(-1057.066 -228.514)" fill="#12263f"/>
            <path id="Trazado_199680" data-name="Trazado 199680" d="M1062.969,239.514h-1.542v-1.553h1.542Z" transform="translate(-1028.242 -228.468)" fill="#12263f"/>
            <path id="Trazado_199681" data-name="Trazado 199681" d="M1061.286,335.363v-1.536h6.29v1.536Z" transform="translate(-1028.116 -314.853)" fill="#12263f"/>
            <path id="Trazado_199682" data-name="Trazado 199682" d="M908.864,238v1.536h-7.079V238Z" transform="translate(-884.388 -228.5)" fill="#12263f"/>
          </g>
        </g>
      </g>
    </g>
    <g id="Grupo_161640" data-name="Grupo 161640" transform="translate(-52.836 -344.67)">
      <path id="Trazado_199662" data-name="Trazado 199662" d="M-8116.387-9498.09h13.341" transform="translate(8723.229 11799.937)" fill="#12263f" stroke="#12263f" stroke-width="4"/>
      <g id="Polígono_80" data-name="Polígono 80" transform="translate(625.836 2297.641) rotate(90)" fill="#12263f">
        <path d="M 7.53146505355835 7.840479850769043 L 0.8090149164199829 7.840479850769043 L 4.170239925384521 1.118029952049255 L 7.53146505355835 7.840479850769043 Z" stroke="none"/>
        <path d="M 4.170239925384521 2.236070156097412 L 1.618034839630127 7.340479850769043 L 6.722445011138916 7.340479850769043 L 4.170239925384521 2.236070156097412 M 4.170239925384521 0 L 8.340479850769043 8.340479850769043 L 0 8.340479850769043 L 4.170239925384521 0 Z" stroke="none" fill="#12263f"/>
      </g>
    </g>
    <g id="Grupo_161641" data-name="Grupo 161641" transform="translate(180.164 -344.67)">
      <path id="Trazado_199662-2" data-name="Trazado 199662" d="M-8116.387-9498.09h13.341" transform="translate(8723.229 11799.937)" fill="#12263f" stroke="#12263f" stroke-width="4"/>
      <g id="Polígono_80-2" data-name="Polígono 80" transform="translate(625.836 2297.641) rotate(90)" fill="#12263f">
        <path d="M 7.53146505355835 7.840479850769043 L 0.8090149164199829 7.840479850769043 L 4.170239925384521 1.118029952049255 L 7.53146505355835 7.840479850769043 Z" stroke="none"/>
        <path d="M 4.170239925384521 2.236070156097412 L 1.618034839630127 7.340479850769043 L 6.722445011138916 7.340479850769043 L 4.170239925384521 2.236070156097412 M 4.170239925384521 0 L 8.340479850769043 8.340479850769043 L 0 8.340479850769043 L 4.170239925384521 0 Z" stroke="none" fill="#12263f"/>
      </g>
    </g>
    <g id="Grupo_161642" data-name="Grupo 161642" transform="translate(418.164 -344.67)">
      <path id="Trazado_199662-3" data-name="Trazado 199662" d="M-8116.387-9498.09h13.341" transform="translate(8723.229 11799.937)" fill="#12263f" stroke="#12263f" stroke-width="4"/>
      <g id="Polígono_80-3" data-name="Polígono 80" transform="translate(625.836 2297.641) rotate(90)" fill="#12263f">
        <path d="M 7.53146505355835 7.840479850769043 L 0.8090149164199829 7.840479850769043 L 4.170239925384521 1.118029952049255 L 7.53146505355835 7.840479850769043 Z" stroke="none"/>
        <path d="M 4.170239925384521 2.236070156097412 L 1.618034839630127 7.340479850769043 L 6.722445011138916 7.340479850769043 L 4.170239925384521 2.236070156097412 M 4.170239925384521 0 L 8.340479850769043 8.340479850769043 L 0 8.340479850769043 L 4.170239925384521 0 Z" stroke="none" fill="#12263f"/>
      </g>
    </g>
  </g>
</svg>
